<svg width="839" height="716" viewBox="0 0 839 716" fill="none" xmlns="http://www.w3.org/2000/svg">
<g filter="url(#filter0_d_3_87)">
<g clip-path="url(#clip0_3_87)">
<rect x="149" y="243" width="648" height="425" rx="20.4934" fill="#F1F1F1"/>
<g filter="url(#filter1_i_3_87)">
<rect x="149" y="236" width="648" height="154" fill="#D9D9D9"/>
</g>
<g filter="url(#filter2_d_3_87)">
<rect x="301" y="342" width="344" height="538" rx="5" fill="#C6C6C6"/>
</g>
</g>
<rect x="140" y="234" width="666" height="443" rx="29.4934" stroke="#383838" stroke-width="18"/>
</g>
<g filter="url(#filter3_d_3_87)">
<g clip-path="url(#clip1_3_87)">
<rect x="42" y="36" width="274.465" height="594.309" rx="20.4934" fill="#F1F1F1"/>
<g clip-path="url(#clip2_3_87)">
<path d="M147.247 371.133C141.904 370.338 139.064 368.126 134.468 361.184C133.459 359.66 131.985 357.435 131.194 356.241C127.423 350.551 126.709 345.084 129.016 339.573C130.601 335.787 131.919 334.473 139.181 329.444C141.235 328.021 144.762 325.573 147.018 324.004C149.274 322.435 152.933 319.89 155.148 318.349C157.364 316.808 162.506 313.233 166.575 310.405C170.644 307.577 174.863 304.644 175.95 303.886C180.873 300.458 184.566 297.888 186.864 296.291C188.234 295.339 192.09 292.657 195.434 290.331C198.778 288.006 202.337 285.532 203.345 284.834C204.352 284.137 206.165 282.877 207.373 282.035C208.582 281.194 212.669 278.35 216.455 275.716C220.242 273.082 224.23 270.306 225.318 269.547C230.661 265.821 232.201 265.186 236.232 265.051C240.723 264.899 244.324 266.225 247.53 269.209C249.921 271.435 257.113 282.488 257.956 285.234C260.257 292.724 257.627 299.626 250.62 304.484C249.433 305.308 246.665 307.23 244.471 308.757C242.276 310.284 237.679 313.481 234.255 315.862C230.83 318.243 227.435 320.606 226.71 321.113C225.985 321.621 222.623 323.959 219.239 326.31C215.855 328.661 211.966 331.365 210.596 332.318C209.226 333.271 207.348 334.576 206.421 335.22C202.351 338.044 182.257 352.022 175.877 356.467C175.152 356.972 173.636 358.026 172.508 358.81C167.96 361.97 166.617 362.904 162.456 365.797C154.935 371.028 152.435 371.905 147.247 371.133ZM151.33 367.018C153.519 366.654 154.794 366.035 158.118 363.717C159.506 362.749 162.455 360.701 164.67 359.164C166.886 357.628 170.05 355.43 171.702 354.28C173.354 353.131 176.57 350.894 178.85 349.309C181.13 347.725 184.738 345.215 186.869 343.732C188.999 342.249 191.568 340.463 192.577 339.762C195.67 337.615 205.455 330.805 208.399 328.751C209.93 327.683 212.351 325.999 213.779 325.009C218.753 321.562 224.239 317.748 227.223 315.664C228.875 314.511 231.174 312.912 232.332 312.112C233.49 311.311 236.951 308.905 240.023 306.763C243.095 304.621 246.597 302.191 247.805 301.363C255.428 296.136 256.726 289.825 251.738 282.243C245.091 272.142 244.879 271.882 242.092 270.469C237.205 267.991 233.885 268.65 227.003 273.461C225.07 274.813 221.127 277.559 218.242 279.565C215.357 281.57 212.08 283.852 210.958 284.634C209.837 285.417 208.092 286.63 207.08 287.331C206.068 288.031 204.519 289.11 203.638 289.728C202.758 290.346 201.11 291.492 199.976 292.274C198.843 293.057 197.096 294.27 196.093 294.971C195.091 295.671 191.65 298.064 188.447 300.289C185.244 302.513 181.798 304.909 180.789 305.612C179.779 306.315 175.954 308.977 172.288 311.526C168.622 314.075 164.634 316.849 163.425 317.69C162.217 318.531 159.481 320.432 157.346 321.914C150.563 326.623 147.84 328.518 144.289 331C142.386 332.33 139.848 334.088 138.649 334.905C130.838 340.234 129.697 346.566 135.095 354.623C135.852 355.752 137.327 357.971 138.375 359.555C142.48 365.761 146.152 367.877 151.33 367.018ZM147.658 363.722C145.932 363.459 144.495 362.726 143.172 361.431C142.351 360.628 142.343 360.656 143.897 358.813C147.578 354.447 147.65 354.388 148.533 355.021C150.098 356.143 154.562 354.743 154.562 353.131C154.562 352.32 153.757 352.373 150.355 353.407C142.642 355.752 138.595 354.796 136.345 350.099C131.85 340.713 146.359 330.011 153.575 337.39C154.462 338.297 154.588 338.009 151.919 341.173C149.408 344.15 149.403 344.153 148.139 343.358C146.561 342.364 144.153 342.979 143.342 344.582C142.606 346.038 144.156 346.106 148.432 344.806C156.427 342.376 161.15 344.279 162.059 350.298C163.033 356.747 154.444 364.753 147.658 363.722ZM172.319 347.515C172.009 347.082 169.787 343.762 167.381 340.137C161.377 331.091 161.898 331.765 161.284 332.246C159.232 333.853 156.038 335.876 155.691 335.787C155.166 335.652 152.218 331.268 152.218 330.622C152.218 330.087 152.051 330.215 158.957 325.428C161.817 323.444 165.574 320.836 167.306 319.632C171.406 316.779 170.867 316.711 173.286 320.39C174.991 322.983 175.129 322.642 171.294 325.305C168.385 327.325 168.471 326.83 170.502 329.861C171.444 331.266 172.775 333.262 173.46 334.297C174.145 335.331 175.803 337.828 177.145 339.846C180.166 344.388 180.231 343.711 176.529 346.304C173.189 348.643 173.139 348.658 172.319 347.515ZM183.015 340.923C182.932 340.82 182.69 339.624 182.477 338.264C182.264 336.905 181.899 334.579 181.666 333.096C181.433 331.613 181.037 329.085 180.787 327.478C180.536 325.872 180.203 323.748 180.046 322.759C178.199 311.098 178.273 312.027 179.137 311.38C180.047 310.696 180.172 310.709 181.73 311.649C182.459 312.088 185.094 313.655 187.585 315.132C205.791 325.92 205.378 325.654 204.996 326.351C204.806 326.698 199.514 330.325 199.197 330.325C199.042 330.325 198.544 330.097 198.09 329.819C197.636 329.541 197.126 329.241 196.957 329.151C196.673 329.002 191.907 332.088 189.549 333.948L189.083 334.316L189.255 335.383C189.579 337.384 189.778 337.087 186.681 339.221C183.961 341.096 183.372 341.37 183.015 340.923ZM189.281 326.233C190.64 325.265 190.654 325.338 188.927 324.278C187.109 323.162 187.108 323.166 187.809 326.991C187.84 327.16 188.352 326.896 189.281 326.233ZM206.827 324.37C206.703 324.226 205.782 322.793 204.78 321.187C201.996 316.722 196.003 307.157 194.377 304.584C192.711 301.947 192.719 302.01 193.944 301.136L194.869 300.477L197.459 301.186C198.883 301.577 200.477 302.018 201.001 302.167C203.476 302.872 210.795 304.865 211.216 304.949C211.833 305.073 211.73 305.576 212.504 298.641C212.872 295.345 213.301 291.503 213.458 290.102C213.614 288.702 213.743 287.505 213.744 287.444C213.747 287.269 215.76 285.945 215.934 286.004C216.088 286.057 216.553 286.702 220.99 293.023C222.233 294.795 225.032 298.772 227.209 301.862C229.63 305.297 231.169 307.616 231.173 307.83C231.18 308.287 230.867 308.553 227.882 310.622C225.088 312.559 225.168 312.528 224.714 311.861C222.537 308.664 219.538 304.556 219.412 304.599C219.32 304.63 218.987 306.57 218.632 309.13C217.884 314.533 217.825 314.636 215.756 314.089C215.255 313.956 213.46 313.48 211.768 313.031C208.027 312.038 208.157 311.888 210.083 314.97C213.538 320.498 213.498 320.426 213.313 320.653C212.92 321.138 207.727 324.632 207.4 324.632C207.209 324.632 206.951 324.514 206.827 324.37ZM235.307 304.596C235.042 304.363 221.454 284.02 221.058 283.263C220.825 282.818 221.001 282.327 221.544 281.904C233.749 272.404 239.908 271.614 244.666 278.939C248.328 284.578 246.848 290.367 240.591 294.871C239.14 295.915 239.125 295.499 240.7 297.884C242.551 300.685 242.709 300.264 238.784 302.994C235.99 304.937 235.797 305.026 235.307 304.596ZM237.198 288.559C239.793 286.126 237.617 281.214 234.27 281.949C233.38 282.144 231.259 283.495 231.372 283.795C231.466 284.045 234.459 288.567 235.026 289.316L235.452 289.879L235.902 289.616C236.149 289.471 236.733 288.996 237.198 288.559ZM123.976 356.092C118.966 352.495 117.379 348.813 116.548 338.863C116.503 338.328 116.337 336.373 116.177 334.519C116.018 332.665 115.756 329.598 115.595 327.703C115.434 325.808 115.236 323.55 115.155 322.685C115.074 321.819 114.843 319.123 114.641 316.692C114.44 314.262 114.211 311.532 114.132 310.625C114.054 309.719 113.921 308.169 113.837 307.18C113.752 306.191 113.583 304.236 113.462 302.836C113.34 301.435 113.08 298.401 112.884 296.094C112.207 288.109 111.8 283.345 111.488 279.766C110.809 271.976 112.632 266.818 117.449 262.904C121.197 259.858 122.767 259.417 132.881 258.566C134.855 258.4 136.734 258.23 137.056 258.187C137.379 258.145 139.554 257.946 141.891 257.745C144.227 257.544 147.688 257.241 149.582 257.071C156.477 256.455 166.27 255.577 168.772 255.351C170.182 255.224 172.852 254.987 174.705 254.823C176.558 254.66 179.195 254.425 180.565 254.302C181.935 254.178 185.363 253.874 188.183 253.626C191.003 253.379 193.969 253.108 194.775 253.025C195.58 252.942 197.097 252.803 198.144 252.715C200.995 252.477 201.509 252.433 203.345 252.271C204.271 252.189 205.425 252.09 205.908 252.051C206.392 252.012 208.699 251.806 211.036 251.592C222.521 250.543 228.214 253.109 231.92 261.006C232.687 262.64 232.71 262.613 230.529 262.613C228.056 262.613 227.952 262.582 227.552 261.721C226.559 259.58 223.623 257.101 220.964 256.157C218.652 255.337 217.405 255.273 212.531 255.724C210.742 255.889 208.124 256.127 206.714 256.253C202.738 256.608 199.617 256.887 195.947 257.216C192.287 257.544 191.279 257.634 185.106 258.19C182.85 258.393 177.906 258.831 174.119 259.164C170.332 259.497 166.146 259.87 164.817 259.993C161.759 260.275 160.224 260.414 153.976 260.97C151.197 261.217 147.439 261.553 145.626 261.716C139.908 262.231 132.295 262.907 130.318 263.075C123.152 263.684 120.352 264.992 117.646 268.993C115.196 272.618 115.129 273.53 116.323 287.031C116.48 288.803 116.842 293.05 117.128 296.469C117.414 299.888 117.714 303.36 117.794 304.184C117.874 305.008 118.105 307.67 118.305 310.101C118.663 314.432 118.971 318.034 119.557 324.782C119.885 328.549 120.239 332.721 120.796 339.388C121.359 346.132 121.992 348.144 124.348 350.683L125.264 351.669L125.261 354.067C125.259 357.076 125.286 357.033 123.976 356.092Z" fill="#4F47E3"/>
<path d="M189.832 354.89C188.068 354.683 185.971 354.297 184.447 353.898C181.824 353.212 181.723 353.136 182.606 352.521L183.108 352.172L184.18 352.472C204.522 358.172 224.933 344.214 227.737 322.685C227.947 321.076 228.279 320.437 228.907 320.437C229.719 320.437 228.55 327.059 226.979 331.357C221.404 346.616 205.447 356.725 189.832 354.89ZM115.924 344.416C112.106 342.264 109.323 338.714 107.988 334.294C107.823 333.748 106.566 326.784 105.195 318.818C103.824 310.851 102.605 303.794 102.485 303.135C102.365 302.476 102.065 300.757 101.818 299.315C101.571 297.873 101.235 295.918 101.072 294.971C100.908 294.023 100.62 292.338 100.43 291.226C99.8984 288.109 98.797 281.74 98.215 278.417C96.0792 266.226 101.562 258.679 114.203 256.411C116.298 256.035 118.375 255.657 118.818 255.572C119.261 255.486 122.26 254.947 125.483 254.373C128.706 253.799 132.068 253.193 132.955 253.026C133.841 252.859 135.72 252.52 137.13 252.272C138.54 252.025 140.385 251.691 141.231 251.531C142.077 251.37 143.956 251.031 145.406 250.777C146.857 250.522 148.736 250.186 149.582 250.03C150.428 249.873 152.109 249.569 153.317 249.354C154.526 249.139 156.767 248.735 158.298 248.456C159.829 248.177 164.147 247.402 167.893 246.733C171.64 246.064 175.793 245.318 177.122 245.075C178.452 244.832 180.66 244.43 182.03 244.182C183.4 243.933 185.278 243.58 186.205 243.397C193.917 241.871 201.086 244.815 204.73 251.004C205.386 252.118 205.372 252.129 203.175 252.295C202.181 252.371 201.251 252.469 201.109 252.515C200.93 252.572 200.683 252.4 200.303 251.953C196.641 247.648 192.684 246.489 185.985 247.758C184.535 248.032 182.294 248.448 181.004 248.681C175.163 249.739 173.266 250.08 169.358 250.777C167.062 251.186 164.82 251.591 164.377 251.676C163.934 251.762 161.693 252.167 159.397 252.577C157.1 252.987 154.101 253.526 152.731 253.775C149.763 254.314 142.745 255.579 140.279 256.02C139.312 256.193 136.84 256.64 134.786 257.012C132.731 257.385 130.16 257.848 129.072 258.042C127.985 258.236 126.32 258.535 125.373 258.706C124.427 258.878 122.878 259.154 121.931 259.32C120.984 259.486 119.682 259.721 119.038 259.844C118.393 259.966 116.373 260.337 114.549 260.668C108.562 261.755 105.913 263.321 103.658 267.107C101.263 271.13 101.3 272.473 104.243 288.754C104.489 290.116 105.709 297.181 106.79 303.51C107.191 305.858 108.02 310.678 108.632 314.221C109.244 317.763 109.977 322.01 110.262 323.658C112.254 335.195 112.489 335.879 115.46 338.781L116.666 339.96L116.858 341.996C117.166 345.258 117.211 345.142 115.924 344.416ZM157.619 315.723C157.2 315.295 158.959 306.61 159.508 306.395C159.784 306.287 160.503 306.73 160.471 306.987C160.458 307.093 160.207 308.112 159.913 309.251C159.619 310.39 159.257 312.174 159.108 313.216C158.819 315.242 158.188 316.305 157.619 315.723ZM160.163 305.38C158.289 304.44 156.719 303.575 156.675 303.457C156.569 303.177 158.092 300.079 158.662 299.415C160.948 296.752 165.186 299.588 163.938 302.946C163.529 304.047 163.558 304.207 164.231 304.558C164.933 304.925 164.945 305.056 164.375 306.21C163.825 307.326 164.184 307.396 160.163 305.38ZM161.795 302.593C162.224 301.347 160.745 300.424 159.922 301.424C159.407 302.05 159.424 302.093 160.385 302.603C161.37 303.125 161.613 303.123 161.795 302.593ZM164.193 297.431C160.992 294.527 161.145 294.802 162.106 293.66C162.779 292.861 162.65 292.832 164.057 294.084C165.443 295.317 165.422 295.316 166.407 294.161C167.337 293.07 167.378 293.282 165.989 291.993C164.627 290.73 164.629 290.737 165.422 289.816C166.2 288.912 165.985 288.807 169.203 291.675C172.454 294.573 172.28 294.305 171.535 295.261C170.813 296.188 170.688 296.194 169.717 295.345C168.735 294.487 168.674 294.494 167.769 295.558C166.841 296.649 166.839 296.597 167.82 297.463C168.785 298.314 168.793 298.395 168.026 299.332C167.237 300.296 167.49 300.421 164.193 297.431ZM173.24 292.292C170.18 291.474 168.84 287.247 170.956 285.083C173.828 282.146 177.938 283.543 178.518 287.653C178.885 290.256 175.792 292.974 173.24 292.292ZM175.366 289.778C176.314 289.205 176.333 288.066 175.417 286.705C174.651 285.566 173.477 285.459 172.659 286.453C171.435 287.941 173.733 290.764 175.366 289.778ZM182.287 288.192C182.208 288.089 181.763 286.825 181.299 285.383C180.287 282.24 180.434 282.428 179.308 282.817C178.245 283.184 178.127 283.132 177.799 282.147C177.472 281.165 177.447 281.181 180.899 280.035C184.518 278.833 184.316 278.839 184.65 279.923C184.955 280.913 184.936 280.95 183.969 281.27C182.733 281.679 182.744 281.532 183.722 284.634C184.732 287.836 184.741 287.651 183.551 288.062C182.472 288.435 182.474 288.434 182.287 288.192ZM189.401 286.532C187.105 285.869 185.872 282.707 186.929 280.193C188.317 276.894 193.911 277.204 194.87 280.633C195.931 284.427 193.012 287.575 189.401 286.532ZM191.777 284.073C192.489 283.42 192.613 282.511 192.186 281.074C191.77 279.677 189.664 279.884 189.276 281.36C188.725 283.449 190.435 285.302 191.777 284.073ZM201.014 283.8C200.257 283.606 198.971 283.367 198.158 283.269C196.149 283.026 195.99 282.957 196.047 282.35C196.12 281.574 197.919 281.677 202.026 282.693C204.332 283.264 204.435 283.327 203.857 283.813C203.313 284.272 202.851 284.27 201.014 283.8Z" fill="#DF214B"/>
<path d="M139.76 373.604C132.426 372.627 126.492 366.45 125.487 358.748C125.166 356.287 125.157 279.274 125.477 277.27C126.671 269.807 131.744 264.348 138.887 262.841C140.559 262.489 245.395 262.491 247.372 262.843C254.557 264.124 259.994 270.011 260.996 277.594C261.324 280.08 261.31 356.387 260.981 358.82C259.987 366.16 255.151 371.494 247.732 373.432C246.672 373.709 141.801 373.876 139.76 373.604ZM152.163 371.742C153.872 371.441 155.407 370.913 156.84 370.133L158.005 369.498L202.246 369.423L246.487 369.348L247.586 369.005C251.733 367.711 254.944 364.64 256.232 360.735C256.979 358.469 256.96 359.304 256.961 328.209V299.204L257.685 297.649C259.961 292.763 259.964 287.994 257.695 282.986C256.996 281.443 256.981 281.38 256.905 279.616C256.631 273.281 252.566 268.314 246.715 267.166C246.079 267.041 245.256 266.743 244.738 266.45C239.984 263.765 234.195 263.745 229.231 266.396L228.322 266.883L184.081 266.962C134.129 267.051 139.38 266.903 136.617 268.296C133.505 269.864 131.367 272.38 130.222 275.818L129.755 277.219L129.642 281.563C129.58 283.953 129.528 297.459 129.526 311.578L129.523 337.249L128.866 338.618C126.51 343.524 126.549 348.712 128.979 353.654L129.658 355.036L129.66 356.65C129.663 362.657 133.937 368.005 139.62 369.114C140.171 369.222 141.158 369.604 141.964 370.021C145.286 371.741 148.794 372.333 152.163 371.742ZM189.281 367.983C183.09 367.424 177.217 365.768 171.739 363.037C169.101 361.722 169.131 361.808 170.889 360.598L172.274 359.645L174.075 360.485C204.827 374.826 239.209 351.832 238.771 317.217L238.724 313.472L240.051 312.547C241.666 311.421 241.651 311.413 241.879 313.547C245.11 343.731 219.079 370.671 189.281 367.983ZM188.549 363.951C183.554 363.383 178.76 362.03 174.302 359.929C172.869 359.253 172.879 359.171 174.529 358.058C176.143 356.97 175.853 357.002 177.578 357.722C204.607 369.012 233.978 349.2 234.963 319.014L235.06 316.018L236.428 315.065C238.238 313.804 238.137 313.607 238.136 318.385C238.134 345.594 214.896 366.947 188.549 363.951ZM190.313 347.559C189.704 347.166 195.439 343.308 196.982 343.072C204.043 341.993 211.053 337.138 214.409 331C215.031 329.864 214.774 330.089 218.126 327.748C221.066 325.696 221.227 325.651 220.852 326.976C217.868 337.544 208.39 345.788 197.297 347.463C195.56 347.726 190.674 347.793 190.313 347.559ZM144.648 323.771C144.582 323.297 144.527 320.752 144.527 318.116C144.527 281.166 181.867 257.273 214.618 273.266C217.413 274.631 217.398 274.575 215.345 275.954L214.19 276.729L212.197 275.802C181.159 261.36 145.73 285.906 147.663 320.512C147.806 323.085 147.895 322.851 146.381 323.868C144.903 324.86 144.799 324.854 144.648 323.771ZM148.46 321.898C147.995 321.128 148.491 312.611 149.209 309.04C155.004 280.246 185.391 264.265 211.621 276.215C213.667 277.147 213.668 277.168 211.667 278.511L210.497 279.296L209.814 279.028C189.92 271.201 169.718 277.385 158.442 294.753C153.933 301.699 150.923 312.301 151.527 319.113C151.639 320.374 148.992 322.778 148.46 321.898ZM165.403 310.19C165.403 309.056 167.676 304.02 169.243 301.683C174.702 293.541 182.84 288.983 192.383 288.721C197.179 288.589 197.159 288.544 193.472 291.12L190.728 293.036L189.153 293.326C181.642 294.709 175.27 299.287 171.705 305.861C171.169 306.849 165.403 310.811 165.403 310.19Z" fill="#383838"/>
<path fill-rule="evenodd" clip-rule="evenodd" d="M180.871 408.608C179.207 408.247 177.934 407.564 176.831 406.442C176.189 405.79 175.998 405.535 175.705 404.948C175.359 404.256 174.951 403.084 174.951 402.784C174.951 402.701 175.035 402.576 175.138 402.508C175.45 402.299 178.01 401.676 178.449 401.702L178.834 401.725L179.179 402.451C179.616 403.366 179.979 403.808 180.678 404.275C182.791 405.685 186.17 405.456 187.175 403.834C187.819 402.797 187.582 401.495 186.614 400.748C186.127 400.372 184.913 399.774 183.754 399.34C183.289 399.165 182.424 398.84 181.832 398.617C178.101 397.212 176.46 395.843 175.9 393.667C175.806 393.301 175.77 392.855 175.772 392.095C175.777 390.837 175.928 390.141 176.424 389.107C176.686 388.559 176.87 388.312 177.445 387.731C178.281 386.888 178.986 386.453 180.209 386.029C181.29 385.654 182.183 385.49 183.446 385.435C185.115 385.363 186.483 385.639 187.84 386.323C189.818 387.319 191.093 389.236 191.124 391.262L191.134 391.883L189.75 392.224C188.253 392.593 187.767 392.64 187.549 392.439C187.474 392.369 187.321 392.031 187.209 391.687C186.801 390.437 186.085 389.674 184.985 389.32C184.211 389.071 182.611 389.071 181.831 389.321C180.606 389.713 180.008 390.455 180.008 391.584C180.008 393.037 180.862 393.713 184.265 394.951C187.447 396.109 188.977 396.888 190.15 397.949C190.66 398.411 191.26 399.326 191.472 399.967C191.868 401.165 191.854 402.831 191.437 404.11C190.622 406.611 188.18 408.384 185.143 408.679C183.792 408.811 181.639 408.775 180.871 408.608Z" fill="#DF214B"/>
<path fill-rule="evenodd" clip-rule="evenodd" d="M208.329 408.759C206.428 408.476 204.861 407.163 204.436 405.495C204.187 404.517 204.324 403.32 204.8 402.328C205.448 400.974 207.149 400.009 209.391 399.725C210.233 399.617 211.755 399.628 212.764 399.749L213.56 399.844L213.529 399.015C213.502 398.311 213.467 398.127 213.294 397.785C212.824 396.857 211.886 396.435 210.476 396.52C209.563 396.574 208.67 396.833 207.421 397.406C206.907 397.641 206.417 397.834 206.331 397.834C205.971 397.834 205.848 397.523 205.625 396.065L205.469 395.043L205.793 394.743C206.847 393.768 208.777 393.195 211.001 393.196C213.431 393.196 215.206 393.773 216.233 394.896C217.384 396.155 217.493 396.745 217.589 402.289L217.643 405.369L217.881 405.552C218.071 405.698 218.203 405.731 218.541 405.719C219.307 405.69 219.49 406 219.497 407.346L219.502 408.172L219.079 408.382C217.987 408.927 216.139 408.92 215.078 408.366C214.907 408.277 214.635 408.082 214.473 407.932C214.303 407.776 214.098 407.661 213.987 407.661C213.882 407.661 213.501 407.802 213.141 407.974C211.713 408.659 209.776 408.975 208.329 408.759ZM211.93 405.241C212.162 405.154 212.621 404.951 212.948 404.791L213.544 404.498V403.73V402.961L213.025 402.854C212.736 402.794 212.047 402.748 211.468 402.749C210.612 402.75 210.336 402.781 209.892 402.925C209.182 403.155 208.784 403.397 208.562 403.731C208.166 404.329 208.616 405.091 209.521 405.351C210.056 405.505 211.383 405.444 211.93 405.241Z" fill="#DF214B"/>
<path fill-rule="evenodd" clip-rule="evenodd" d="M241.68 408.68C240.824 408.472 240.228 408.017 240.003 407.4C239.746 406.696 239.676 405.91 239.565 402.433C239.428 398.123 239.396 397.924 238.747 397.314C237.925 396.542 236.458 396.69 234.934 397.699L234.378 398.066L234.374 401.861C234.368 407.553 234.302 408.279 233.781 408.425C233.665 408.457 232.981 408.484 232.26 408.485C230.742 408.486 230.616 408.444 230.463 407.882C230.4 407.653 230.348 406.172 230.302 403.337C230.233 399.076 230.174 398.176 229.936 397.678C229.756 397.302 229.114 396.916 228.548 396.844C227.627 396.727 226.372 397.094 225.531 397.726L225.076 398.069V403.015V407.961L224.843 408.161C224.534 408.427 224.224 408.484 223.077 408.485C221.845 408.486 221.455 408.417 221.196 408.153L220.993 407.945L221.021 401.179C221.05 394.081 221.053 394.007 221.391 393.662C221.527 393.522 221.658 393.51 223.019 393.511C223.833 393.511 224.577 393.533 224.672 393.559C224.813 393.598 224.845 393.662 224.845 393.902C224.845 394.437 224.964 394.442 225.985 393.952C227.511 393.219 228.913 392.98 230.265 393.223C231.452 393.435 232.172 393.799 233.027 394.616L233.531 395.099L234.278 394.604C237.17 392.689 240.184 392.635 241.975 394.467C242.343 394.844 242.553 395.155 242.841 395.75C243.05 396.183 243.254 396.718 243.293 396.94C243.394 397.504 243.447 398.671 243.526 402.079C243.569 403.952 243.626 405.121 243.684 405.284C243.798 405.613 243.956 405.695 244.472 405.695C244.964 405.695 245.243 405.875 245.359 406.266C245.401 406.406 245.454 406.897 245.479 407.358L245.523 408.195L245.041 408.392C244.776 408.501 244.355 408.628 244.106 408.675C243.584 408.774 242.079 408.777 241.68 408.68Z" fill="#DF214B"/>
<path fill-rule="evenodd" clip-rule="evenodd" d="M247.333 415.573C247.101 415.211 247.039 412.784 247.041 404.162C247.044 395.563 247.087 393.923 247.32 393.685C247.433 393.569 247.642 393.546 248.738 393.528C250.272 393.502 250.334 393.524 250.532 394.139C250.609 394.376 250.673 394.58 250.674 394.591C250.685 394.691 251.018 394.558 251.33 394.329C251.891 393.917 252.502 393.618 253.267 393.379C253.872 393.19 254.065 393.168 255.097 393.168C256.133 393.168 256.32 393.19 256.938 393.382C258.257 393.793 259.391 394.551 260.069 395.475C261.171 396.977 261.666 399.647 261.326 402.257C261.055 404.337 260.399 405.772 259.196 406.911C257.39 408.621 254.799 409.224 252.07 408.571C251.589 408.455 251.175 408.383 251.149 408.409C251.123 408.436 251.084 409.967 251.062 411.813C251.022 415.157 251.022 415.169 250.843 415.463L250.664 415.758H249.057C247.456 415.758 247.451 415.757 247.333 415.573ZM255.135 405.072C257.116 404.436 258.071 401.574 257.169 398.974C256.714 397.661 255.632 396.812 254.416 396.812C253.423 396.812 252.047 397.317 251.413 397.914L251.059 398.248L251.079 401.516L251.099 404.784L251.676 404.969C251.993 405.071 252.443 405.186 252.675 405.224C253.331 405.332 254.563 405.256 255.135 405.072Z" fill="#DF214B"/>
<path fill-rule="evenodd" clip-rule="evenodd" d="M198.397 408.763C196.83 408.556 195.594 407.663 194.911 406.245C194.443 405.274 194.418 405.039 194.334 400.782C194.257 396.917 194.248 396.856 193.736 396.789C193.573 396.768 193.233 396.745 192.979 396.738C192.379 396.723 192.29 396.691 192.184 396.453C192.068 396.193 192.065 394.134 192.18 393.876C192.292 393.625 192.554 393.51 193.011 393.51C193.702 393.51 194.094 393.421 194.187 393.244C194.235 393.151 194.302 392.361 194.34 391.431C194.377 390.524 194.424 389.766 194.444 389.745C194.497 389.69 197.074 389.348 197.453 389.346C197.685 389.344 197.836 389.396 197.991 389.533L198.207 389.722L198.245 391.417C198.282 393.05 198.29 393.119 198.459 393.291C198.63 393.467 198.678 393.471 200.692 393.51C202.979 393.553 203.099 393.58 203.193 394.065C203.282 394.518 203.246 396.131 203.143 396.34C202.984 396.662 202.64 396.717 200.403 396.778L198.309 396.835L198.341 400.223C198.378 404.089 198.388 404.163 198.954 404.729C199.428 405.204 199.764 405.326 200.593 405.325C201.201 405.324 201.4 405.284 202.201 405.005L203.114 404.687L203.322 404.9C203.582 405.166 203.778 405.986 203.797 406.889C203.81 407.525 203.809 407.529 203.551 407.749C203.039 408.186 201.574 408.609 200.052 408.76C199.198 408.844 199.014 408.844 198.397 408.763Z" fill="#DF214B"/>
<path fill-rule="evenodd" clip-rule="evenodd" d="M97.8465 408.372C97.6761 408.262 97.6297 406.998 97.5709 400.86C97.522 395.753 97.624 386.725 97.7368 386.186C97.762 386.065 97.8504 385.955 97.9459 385.924C98.2656 385.822 103.917 385.784 105.14 385.875C110.541 386.281 113.188 388.54 113.609 393.106C113.91 396.368 112.954 399.203 111.052 400.683C109.278 402.064 107.218 402.613 103.293 402.751L101.786 402.805L101.733 405.174C101.703 406.477 101.648 407.684 101.609 407.857C101.483 408.429 101.423 408.447 99.5826 408.445C98.6888 408.445 97.9075 408.412 97.8465 408.372ZM105.383 398.979C106.725 398.768 107.893 398.21 108.496 397.491C108.82 397.104 109.162 396.388 109.307 395.79C109.464 395.146 109.439 393.218 109.266 392.566C108.662 390.293 106.869 389.423 102.782 389.422L101.763 389.422V394.22V399.018L101.936 399.095C102.173 399.201 104.462 399.124 105.383 398.979Z" fill="#383838"/>
<path fill-rule="evenodd" clip-rule="evenodd" d="M127.979 408.769C127.535 408.701 126.773 408.341 126.492 408.069C125.818 407.416 125.643 406.289 125.556 402.04C125.479 398.316 125.397 397.851 124.735 397.36C124.3 397.038 123.761 396.89 123.025 396.891C121.985 396.893 121.119 397.168 120.233 397.777L119.753 398.107V402.677C119.753 405.458 119.722 407.412 119.674 407.669C119.626 407.929 119.525 408.164 119.414 408.278C119.212 408.485 119.007 408.503 117.202 408.466C116.28 408.448 116.215 408.436 115.991 408.243L115.754 408.039L115.774 396.439L115.793 384.84L116.01 384.674C116.214 384.518 116.321 384.508 117.766 384.508C119.271 384.508 119.308 384.512 119.446 384.686C119.719 385.031 119.753 385.55 119.753 389.445C119.754 393.399 119.789 394.296 119.942 394.296C119.991 394.296 120.41 394.123 120.872 393.912C122.155 393.326 122.876 393.163 124.173 393.163C125.061 393.163 125.357 393.194 125.864 393.341C126.868 393.632 127.411 393.946 128.062 394.607C128.719 395.276 128.975 395.743 129.206 396.694C129.47 397.785 129.522 398.5 129.563 401.646C129.585 403.333 129.638 404.9 129.681 405.13C129.772 405.614 129.896 405.695 130.549 405.695C131.292 405.695 131.407 405.896 131.506 407.378L131.558 408.157L131.158 408.344C130.44 408.68 128.81 408.898 127.979 408.769Z" fill="#383838"/>
<path fill-rule="evenodd" clip-rule="evenodd" d="M137.775 408.725C135.257 408.233 133.271 406.407 132.385 403.769C131.407 400.86 131.993 397.519 133.849 395.422C134.648 394.52 136.045 393.7 137.396 393.34C137.995 393.181 138.268 393.156 139.433 393.157C140.595 393.158 140.868 393.183 141.431 393.339C143.821 394.003 145.532 395.502 146.275 397.583C146.844 399.177 147 401.166 146.679 402.717C146.086 405.582 144.161 407.743 141.465 408.572C140.868 408.755 140.618 408.786 139.549 408.807C138.738 408.823 138.133 408.795 137.775 408.725ZM140.295 405.382C141.946 404.861 142.915 403.012 142.79 400.624C142.715 399.205 142.359 398.196 141.656 397.409C141.023 396.7 140.039 396.345 138.988 396.446C137.195 396.617 136.051 398.364 136.051 400.929C136.051 403.174 136.838 404.75 138.259 405.348C138.83 405.588 139.602 405.601 140.295 405.382Z" fill="#383838"/>
<path fill-rule="evenodd" clip-rule="evenodd" d="M153.541 408.762C152.196 408.568 151.012 407.825 150.37 406.774C149.925 406.044 149.737 405.527 149.656 404.809C149.616 404.453 149.552 402.641 149.515 400.782C149.46 397.988 149.427 397.35 149.326 397.106C149.254 396.93 149.149 396.808 149.066 396.802C148.99 396.797 148.67 396.781 148.355 396.768C147.596 396.734 147.472 396.695 147.365 396.456C147.245 396.187 147.244 394.136 147.364 393.867C147.471 393.628 147.822 393.511 148.436 393.51C149.085 393.509 149.332 393.395 149.426 393.051C149.469 392.892 149.504 392.228 149.504 391.574C149.505 390.187 149.543 389.922 149.769 389.772C150.01 389.61 152.598 389.3 152.952 389.39C153.384 389.5 153.422 389.656 153.429 391.308C153.435 393.102 153.48 393.277 153.963 393.405C154.169 393.46 154.994 393.501 156.001 393.508C157.831 393.519 158.162 393.576 158.323 393.903C158.456 394.172 158.456 396.071 158.323 396.34C158.163 396.664 157.817 396.719 155.587 396.779L153.502 396.835L153.503 399.713C153.504 403.743 153.579 404.246 154.272 404.852C154.881 405.385 155.871 405.476 157.039 405.106C158.411 404.671 158.263 404.69 158.462 404.926C158.754 405.273 158.974 405.985 159.016 406.717C159.051 407.317 159.038 407.407 158.888 407.6C158.32 408.331 155.221 409.004 153.541 408.762Z" fill="#383838"/>
<path fill-rule="evenodd" clip-rule="evenodd" d="M165.188 408.723C163.287 408.333 161.722 407.255 160.693 405.629C158.646 402.394 158.983 397.835 161.457 395.269C162.653 394.029 164.301 393.291 166.256 393.121C168.585 392.918 170.649 393.665 172.157 395.255C173.569 396.746 174.256 398.542 174.258 400.752C174.261 403.203 173.56 405.144 172.145 406.603C171.082 407.699 169.925 408.347 168.431 408.685C167.638 408.865 165.974 408.884 165.188 408.723ZM168.099 405.223C169.048 404.775 169.699 403.886 170.045 402.562C170.268 401.708 170.268 400.156 170.045 399.311C169.634 397.753 168.861 396.866 167.621 396.528C165.217 395.874 163.279 398.068 163.446 401.253C163.557 403.376 164.426 404.883 165.835 405.4C166.455 405.627 167.397 405.553 168.099 405.223Z" fill="#383838"/>
</g>
</g>
<rect x="33" y="27" width="292.465" height="612.309" rx="29.4934" stroke="#383838" stroke-width="18"/>
</g>
<defs>
<filter id="filter0_d_3_87" x="107.579" y="207.434" width="730.842" height="507.842" filterUnits="userSpaceOnUse" color-interpolation-filters="sRGB">
<feFlood flood-opacity="0" result="BackgroundImageFix"/>
<feColorMatrix in="SourceAlpha" type="matrix" values="0 0 0 0 0 0 0 0 0 0 0 0 0 0 0 0 0 0 127 0" result="hardAlpha"/>
<feOffset dy="5.85526"/>
<feGaussianBlur stdDeviation="11.7105"/>
<feColorMatrix type="matrix" values="0 0 0 0 0.0582986 0 0 0 0 0.111646 0 0 0 0 0.191667 0 0 0 0.08 0"/>
<feBlend mode="normal" in2="BackgroundImageFix" result="effect1_dropShadow_3_87"/>
<feBlend mode="normal" in="SourceGraphic" in2="effect1_dropShadow_3_87" result="shape"/>
</filter>
<filter id="filter1_i_3_87" x="149" y="236" width="648" height="158" filterUnits="userSpaceOnUse" color-interpolation-filters="sRGB">
<feFlood flood-opacity="0" result="BackgroundImageFix"/>
<feBlend mode="normal" in="SourceGraphic" in2="BackgroundImageFix" result="shape"/>
<feColorMatrix in="SourceAlpha" type="matrix" values="0 0 0 0 0 0 0 0 0 0 0 0 0 0 0 0 0 0 127 0" result="hardAlpha"/>
<feOffset dy="4"/>
<feGaussianBlur stdDeviation="2"/>
<feComposite in2="hardAlpha" operator="arithmetic" k2="-1" k3="1"/>
<feColorMatrix type="matrix" values="0 0 0 0 0 0 0 0 0 0 0 0 0 0 0 0 0 0 0.25 0"/>
<feBlend mode="normal" in2="shape" result="effect1_innerShadow_3_87"/>
</filter>
<filter id="filter2_d_3_87" x="297" y="342" width="352" height="546" filterUnits="userSpaceOnUse" color-interpolation-filters="sRGB">
<feFlood flood-opacity="0" result="BackgroundImageFix"/>
<feColorMatrix in="SourceAlpha" type="matrix" values="0 0 0 0 0 0 0 0 0 0 0 0 0 0 0 0 0 0 127 0" result="hardAlpha"/>
<feOffset dy="4"/>
<feGaussianBlur stdDeviation="2"/>
<feComposite in2="hardAlpha" operator="out"/>
<feColorMatrix type="matrix" values="0 0 0 0 0 0 0 0 0 0 0 0 0 0 0 0 0 0 0.25 0"/>
<feBlend mode="normal" in2="BackgroundImageFix" result="effect1_dropShadow_3_87"/>
<feBlend mode="normal" in="SourceGraphic" in2="effect1_dropShadow_3_87" result="shape"/>
</filter>
<filter id="filter3_d_3_87" x="0.578959" y="0.434219" width="357.307" height="677.151" filterUnits="userSpaceOnUse" color-interpolation-filters="sRGB">
<feFlood flood-opacity="0" result="BackgroundImageFix"/>
<feColorMatrix in="SourceAlpha" type="matrix" values="0 0 0 0 0 0 0 0 0 0 0 0 0 0 0 0 0 0 127 0" result="hardAlpha"/>
<feOffset dy="5.85526"/>
<feGaussianBlur stdDeviation="11.7105"/>
<feColorMatrix type="matrix" values="0 0 0 0 0.0582986 0 0 0 0 0.111646 0 0 0 0 0.191667 0 0 0 0.08 0"/>
<feBlend mode="normal" in2="BackgroundImageFix" result="effect1_dropShadow_3_87"/>
<feBlend mode="normal" in="SourceGraphic" in2="effect1_dropShadow_3_87" result="shape"/>
</filter>
<clipPath id="clip0_3_87">
<rect x="149" y="243" width="648" height="425" rx="20.4934" fill="white"/>
</clipPath>
<clipPath id="clip1_3_87">
<rect x="42" y="36" width="274.465" height="594.309" rx="20.4934" fill="white"/>
</clipPath>
<clipPath id="clip2_3_87">
<rect width="177" height="181" fill="white" transform="translate(91 243)"/>
</clipPath>
</defs>
</svg>
