<?xml version="1.0" encoding="UTF-8" standalone="no"?>
<!-- Created with Inkscape (http://www.inkscape.org/) -->

<svg
   width="2539.3608"
   height="570.25568"
   viewBox="0 0 2539.3609 570.25568"
   version="1.1"
   id="SVGRoot"
   sodipodi:docname="Imagotipo horizontal 2.svg"
   xml:space="preserve"
   inkscape:version="1.2.2 (732a01da63, 2022-12-09)"
   xmlns:inkscape="http://www.inkscape.org/namespaces/inkscape"
   xmlns:sodipodi="http://sodipodi.sourceforge.net/DTD/sodipodi-0.dtd"
   xmlns="http://www.w3.org/2000/svg"
   xmlns:svg="http://www.w3.org/2000/svg"><sodipodi:namedview
     id="namedview42"
     pagecolor="#505050"
     bordercolor="#eeeeee"
     borderopacity="1"
     inkscape:showpageshadow="0"
     inkscape:pageopacity="0"
     inkscape:pagecheckerboard="0"
     inkscape:deskcolor="#505050"
     inkscape:document-units="px"
     showgrid="false"
     inkscape:zoom="0.71948116"
     inkscape:cx="1095.2337"
     inkscape:cy="347.47262"
     inkscape:window-width="1920"
     inkscape:window-height="1017"
     inkscape:window-x="-8"
     inkscape:window-y="-8"
     inkscape:window-maximized="1"
     inkscape:current-layer="layer1" /><defs
     id="defs37" /><g
     inkscape:label="Capa 1"
     inkscape:groupmode="layer"
     id="layer1"
     transform="translate(-455.4807,-114.87215)"><g
       id="g449"
       transform="matrix(0.98682922,0,0,0.98682922,401.99769,8.1487712)"><path
         style="fill:#4f47e3;stroke-width:0.662117"
         d="m 277.84447,674.48108 c -24.1463,-3.51426 -36.98441,-13.28817 -57.75767,-43.97221 -4.56101,-6.73704 -11.22032,-16.56948 -14.79844,-21.84987 -17.04089,-25.1479 -20.26966,-49.31106 -9.84397,-73.66916 7.1632,-16.73575 13.12251,-22.54275 45.94262,-44.76853 9.28619,-6.2886 25.22667,-17.10821 35.42327,-24.04357 10.19661,-6.93536 26.73299,-18.18282 36.74751,-24.99437 10.01452,-6.81154 33.25484,-22.61149 51.64514,-35.111 18.39031,-12.49949 37.45929,-25.46575 42.37551,-28.81389 22.24885,-15.15236 38.94058,-26.51251 49.32773,-33.57173 6.1908,-4.20734 23.62104,-16.06026 38.73386,-26.33983 15.11283,-10.27957 31.20228,-21.21263 35.75433,-24.29568 4.55206,-3.08305 12.74576,-8.64995 18.20823,-12.3709 5.46247,-3.72094 23.93404,-16.29001 41.04796,-27.93125 17.11387,-11.64124 35.14002,-23.91023 40.05809,-27.2644 24.1504,-16.47093 31.1109,-19.27529 49.33105,-19.87529 20.29727,-0.66842 36.57357,5.18999 51.06354,18.37951 10.80641,9.83656 43.31194,58.69203 47.12374,70.82649 10.40028,33.10821 -1.48704,63.61273 -33.15684,85.08502 -5.36878,3.64002 -17.87657,12.13904 -27.79522,18.88671 -9.91858,6.74766 -30.69682,20.87837 -46.17381,31.40158 -15.47699,10.5232 -30.82155,20.96792 -34.09903,23.21047 -3.27748,2.24255 -18.47308,12.5794 -33.76798,22.97077 -15.29491,10.39137 -32.87413,22.33969 -39.06492,26.55181 -6.1908,4.21212 -14.68245,9.98388 -18.87034,12.82614 -18.39628,12.48526 -109.21489,74.26454 -138.05145,93.90937 -3.27748,2.23277 -10.13039,6.89383 -15.2287,10.3579 -20.55528,13.96643 -26.62647,18.09352 -45.43168,30.8837 -33.9923,23.11952 -45.29047,26.99542 -68.74253,23.58221 z m 18.45499,-18.18878 c 9.89634,-1.60568 15.65759,-4.34509 30.68205,-14.58895 6.27312,-4.27709 19.59938,-13.33221 29.6139,-20.12249 10.01452,-6.79027 24.31626,-16.50385 31.78163,-21.58571 7.46537,-5.08187 22.00342,-14.9694 32.30677,-21.9723 10.30336,-7.00289 26.61284,-18.09568 36.24329,-24.65064 9.63046,-6.55497 21.24053,-14.45071 25.80016,-17.54611 13.97818,-9.48936 58.20731,-39.58993 71.51015,-48.66694 6.91912,-4.72117 17.863,-12.16439 24.3197,-16.54049 22.47755,-15.2343 47.27736,-32.0918 60.76237,-41.30281 7.46537,-5.09925 17.85624,-12.16521 23.09087,-15.70214 5.23463,-3.53693 20.87715,-14.17513 34.76116,-23.64044 13.884,-9.46532 29.71297,-20.20645 35.17544,-23.8692 34.45446,-23.10272 40.32016,-50.99297 17.77268,-84.5058 -30.03907,-44.64775 -30.99986,-45.79464 -43.59525,-52.03953 -22.08843,-10.9516 -37.09486,-8.04228 -68.19808,13.22169 -8.73995,5.97512 -26.55918,18.11618 -39.59839,26.98012 -13.03914,8.86394 -27.85388,18.9468 -32.92167,22.40637 -5.06779,3.45956 -12.9565,8.82271 -17.53047,11.91811 -4.57398,3.0954 -11.57315,7.86264 -15.55371,10.59388 -3.98057,2.73123 -11.42851,7.79643 -16.55098,11.25599 -5.12247,3.45956 -13.02054,8.82271 -17.55126,11.91811 -4.53073,3.0954 -20.08211,13.67272 -34.55862,23.50517 -14.47652,9.83244 -30.05333,20.42036 -34.61515,23.52872 -4.56181,3.10835 -21.85106,14.87025 -38.42054,26.13756 -16.56949,11.2673 -34.59563,23.52762 -40.0581,27.24516 -5.46246,3.71753 -17.8275,12.11944 -27.47786,18.6709 -30.65767,20.81298 -42.96445,29.18739 -59.01249,40.15632 -8.60409,5.88095 -20.07527,13.64879 -25.49151,17.26187 -35.30375,23.55054 -40.46265,51.53947 -16.06353,87.15052 3.41871,4.98967 10.08921,14.79864 14.82334,21.79772 18.55499,27.43219 35.15272,36.78221 58.5541,32.98534 z m -16.59574,-14.56787 c -7.80073,-1.15975 -14.29589,-4.40283 -20.27402,-10.12296 -3.7132,-3.55294 -3.74933,-3.42526 3.27599,-11.57447 16.635,-19.2962 16.96113,-19.557 20.95461,-16.75685 7.07118,4.95818 27.24902,-1.22855 27.24902,-8.35482 0,-3.58357 -3.64072,-3.35001 -19.01487,1.21986 -34.86101,10.3622 -53.15492,6.13761 -63.32251,-14.623 -20.31754,-41.48519 45.26114,-88.78445 77.87645,-56.16914 4.00815,4.00816 4.57803,2.73526 -7.48476,16.71849 -11.34997,13.15693 -11.37317,13.17004 -17.08525,9.65535 -7.135,-4.3902 -18.01603,-1.67433 -21.68016,5.4113 -3.32724,6.43417 3.67795,6.73577 23.00513,0.99046 36.13567,-10.74188 57.48112,-2.32886 61.58942,24.27465 4.40204,28.50559 -34.41757,63.89113 -65.08905,59.33113 z m 111.4635,-71.63376 c -1.40169,-1.91187 -11.446,-16.58604 -22.32069,-32.60928 -27.13561,-39.98275 -24.7804,-37.00192 -27.55605,-34.87591 -9.27497,7.10417 -23.71337,16.04249 -25.2792,15.6495 -2.37128,-0.59516 -15.69584,-19.97372 -15.69584,-22.82725 0,-2.36675 -0.75472,-1.79783 30.4574,-22.95942 12.92784,-8.76498 29.90892,-20.29264 37.73574,-25.61701 18.53219,-12.60695 16.09593,-12.90903 27.02653,3.35106 7.70512,11.46194 8.32896,9.9563 -9.00153,21.72527 -13.14753,8.92838 -12.75836,6.73875 -3.57861,20.13441 4.25672,6.21167 10.27208,15.03446 13.36748,19.6062 3.09539,4.57174 10.59104,15.60898 16.657,24.52719 13.65482,20.07543 13.94675,17.08542 -2.78703,28.54579 -15.09661,10.33913 -15.32079,10.40216 -19.0252,5.34945 z m 48.34025,-29.13316 c -0.37228,-0.45521 -1.4657,-5.74387 -2.42983,-11.75259 -0.96412,-6.00871 -2.61418,-16.28808 -3.6668,-22.84304 -1.05261,-6.55496 -2.84051,-17.72819 -3.97311,-24.8294 -1.1326,-7.10121 -2.63845,-16.48672 -3.34634,-20.8567 -8.34918,-51.54182 -8.01349,-47.43559 -4.1119,-50.29806 4.11693,-3.02047 4.67853,-2.9635 11.72375,1.18921 3.29334,1.94121 15.20137,8.86861 26.4623,15.39423 82.28778,47.68508 80.41821,46.50697 78.69362,49.58865 -0.85873,1.53447 -24.77853,17.5629 -26.20975,17.5629 -0.70201,0 -2.95411,-1.00541 -5.00466,-2.23425 -2.05054,-1.22883 -4.35574,-2.55713 -5.12267,-2.95179 -1.28059,-0.65898 -22.82112,12.98221 -33.48111,21.20293 l -2.10516,1.62345 0.77871,4.71525 c 1.46123,8.84809 2.36397,7.53172 -11.63599,16.96752 -12.29216,8.28476 -14.95758,9.4946 -16.57106,7.52169 z m 28.32364,-64.92732 c 6.14208,-4.28216 6.20244,-3.9562 -1.60034,-8.64109 -8.21659,-4.93333 -8.2242,-4.91527 -5.05189,11.9915 0.13942,0.74304 2.45003,-0.4207 6.65223,-3.35041 z m 79.3018,-8.23665 c -0.56079,-0.63728 -4.72428,-6.96878 -9.25219,-14.06999 -12.58176,-19.73222 -39.6702,-62.01111 -47.01636,-73.38183 -7.5309,-11.65669 -7.49489,-11.37657 -1.95923,-15.23804 l 4.17957,-2.91551 11.70601,3.13715 c 6.43831,1.72542 13.64271,3.67606 16.00978,4.33476 11.18871,3.11353 44.2694,11.92344 46.17248,12.29646 2.78733,0.54634 2.32291,2.77061 5.82171,-27.88164 1.6627,-14.56658 3.60141,-31.54989 4.30829,-37.74069 0.70687,-6.1908 1.28894,-11.47708 1.29344,-11.74731 0.0132,-0.77443 9.11338,-6.62611 9.89799,-6.36458 0.69543,0.23181 2.79732,3.08525 22.85238,31.02318 5.62032,7.82953 18.26934,25.40875 28.10887,39.06492 10.94056,15.18426 17.89994,25.43131 17.9155,26.3789 0.0331,2.0213 -1.37965,3.19365 -14.87115,12.33955 -12.63029,8.5621 -12.2691,8.42394 -14.32047,5.47788 -9.83933,-14.13075 -23.39525,-32.28687 -23.96461,-32.09708 -0.41435,0.1381 -1.92259,8.70851 -3.52392,20.02418 -3.38004,23.88399 -3.64939,24.33818 -12.99955,21.91789 -2.26649,-0.58668 -10.37789,-2.69061 -18.02534,-4.67539 -16.91076,-4.38894 -16.32077,-5.05292 -7.61453,8.56933 15.61635,24.43422 15.43234,24.11752 14.5994,25.12111 -1.77762,2.14192 -25.24786,17.58546 -26.72538,17.58546 -0.86519,0 -2.0319,-0.52142 -2.59269,-1.15871 z m 128.72604,-87.39948 c -1.19844,-1.0302 -62.61226,-90.94214 -64.40302,-94.28819 -1.05231,-1.96635 -0.2579,-4.1377 2.1977,-6.00696 55.15959,-41.98818 82.99878,-45.47862 104.50355,-13.10256 16.55393,24.92239 9.86065,50.50936 -18.4195,70.41381 -6.55708,4.61509 -6.62561,2.77744 0.49658,13.31845 8.36585,12.3816 9.07942,10.5209 -8.66122,22.5842 -12.63061,8.5886 -13.50322,8.9818 -15.71409,7.08125 z m 8.54614,-70.87845 c 11.72855,-10.75405 1.89452,-32.46444 -13.23546,-29.21964 -4.02031,0.86221 -13.6067,6.83436 -13.09807,8.15989 0.42455,1.10637 13.95048,21.09222 16.51692,24.40535 l 1.92576,2.48605 2.0325,-1.16182 c 1.11786,-0.639 3.75414,-2.74042 5.85835,-4.66983 z m -511.7399,298.48828 c -22.6423,-15.90107 -29.81736,-32.17632 -33.57147,-76.1505 -0.20208,-2.36707 -0.95605,-11.0077 -1.67549,-19.2014 -0.71944,-8.1937 -1.9041,-21.75055 -2.63258,-30.12634 -0.72848,-8.37578 -1.6238,-18.3572 -1.98959,-22.18093 -0.36579,-3.82372 -1.41038,-15.74183 -2.3213,-26.48469 -0.91093,-10.74285 -1.94578,-22.80994 -2.29966,-26.81575 -0.35389,-4.00581 -0.95538,-10.85872 -1.33664,-15.2287 -0.38127,-4.36997 -1.14413,-13.0106 -1.69525,-19.2014 -0.55112,-6.1908 -1.72525,-19.59867 -2.60917,-29.79528 -3.05961,-35.29475 -4.90092,-56.34994 -6.31146,-72.17079 -3.06965,-34.42985 5.1712,-57.22634 26.94082,-74.52587 16.94041,-13.46191 24.03928,-15.41328 69.75257,-19.17393 8.92203,-0.73397 17.41368,-1.48729 18.87034,-1.67402 1.45666,-0.18674 11.2891,-1.06656 21.84987,-1.95516 10.56077,-0.8886 26.20329,-2.22829 34.76115,-2.97709 31.16392,-2.72677 75.42878,-6.60703 86.73736,-7.60341 6.37288,-0.5615 18.43997,-1.61128 26.81575,-2.33285 8.37579,-0.72156 20.2939,-1.75909 26.48469,-2.3056 6.1908,-0.54652 21.68434,-1.88974 34.4301,-2.98493 12.74576,-1.09521 26.15363,-2.29082 29.79528,-2.65692 3.64164,-0.36611 10.49455,-0.98225 15.22869,-1.36921 12.8864,-1.0533 15.20721,-1.24729 23.50516,-1.96481 4.1879,-0.36212 9.40207,-0.799 11.58706,-0.97083 2.18498,-0.17184 12.61333,-1.08458 23.1741,-2.02831 51.91257,-4.63903 77.64437,6.70361 94.39302,41.60874 3.46519,7.22169 3.5714,7.10177 -6.28773,7.10177 -11.1768,0 -11.6471,-0.1378 -13.45263,-3.94171 -4.49227,-9.4643 -17.75812,-20.42018 -29.77746,-24.59223 -10.44868,-3.62686 -16.08495,-3.91037 -38.11524,-1.91729 -8.08796,0.73172 -19.91954,1.78523 -26.29242,2.34115 -17.96921,1.56746 -32.07723,2.80077 -48.66562,4.25433 -16.54057,1.44936 -21.09697,1.84975 -48.99667,4.30556 -10.19661,0.89753 -32.54307,2.83564 -49.6588,4.30689 -17.11573,1.47125 -36.03573,3.11919 -42.04444,3.6621 -13.82047,1.2487 -20.75806,1.85993 -48.99668,4.31674 -12.56367,1.09307 -29.54698,2.57811 -37.74068,3.3001 -25.84287,2.27717 -60.25515,5.26461 -69.19125,6.00672 -32.38686,2.6896 -45.04449,8.47056 -57.2708,26.15654 -11.07711,16.02359 -11.37931,20.0514 -5.98186,79.72622 0.70817,7.82954 2.34559,26.60057 3.63872,41.7134 1.29313,15.11282 2.648,30.45739 3.01082,34.09904 0.36283,3.64164 1.40266,15.41078 2.31077,26.15363 1.61802,19.14151 3.00635,35.06148 5.65857,64.8875 1.48064,16.65084 3.07932,35.09226 5.59635,64.55643 2.54633,29.80721 5.40739,38.703 16.05615,49.92266 l 4.13823,4.36009 -0.0101,10.59931 c -0.0127,13.29977 0.11082,13.10945 -5.81054,8.95103 z"
         id="path438" /><path
         style="fill:#df214b;stroke-width:0.662117"
         d="m 470.32126,602.69058 c -7.97404,-0.91631 -17.45289,-2.62428 -24.34002,-4.38576 -11.856,-3.03233 -12.31301,-3.36669 -8.31903,-6.0863 l 2.26579,-1.54285 4.84744,1.32825 c 91.94104,25.19286 184.19468,-36.50342 196.86827,-131.6592 0.94715,-7.11147 2.44877,-9.93176 5.28793,-9.93176 3.66866,0 -1.61504,29.26523 -8.7136,48.2626 -25.20097,67.44372 -97.32331,112.1248 -167.89678,104.01502 z M 136.27428,556.39671 c -17.25744,-9.51462 -29.83683,-25.20445 -35.8709,-44.74049 -0.745076,-2.41229 -6.424506,-33.19383 -12.620966,-68.40343 -6.19644,-35.20959 -11.70955,-66.40106 -12.25136,-69.31437 -0.5418,-2.91332 -1.89874,-10.51112 -3.01542,-16.884 -1.11667,-6.37288 -2.63401,-15.01351 -3.37186,-19.2014 -0.73785,-4.18789 -2.04301,-11.63671 -2.90037,-16.55293 -2.40245,-13.77605 -7.38048,-41.92549 -10.01124,-56.61103 -9.65313,-53.88588 15.12809,-87.24162 72.263856,-97.26778 9.46827,-1.66149 18.85379,-3.32995 20.85669,-3.70769 2.00291,-0.37774 15.55976,-2.76242 30.12634,-5.29929 14.56658,-2.53687 29.76217,-5.21611 33.76798,-5.95387 4.0058,-0.73775 12.49746,-2.23594 18.87034,-3.3293 6.37288,-1.09336 14.71555,-2.56867 18.53928,-3.27847 3.82373,-0.70979 12.31538,-2.20974 18.87034,-3.3332 6.55496,-1.12346 15.04662,-2.60865 18.87034,-3.30042 3.82373,-0.69177 11.42153,-2.03535 16.88399,-2.98573 5.46247,-0.95038 15.59286,-2.73672 22.51199,-3.96964 6.91913,-1.23291 26.43503,-4.6604 43.36868,-7.61663 16.93365,-2.95623 35.70467,-6.25417 41.71339,-7.32875 6.00871,-1.07458 15.99013,-2.85115 22.18092,-3.94794 6.1908,-1.09678 14.68245,-2.65719 18.87035,-3.46756 34.85643,-6.7449 67.25886,6.26591 83.73145,33.62135 2.96391,4.92207 2.90082,4.97331 -7.02892,5.70795 -4.49537,0.33259 -8.69776,0.76905 -9.33863,0.96991 -0.80759,0.25311 -1.92533,-0.5085 -3.64165,-2.48135 -16.55403,-19.02837 -34.43693,-24.15279 -64.71543,-18.54447 -6.55496,1.21415 -16.68535,3.05131 -22.51199,4.08259 -26.40279,4.67315 -34.97689,6.18162 -52.63832,9.26085 -10.37869,1.8095 -20.50908,3.59866 -22.51198,3.97593 -2.00291,0.37727 -12.1333,2.16881 -22.51199,3.98121 -10.37869,1.8124 -23.93554,4.19458 -30.12634,5.29371 -13.41745,2.38219 -45.1365,7.97647 -56.27996,9.92609 -4.36998,0.76455 -15.5432,2.73749 -24.8294,4.3843 -9.28619,1.64682 -20.90635,3.69498 -25.82257,4.5515 -4.91622,0.85651 -12.43953,2.17721 -16.71846,2.93489 -4.27893,0.75769 -11.28082,1.9778 -15.55976,2.71136 -4.27893,0.73355 -10.1635,1.77609 -13.07681,2.31675 -2.91332,0.54065 -12.04372,2.18027 -20.28979,3.6436 -27.05944,4.80192 -39.031796,11.72453 -49.220786,28.46024 -10.8253,17.78087 -10.66143,23.71387 2.64259,95.67595 1.11286,6.01952 6.62484,37.24718 11.51168,65.21856 1.81325,10.37869 5.559436,31.68231 8.324856,47.34139 2.76542,15.65907 6.08035,34.4301 7.36652,41.71339 9.00428,50.98946 10.06731,54.01381 23.49408,66.84167 l 5.45347,5.21022 0.8679,8.99803 c 1.39066,14.41778 1.59323,13.9045 -4.22213,10.6983 z M 324.72456,429.5774 c -1.89278,-1.89278 6.05771,-40.27837 8.5398,-41.23084 1.24371,-0.47726 4.49724,1.47927 4.35166,2.61688 -0.06,0.46868 -1.1952,4.97154 -2.52272,10.00636 -1.32751,5.03482 -2.96386,12.92154 -3.63632,17.52604 -1.30739,8.95209 -4.16246,13.65153 -6.73242,11.08156 z m 11.50008,-45.71549 c -8.47269,-4.15434 -15.56821,-7.97895 -15.76781,-8.49912 -0.47627,-1.24112 6.40736,-14.93266 8.98176,-17.86474 10.33439,-11.77022 29.48758,0.76396 23.84657,15.60561 -1.84964,4.86646 -1.71839,5.57281 1.3239,7.12487 3.17548,1.62001 3.22744,2.20141 0.65258,7.30217 -2.4881,4.9289 -0.86376,5.24194 -19.037,-3.66879 z m 7.37539,-12.31988 c 1.93636,-5.50602 -4.74667,-9.58564 -8.46457,-5.16716 -2.33033,2.76944 -2.25441,2.95849 2.09302,5.21215 4.44848,2.30605 5.54746,2.29829 6.37155,-0.045 z m 10.8392,-22.81627 c -14.46695,-12.83541 -13.77917,-11.62031 -9.43365,-16.66626 3.04323,-3.53378 2.45889,-3.65788 8.81717,1.87255 6.26673,5.45077 6.17037,5.44768 10.62057,0.34184 4.20394,-4.8233 4.38876,-3.88576 -1.88885,-9.58174 -6.15348,-5.58335 -6.14526,-5.55247 -2.56382,-9.6212 3.51791,-3.99655 2.54767,-4.46292 17.09179,8.21549 14.69401,12.80906 13.90535,11.62304 10.53974,15.85006 -3.26219,4.09715 -3.82746,4.12272 -8.21794,0.37182 -4.43839,-3.79183 -4.71432,-3.76235 -8.80507,0.94089 -4.19494,4.82302 -4.20137,4.58959 0.23176,8.41688 4.35992,3.76408 4.39998,4.11929 0.93152,8.26197 -3.5679,4.26147 -2.42481,4.8159 -17.32322,-8.4023 z m 40.89004,-22.71199 c -13.83194,-3.61713 -19.88606,-22.30031 -10.32454,-31.86183 12.98226,-12.98226 31.55701,-6.80913 34.17843,11.35888 1.65947,11.50111 -12.3221,23.51858 -23.85389,20.50295 z m 9.60765,-11.11322 c 4.28371,-2.53046 4.36929,-7.56497 0.23083,-13.58077 -3.46346,-5.03461 -8.76676,-5.5079 -12.46528,-1.11244 -5.53402,6.5768 4.85425,19.0528 12.23445,14.69321 z m 31.28242,-7.00834 c -0.35992,-0.4552 -2.37028,-6.04182 -4.46748,-12.4147 -4.57263,-13.89516 -3.91036,-13.06033 -8.99779,-11.34227 -4.80531,1.62278 -5.33657,1.39211 -6.81984,-2.96106 -1.47933,-4.34158 -1.58915,-4.26841 14.0114,-9.33629 16.35565,-5.31317 15.4416,-5.28652 16.95224,-0.49424 1.37931,4.37568 1.2948,4.53921 -3.0763,5.95302 -5.58801,1.80742 -5.53934,1.15932 -1.11663,14.87026 4.56524,14.15277 4.60711,13.33347 -0.7743,15.1508 -4.87373,1.64588 -4.86487,1.64499 -5.7113,0.57448 z m 32.15507,-7.33857 c -10.38097,-2.93165 -15.95455,-16.9052 -11.17472,-28.01622 6.27385,-14.58395 31.55544,-13.21337 35.89046,1.94571 4.79439,16.76541 -8.39637,30.67921 -24.71574,26.07051 z m 10.73794,-10.86965 c 3.21836,-2.8832 3.77812,-6.90105 1.84649,-13.25386 -1.87741,-6.17447 -11.3968,-5.25798 -13.15363,1.26638 -2.48615,9.2329 5.23941,17.42331 11.30714,11.98748 z m 41.75002,-1.20496 c -3.42553,-0.85709 -9.23561,-1.91371 -12.91129,-2.34804 -9.0814,-1.07306 -9.7977,-1.37801 -9.53903,-4.06093 0.3307,-3.43 8.45867,-2.97364 27.02326,1.51729 10.42353,2.52154 10.8877,2.79916 8.27646,4.95029 -2.46113,2.02749 -4.55012,2.01796 -12.8494,-0.0586 z"
         id="path436" /><path
         style="fill:#1a1a1a;stroke-width:0.662117"
         d="m 244.0058,685.40277 c -33.1462,-4.3176 -59.96791,-31.6183 -64.51053,-65.66259 -1.45105,-10.87477 -1.49238,-351.26394 -0.0438,-360.12311 5.39386,-32.98601 28.32563,-57.11421 60.61123,-63.77355 7.55287,-1.55787 481.39069,-1.54942 490.3259,0.009 32.47447,5.66308 57.04908,31.68166 61.5769,65.19515 1.48454,10.98842 1.41952,348.25627 -0.0693,359.01034 -4.49134,32.44306 -26.35008,56.01876 -59.88042,64.58397 -4.79089,1.22386 -478.78261,1.96298 -488.01009,0.76104 z m 56.05738,-8.23171 c 7.72514,-1.32728 14.66597,-3.66171 21.1416,-7.11081 l 5.2643,-2.80387 199.9594,-0.33315 199.95941,-0.33315 4.96588,-1.51469 c 18.7466,-5.7181 33.25934,-19.29291 39.07856,-36.55287 3.37627,-10.01425 3.29172,-6.32487 3.29443,-143.75988 V 356.56251 l 3.27351,-6.8718 c 10.28811,-21.59681 10.30307,-42.67282 0.0463,-64.80707 -3.16108,-6.82152 -3.22822,-7.10162 -3.57312,-14.89764 -1.23869,-27.99873 -19.61112,-49.95162 -46.0537,-55.0287 -2.87398,-0.55181 -6.5964,-1.86896 -8.93858,-3.16282 -21.48319,-11.86776 -47.65205,-11.95635 -70.08478,-0.23727 l -4.11108,2.14882 -199.95941,0.34895 c -225.77251,0.39401 -202.03675,-0.25854 -214.52599,5.89777 -14.06366,6.93238 -23.73025,18.05169 -28.90434,33.24818 l -2.10797,6.19119 -0.51123,19.2014 c -0.28119,10.56077 -0.51716,70.25913 -0.52439,132.66302 l -0.0131,113.46161 -2.97116,6.05056 c -10.64752,21.68293 -10.47182,44.61347 0.5092,66.45554 l 3.07246,6.11135 0.005,7.131 c 0.0173,26.55316 19.33108,50.18875 45.01933,55.09313 2.49099,0.47558 6.95319,2.16347 10.59387,4.00731 15.01416,7.60389 30.87128,10.21971 46.09595,7.60402 z m 167.76793,-16.61422 c -27.98422,-2.46912 -54.52766,-9.78705 -79.28854,-21.85958 -11.92053,-5.81202 -11.78522,-5.43208 -3.83942,-10.78054 l 6.25787,-4.21227 8.14319,3.71379 c 138.98984,63.388 294.38778,-38.24496 292.40931,-191.2408 l -0.21407,-16.55293 5.99852,-4.08851 c 7.29938,-4.9751 7.23343,-5.01037 8.26534,4.41957 14.59942,133.41421 -103.051,252.48453 -237.7322,240.60127 z m -3.31059,-17.81804 c -22.57513,-2.50979 -44.24342,-8.49198 -64.3909,-17.77706 -6.48022,-2.98645 -6.43512,-3.35 1.02603,-8.26985 7.29292,-4.80891 5.98337,-4.66794 13.77992,-1.48347 122.1647,49.89767 254.91493,-37.66856 259.36541,-171.08557 l 0.44177,-13.24235 6.18258,-4.21263 c 8.17987,-5.57349 7.72228,-6.44322 7.72009,14.67409 -0.0126,120.25903 -105.04026,214.63607 -224.1249,201.39684 z m 7.97173,-72.45232 c -2.74827,-1.73836 23.16879,-18.78922 30.14297,-19.83109 31.91723,-4.76808 63.59875,-26.22803 78.76932,-53.35559 2.80937,-5.02356 1.64642,-4.02851 16.79904,-14.37345 13.28559,-9.07029 14.01292,-9.27171 12.32108,-3.41195 -13.48567,46.70746 -56.3283,83.14649 -106.46267,90.54987 -7.85388,1.15979 -29.93674,1.45512 -31.56974,0.42221 z M 266.09852,465.14507 c -0.29933,-2.09394 -0.54423,-13.34166 -0.54423,-24.99492 0,-163.3123 168.76602,-268.9171 316.79159,-198.23129 12.63604,6.03401 12.56804,5.78826 3.28628,11.88193 l -5.2194,3.4266 -9.00712,-4.09852 c -140.28305,-63.83294 -300.41693,44.65831 -291.6814,197.61515 0.64928,11.36865 1.05183,10.33791 -5.79225,14.83118 -6.67845,4.38453 -7.14891,4.3587 -7.83347,-0.43013 z m 17.23088,-8.27606 c -2.10483,-3.40568 0.13777,-41.04782 3.38582,-56.8312 26.18981,-127.26501 163.53205,-197.90277 282.08877,-145.08369 9.24587,4.1192 9.24772,4.21202 0.20657,10.14772 l -5.288,3.47168 -3.08728,-1.1877 c -89.91917,-34.59249 -181.22404,-7.26038 -232.19121,69.50642 -20.38015,30.69659 -33.98342,77.55934 -31.25338,107.66671 0.50519,5.57124 -11.45922,16.1967 -13.86129,12.31006 z m 76.5766,-51.747 c 0,-5.014 10.27428,-27.27102 17.35758,-37.60148 24.67458,-35.98599 61.45335,-56.13374 104.58586,-57.29309 21.67935,-0.58272 21.5884,-0.77865 4.92247,10.60427 l -12.40138,8.47021 -7.1205,1.28216 c -33.94844,6.11294 -62.74707,26.34486 -78.8598,55.40141 -2.42321,4.36985 -28.48423,21.87838 -28.48423,19.13652 z"
         id="path434" /></g><path
       style="fill:#1a1a1a;fill-rule:evenodd;stroke-width:2.77978"
       d="m 1088.2842,415.72914 c -15.6463,-6.4039 -20.1314,-25.04152 -20.6508,-85.8129 -0.1086,-12.71377 -1.4388,-25.43533 -2.956,-28.27014 -6.5033,-12.15155 -34.4591,-13.58962 -52.3751,-2.69423 l -8.8014,5.35242 v 52.91629 52.9163 l -6.72153,3.06253 c -4.4745,2.03872 -11.21188,2.24218 -20.15341,0.60861 l -13.43187,-2.45394 V 287.68058 164.00707 h 19.45846 19.45845 l 0.7577,50.73101 c 0.4167,27.90205 1.6676,50.73037 2.7798,50.7296 1.1121,-7.8e-4 8.6027,-2.50258 16.6458,-5.55957 20.0447,-7.61862 43.247,-7.3447 58.9837,0.69635 22.8865,11.69444 27.6854,24.596 27.7883,74.70661 0.087,42.26288 1.5618,49.2734 10.8451,51.54255 9.0994,2.22416 11.363,5.53111 11.4169,16.67921 0.04,8.33471 -0.7056,8.96439 -13.9932,11.81407 -16.187,3.47149 -21.3375,3.53926 -29.0509,0.38224 z"
       id="path958"
       transform="translate(455.4807,114.87215)" /><path
       style="fill:#1a1a1a;fill-rule:evenodd;stroke-width:2.77978"
       d="m 1192.1988,414.51932 c -25.746,-9.20033 -42.922,-27.8708 -51.1601,-55.61141 -8.211,-27.6496 -2.0383,-57.73599 16.0652,-78.30263 17.6945,-20.10201 29.2427,-24.85007 60.4401,-24.85007 29.9982,0 42.0684,4.56512 59.4846,22.49802 20.449,21.05566 25.9031,64.84268 11.6943,93.88451 -17.6132,36.00011 -61.0325,55.06453 -96.5241,42.38158 z m 41.0475,-34.07186 c 25.1123,-11.91655 29.7761,-61.71659 7.8347,-83.658 -7.8174,-7.81742 -11.0041,-9.08213 -22.8841,-9.08213 -24.8374,0 -36.79,15.81154 -36.79,48.66762 0,38.43044 22.8289,57.83893 51.8394,44.07251 z"
       id="path960"
       transform="translate(455.4807,114.87215)" /><path
       style="fill:#1a1a1a;fill-rule:evenodd;stroke-width:2.77978"
       d="m 778.06322,413.34962 -10.00467,-0.83774 -1.8094,-33.65101 c -2.30958,-42.95339 -2.30013,-97.28122 0.0272,-156.292 l 1.83659,-46.56792 50.28431,1.20479 c 56.36103,1.35039 71.36392,4.57488 91.01162,19.56068 17.79599,13.57346 25.45,30.84636 26.87488,60.6489 3.02079,63.18243 -25.66664,90.30314 -101.40016,95.86233 l -25.96733,1.90612 -0.0426,25.33212 c -0.0234,13.93267 -0.96159,26.72294 -2.08484,28.42283 -2.42503,3.66997 -14.82854,5.57457 -28.72562,4.4109 z m 69.70396,-98.02748 c 20.6061,-3.34317 32.83072,-9.91722 39.36302,-21.16831 10.93304,-18.83079 8.3081,-51.35939 -5.29224,-65.5822 -9.44285,-9.87502 -29.93154,-15.91839 -53.96778,-15.91839 h -18.95393 v 50.96265 c 0,28.02946 0.83393,51.79659 1.85319,52.81584 2.66089,2.66089 16.27439,2.25261 36.99774,-1.10959 z"
       id="path962"
       transform="translate(455.4807,114.87215)" /><path
       style="fill:#1a1a1a;fill-rule:evenodd;stroke-width:2.77978"
       d="m 1361.2137,414.47598 c -25.7583,-9.54187 -32.3348,-24.0512 -32.4174,-71.52051 -0.084,-48.5423 -0.9602,-51.96058 -13.5827,-53.01445 l -10.1065,-0.8438 v -15.2888 -15.28879 l 9.705,-0.92109 c 12.2768,-1.16519 13.8283,-3.77496 13.8806,-23.34904 0.047,-17.78232 0.2121,-17.91 25.0606,-19.43744 l 12.509,-0.76893 0.8429,17.96198 c 0.4636,9.87909 2.1803,19.57357 3.8151,21.5433 1.9527,2.35285 10.293,3.58132 24.3141,3.58132 24.3073,0 28.0134,2.20658 28.0134,16.67869 0,14.66832 -3.5851,16.67869 -29.7436,16.67869 h -23.0722 v 39.82226 c 0,38.66895 0.1973,40.00762 6.8122,46.22199 6.8023,6.39042 13.6958,6.78348 41.7908,2.38289 4.345,-0.68057 6.0837,1.39575 8.1878,9.7778 1.7866,7.11694 1.7111,12.18105 -0.228,15.28879 -6.5593,10.51248 -47.9203,17.11148 -65.7811,10.49514 z"
       id="path964"
       transform="translate(455.4807,114.87215)" /><path
       style="fill:#1a1a1a;fill-rule:evenodd;stroke-width:2.77978"
       d="m 1489.1361,414.34768 c -27.7191,-9.88764 -46.284,-31.05297 -52.1895,-59.49996 -10.4595,-50.38297 16.8087,-92.54392 64.561,-99.82169 31.0769,-4.73632 58.5666,5.81654 76.5414,29.38303 16.5852,21.74472 20.2492,55.14782 9.2684,84.49657 -13.8871,37.11664 -60.7348,58.79955 -98.1813,45.44205 z m 47.2242,-38.06036 c 10.2568,-9.45442 14.7575,-22.057 14.7575,-41.32372 0,-31.40506 -12.3406,-47.25627 -36.7901,-47.25627 -11.9167,0 -15.0589,1.25693 -23.0042,9.20219 -21.4548,21.45486 -18.4435,68.03951 5.366,83.01111 11.3525,7.13851 29.8196,5.44717 39.6708,-3.63331 z"
       id="path966"
       transform="translate(455.4807,114.87215)" /><path
       style="fill:#df214b;fill-opacity:0.964706;fill-rule:evenodd;stroke-width:0.347473"
       d="m 2331.715,418.49645 c -4.6217,-0.37847 -7.9704,-1.14863 -12.1246,-2.78855 -4.4154,-1.74304 -6.9532,-3.29903 -9.1182,-5.59051 -6.216,-6.57933 -7.598,-15.41815 -8.4636,-54.1317 -1.0735,-48.00595 -1.6659,-52.11926 -8.4435,-58.62744 -3.9187,-3.76295 -8.3846,-5.3902 -14.8397,-5.40719 -4.4099,-0.0116 -6.9165,0.4172 -12.1482,2.07817 -4.7996,1.52377 -10.1221,4.19394 -16.0839,8.0689 l -4.4303,2.87949 -0.027,23.50607 c -0.047,41.68783 -0.5209,73.39813 -1.1552,77.33263 -0.9415,5.84007 -2.6071,8.35428 -6.115,9.23059 -1.0679,0.26676 -6.1358,0.35767 -15.9838,0.28674 -14.3962,-0.1037 -14.4225,-0.10522 -15.84,-0.9177 -2.8517,-1.63452 -3.9875,-4.7063 -4.6454,-12.56387 -0.2,-2.38887 -0.5195,-18.33787 -0.7099,-35.44221 -0.6768,-60.79904 -1.113,-64.81933 -7.5701,-69.76898 -4.3046,-3.29961 -8.6629,-4.59016 -15.5014,-4.59016 -7.1081,0 -13.5013,1.50987 -20.6016,4.86547 -4.0335,1.90618 -5.6455,2.94027 -9.9251,6.36646 l -3.0403,2.43414 v 52.37885 52.37884 l -1.718,1.5446 c -2.9993,2.69662 -7.666,3.53039 -19.8253,3.54206 -13.0181,0.0125 -17.8839,-0.88618 -20.9039,-3.86073 l -1.6819,-1.65661 0.012,-62.03692 c 0.012,-59.61752 0.2164,-76.02812 1.019,-81.66913 0.7772,-5.46238 1.9479,-7.92758 4.3548,-9.17019 1.3547,-0.69943 1.7982,-0.71503 17.5473,-0.6171 9.0049,0.056 16.7328,0.25042 17.457,0.43919 1.4792,0.38553 1.5671,0.60693 1.7358,4.37109 0.1267,2.82566 0.7893,3.93459 2.3512,3.93459 0.5144,0 4.1256,-1.6087 8.0249,-3.5749 7.9575,-4.01262 14.2676,-6.2998 21.2172,-7.69057 16.137,-3.22936 31.6234,-1.60541 43.9483,4.60853 4.9943,2.518 8.0532,4.81441 13.383,10.04695 l 4.7443,4.65774 5.2502,-3.5113 c 6.1387,-4.10557 9.4924,-6.1253 13.6178,-8.20098 8.704,-4.37952 17.8358,-7.32231 26.8916,-8.66611 4.345,-0.64476 13.6045,-0.75699 17.3736,-0.21058 15.4189,2.23527 27.088,9.32456 34.6558,21.0543 2.2315,3.4587 5.9139,10.978 6.9768,14.24638 2.4662,7.58347 2.807,12.62232 3.5369,52.29463 0.6121,33.2677 0.8227,37.39232 2.1134,41.3862 0.9283,2.87246 1.5555,3.18908 6.904,3.48562 5.964,0.33066 7.2801,0.69374 9.0956,2.50918 2.3705,2.37055 3.0174,5.85344 3.4297,18.46506 l 0.2044,6.2545 -4.6181,1.81065 c -7.2389,2.83824 -11.0658,3.68804 -19.2119,4.26622 -5.3833,0.38209 -6.106,0.38011 -11.1191,-0.0304 z"
       id="path1491"
       transform="translate(455.4807,114.87215)" /><path
       style="fill:#df214b;fill-opacity:0.964706;fill-rule:evenodd;stroke-width:0.347473"
       d="m 2386.5565,491.23941 c -1.6395,-2.04592 -1.7573,-2.43011 -2.1573,-7.03632 -2.4803,-28.56414 -2.7565,-188.47458 -0.3786,-219.22814 0.6174,-7.98489 0.6594,-8.01529 11.7206,-8.48873 4.944,-0.21161 10.148,-0.2098 14.4201,0.005 9.1209,0.45865 9.0366,0.4063 10.8254,6.71926 0.5144,1.81554 1.165,3.6528 1.4456,4.0828 0.8094,1.24015 2.2043,1.00084 4.8973,-0.84018 5.9683,-4.08007 7.5489,-5.06229 10.7691,-6.69207 6.7268,-3.40455 13.7775,-5.60514 21.8337,-6.81451 5.1401,-0.77162 15.3608,-0.77162 20.5009,0 21.2861,3.19541 38.3058,13.93295 47.8348,30.17843 7.5452,12.86338 11.8154,35.02579 10.7026,55.54635 -1.5784,29.10457 -10.3117,49.2896 -27.257,62.99834 -13.9902,11.31803 -32.3182,17.57209 -51.4317,17.55002 -8.477,-0.01 -14.1338,-0.77405 -24.6369,-3.32859 -7.087,-1.72365 -7.7232,-1.79423 -8.0107,-0.88851 -0.3789,1.19381 -0.8706,26.1814 -0.8899,45.22489 -0.02,19.41857 -0.264,25.06147 -1.18,27.25389 -0.2881,0.68948 -1.1929,2.11028 -2.0106,3.15733 l -1.4869,1.90373 h -17.2332 -17.2332 z m 76.9141,-110.7743 c 9.1665,-1.36109 15.5186,-4.5051 20.7242,-10.25746 8.5486,-9.44653 13.0553,-24.76841 11.7718,-40.0218 -1.8504,-21.9898 -13.4409,-36.69298 -30.0283,-38.09252 -6.2581,-0.52802 -12.58,0.3456 -19.7701,2.73199 -6.8914,2.28725 -11.5226,4.91266 -16.6517,9.43977 l -2.7678,2.4429 v 34.54182 c 0,18.998 0.07,34.54182 0.1566,34.54182 0.086,0 2.5489,0.75955 5.4727,1.68788 5.2816,1.6769 9.1985,2.58987 13.4965,3.14584 3.9355,0.50907 13.6865,0.42028 17.5961,-0.16024 z"
       id="path1493"
       transform="translate(455.4807,114.87215)" /><path
       style="fill:#df214b;fill-opacity:0.964706;fill-rule:evenodd;stroke-width:0.694945"
       d="m 1678.2927,417.99237 c -21.5247,-1.28299 -42.9452,-10.80101 -56.7935,-25.23579 -8.7591,-9.12997 -14.6871,-19.9695 -17.9515,-32.82462 -1.3842,-5.45079 -1.1905,-6.63764 1.3549,-8.30546 2.4359,-1.59606 31.0645,-8.67103 35.0869,-8.67103 4.2789,0 5.467,1.25703 8.8672,9.38176 2.2862,5.4629 3.3251,6.96679 8.2086,11.88226 6.3813,6.42304 11.67,9.63917 20.88,12.69732 22.4812,7.46487 47.3513,2.81714 56.5621,-10.5704 4.0083,-5.82577 5.1107,-12.82785 3.1843,-20.224 -3.0671,-11.77547 -14.2189,-18.67418 -51.7904,-32.03844 -32.123,-11.4262 -48.0011,-19.7721 -59.382,-31.21243 -8.8897,-8.93613 -13.2001,-17.95942 -14.9976,-31.39552 -2.9491,-22.04497 4.4994,-44.40722 19.2957,-57.93022 19.967,-18.24871 57.6167,-27.09383 88.608,-20.81684 34.6398,7.01596 56.1402,29.21427 58.6159,60.51862 l 0.4746,6.00049 -14.8431,3.64851 c -16.3806,4.02641 -22.4439,4.65075 -24.7708,2.55062 -0.7668,-0.6921 -2.3926,-4.13208 -3.613,-7.6444 -2.8616,-8.2359 -5.378,-12.59719 -9.8477,-17.06681 -7.7398,-7.73981 -17.9814,-10.87439 -33.5971,-10.28282 -13.4856,0.51088 -21.0114,2.88108 -27.511,8.66435 -4.7438,4.2209 -7.1498,10.00781 -7.1362,17.16386 0.014,7.46303 1.8197,11.58884 7.2863,16.64996 6.8792,6.36891 16.9464,11.11349 44.387,20.91922 32.1213,11.47828 48.4233,20.13178 60.1128,31.90932 11.7368,11.82521 16.2731,24.62705 15.3961,43.4501 -0.6595,14.15767 -4.2563,25.35995 -11.6293,36.21973 -10.3423,15.23336 -32.5297,28.30877 -52.7605,31.09265 -10.4591,1.43924 -30.4116,2.14266 -41.6967,1.47001 z"
       id="path1495"
       transform="translate(455.4807,114.87215)" /><path
       style="fill:#df214b;fill-opacity:0.964706;fill-rule:evenodd;stroke-width:0.694945"
       d="m 1853.0715,417.68132 c -9.3924,-1.73332 -19.3907,-6.86434 -25.7313,-13.2049 -6.5525,-6.55251 -12.2658,-17.83802 -13.5249,-26.71568 -0.385,-2.71418 -1.0133,-20.99455 -1.3964,-40.62304 -0.3831,-19.6285 -1.0119,-37.35116 -1.3973,-39.3837 -1.0719,-5.65188 -1.5773,-5.95746 -10.6072,-6.41343 -9.095,-0.45926 -9.9461,-0.7104 -11.3036,-3.33547 -1.192,-2.30505 -1.4768,-24.3626 -0.3528,-27.31905 1.1714,-3.0809 3.4489,-3.94078 11.6029,-4.38073 8.4112,-0.45382 9.7313,-0.88595 10.7299,-3.51225 0.3805,-1.00091 0.9421,-9.42869 1.2479,-18.72838 0.3058,-9.29969 0.7313,-17.08384 0.9456,-17.29811 0.7345,-0.73458 25.1905,-3.85953 31.1982,-3.98647 9.8284,-0.20765 10.2987,0.79602 10.3617,22.11138 0.028,9.37861 0.3395,15.46014 0.8725,17.018 1.4735,4.30626 2.4436,4.48414 26.5747,4.87277 19.0678,0.30709 21.7927,0.48985 23.4434,1.57242 2.5985,1.70415 2.9323,3.51069 2.9323,15.86974 0,11.79857 -0.4654,13.70204 -3.7248,15.23435 -2.1724,1.02126 -19.6659,1.97748 -37.1757,2.03207 l -12.4078,0.0387 0.3362,35.26847 c 0.3677,38.56217 0.579,40.7612 4.4504,46.29981 6.5544,9.37721 19.8127,11.28603 36.878,5.30941 4.4929,-1.57353 8.6682,-3.02512 9.2785,-3.22577 1.8886,-0.62101 5.1698,3.40752 6.397,7.85413 1.627,5.89543 2.7841,15.8361 2.2544,19.36828 -0.5954,3.97061 -3.6273,6.53803 -11.1508,9.44261 -14.6809,5.66776 -37.4475,8.28628 -50.731,5.83486 z"
       id="path1497"
       transform="translate(455.4807,114.87215)" /><path
       style="fill:#df214b;fill-opacity:0.964706;fill-rule:evenodd;stroke-width:0.694945"
       d="m 1959.7181,417.403 c -24.6448,-5.40299 -40.8556,-25.02295 -39.3563,-47.63304 1.2449,-18.77425 9.4281,-30.96163 26.5273,-39.50769 16.7553,-8.37421 40.681,-10.76323 70.0899,-6.99858 l 3.3752,0.43206 -0.248,-8.61245 c -0.223,-7.74823 -0.4432,-9.01013 -2.194,-12.57546 -7.0046,-14.26413 -26.5699,-18.11705 -50.7569,-9.99539 -2.7376,0.91925 -8.7301,3.38274 -13.3168,5.47442 -10.8664,4.95549 -12.3193,5.26215 -14.5173,3.06414 -2.1808,-2.18086 -2.8754,-4.75819 -4.753,-17.63638 -1.7847,-12.24087 -2.1219,-11.21657 5.4824,-16.65432 17.7919,-12.72278 50.7563,-17.32953 78.9326,-11.03078 8.8121,1.96993 17.5801,5.40227 23.014,9.00906 7.9562,5.28101 15.7528,15.51606 18.1478,23.82346 2.4895,8.63516 3.4814,24.35166 4.2267,66.9723 l 0.4691,26.82525 2.8534,1.85016 c 2.4536,1.59095 3.5319,1.8362 7.6968,1.75059 4.4048,-0.0905 4.9828,0.0625 6.3834,1.69089 1.9298,2.24347 3.06,7.27335 3.5423,15.76447 0.4803,8.45419 -0.1845,9.45299 -8.014,12.04067 -7.6539,2.52964 -14.6433,3.49039 -22.0022,3.02437 -11.0815,-0.70177 -18.871,-3.54264 -25.018,-9.12416 -1.9111,-1.7353 -4.0589,-3.15645 -4.7728,-3.1581 -0.714,-10e-4 -4.154,1.28743 -7.6444,2.86463 -14.8805,6.72391 -24.3611,8.91404 -40.3986,9.3326 -9.7884,0.25547 -12.8317,0.0853 -17.7486,-0.99272 z m 41.5895,-36.19357 c 2.7925,-0.79661 8.1871,-3.00889 11.9878,-4.91618 l 6.9104,-3.4678 v -7.90304 -7.90303 l -2.9535,-0.72856 c -14.4181,-3.55659 -33.7125,-2.39985 -43.5323,2.60984 -4.3603,2.22445 -7.6196,5.44928 -8.5095,8.41947 -2.073,6.91911 4.3214,13.3652 15.3834,15.50773 3.7721,0.73059 15.7635,-0.20635 20.7137,-1.61843 z"
       id="path1499"
       transform="translate(455.4807,114.87215)" /></g></svg>
