<?xml version="1.0" encoding="UTF-8" standalone="no"?>
<!-- Created with Inkscape (http://www.inkscape.org/) -->

<svg
   width="800px"
   height="800px"
   viewBox="0 0 800 800"
   version="1.1"
   id="SVGRoot"
   sodipodi:docname="Imagotipo vertical 2.svg"
   xml:space="preserve"
   inkscape:version="1.2.2 (732a01da63, 2022-12-09)"
   xmlns:inkscape="http://www.inkscape.org/namespaces/inkscape"
   xmlns:sodipodi="http://sodipodi.sourceforge.net/DTD/sodipodi-0.dtd"
   xmlns="http://www.w3.org/2000/svg"
   xmlns:svg="http://www.w3.org/2000/svg"><sodipodi:namedview
     id="namedview42"
     pagecolor="#505050"
     bordercolor="#eeeeee"
     borderopacity="1"
     inkscape:showpageshadow="0"
     inkscape:pageopacity="0"
     inkscape:pagecheckerboard="0"
     inkscape:deskcolor="#505050"
     inkscape:document-units="px"
     showgrid="false"
     inkscape:zoom="1.0175"
     inkscape:cx="288.94349"
     inkscape:cy="427.51843"
     inkscape:window-width="1920"
     inkscape:window-height="1017"
     inkscape:window-x="-8"
     inkscape:window-y="-8"
     inkscape:window-maximized="1"
     inkscape:current-layer="layer1" /><defs
     id="defs37" /><g
     inkscape:label="Capa 1"
     inkscape:groupmode="layer"
     id="layer1"><g
       id="g449"
       transform="translate(-23.621625,-108.14777)"><path
         style="fill:#4f47e3;stroke-width:0.662117"
         d="m 277.84447,674.48108 c -24.1463,-3.51426 -36.98441,-13.28817 -57.75767,-43.97221 -4.56101,-6.73704 -11.22032,-16.56948 -14.79844,-21.84987 -17.04089,-25.1479 -20.26966,-49.31106 -9.84397,-73.66916 7.1632,-16.73575 13.12251,-22.54275 45.94262,-44.76853 9.28619,-6.2886 25.22667,-17.10821 35.42327,-24.04357 10.19661,-6.93536 26.73299,-18.18282 36.74751,-24.99437 10.01452,-6.81154 33.25484,-22.61149 51.64514,-35.111 18.39031,-12.49949 37.45929,-25.46575 42.37551,-28.81389 22.24885,-15.15236 38.94058,-26.51251 49.32773,-33.57173 6.1908,-4.20734 23.62104,-16.06026 38.73386,-26.33983 15.11283,-10.27957 31.20228,-21.21263 35.75433,-24.29568 4.55206,-3.08305 12.74576,-8.64995 18.20823,-12.3709 5.46247,-3.72094 23.93404,-16.29001 41.04796,-27.93125 17.11387,-11.64124 35.14002,-23.91023 40.05809,-27.2644 24.1504,-16.47093 31.1109,-19.27529 49.33105,-19.87529 20.29727,-0.66842 36.57357,5.18999 51.06354,18.37951 10.80641,9.83656 43.31194,58.69203 47.12374,70.82649 10.40028,33.10821 -1.48704,63.61273 -33.15684,85.08502 -5.36878,3.64002 -17.87657,12.13904 -27.79522,18.88671 -9.91858,6.74766 -30.69682,20.87837 -46.17381,31.40158 -15.47699,10.5232 -30.82155,20.96792 -34.09903,23.21047 -3.27748,2.24255 -18.47308,12.5794 -33.76798,22.97077 -15.29491,10.39137 -32.87413,22.33969 -39.06492,26.55181 -6.1908,4.21212 -14.68245,9.98388 -18.87034,12.82614 -18.39628,12.48526 -109.21489,74.26454 -138.05145,93.90937 -3.27748,2.23277 -10.13039,6.89383 -15.2287,10.3579 -20.55528,13.96643 -26.62647,18.09352 -45.43168,30.8837 -33.9923,23.11952 -45.29047,26.99542 -68.74253,23.58221 z m 18.45499,-18.18878 c 9.89634,-1.60568 15.65759,-4.34509 30.68205,-14.58895 6.27312,-4.27709 19.59938,-13.33221 29.6139,-20.12249 10.01452,-6.79027 24.31626,-16.50385 31.78163,-21.58571 7.46537,-5.08187 22.00342,-14.9694 32.30677,-21.9723 10.30336,-7.00289 26.61284,-18.09568 36.24329,-24.65064 9.63046,-6.55497 21.24053,-14.45071 25.80016,-17.54611 13.97818,-9.48936 58.20731,-39.58993 71.51015,-48.66694 6.91912,-4.72117 17.863,-12.16439 24.3197,-16.54049 22.47755,-15.2343 47.27736,-32.0918 60.76237,-41.30281 7.46537,-5.09925 17.85624,-12.16521 23.09087,-15.70214 5.23463,-3.53693 20.87715,-14.17513 34.76116,-23.64044 13.884,-9.46532 29.71297,-20.20645 35.17544,-23.8692 34.45446,-23.10272 40.32016,-50.99297 17.77268,-84.5058 -30.03907,-44.64775 -30.99986,-45.79464 -43.59525,-52.03953 -22.08843,-10.9516 -37.09486,-8.04228 -68.19808,13.22169 -8.73995,5.97512 -26.55918,18.11618 -39.59839,26.98012 -13.03914,8.86394 -27.85388,18.9468 -32.92167,22.40637 -5.06779,3.45956 -12.9565,8.82271 -17.53047,11.91811 -4.57398,3.0954 -11.57315,7.86264 -15.55371,10.59388 -3.98057,2.73123 -11.42851,7.79643 -16.55098,11.25599 -5.12247,3.45956 -13.02054,8.82271 -17.55126,11.91811 -4.53073,3.0954 -20.08211,13.67272 -34.55862,23.50517 -14.47652,9.83244 -30.05333,20.42036 -34.61515,23.52872 -4.56181,3.10835 -21.85106,14.87025 -38.42054,26.13756 -16.56949,11.2673 -34.59563,23.52762 -40.0581,27.24516 -5.46246,3.71753 -17.8275,12.11944 -27.47786,18.6709 -30.65767,20.81298 -42.96445,29.18739 -59.01249,40.15632 -8.60409,5.88095 -20.07527,13.64879 -25.49151,17.26187 -35.30375,23.55054 -40.46265,51.53947 -16.06353,87.15052 3.41871,4.98967 10.08921,14.79864 14.82334,21.79772 18.55499,27.43219 35.15272,36.78221 58.5541,32.98534 z m -16.59574,-14.56787 c -7.80073,-1.15975 -14.29589,-4.40283 -20.27402,-10.12296 -3.7132,-3.55294 -3.74933,-3.42526 3.27599,-11.57447 16.635,-19.2962 16.96113,-19.557 20.95461,-16.75685 7.07118,4.95818 27.24902,-1.22855 27.24902,-8.35482 0,-3.58357 -3.64072,-3.35001 -19.01487,1.21986 -34.86101,10.3622 -53.15492,6.13761 -63.32251,-14.623 -20.31754,-41.48519 45.26114,-88.78445 77.87645,-56.16914 4.00815,4.00816 4.57803,2.73526 -7.48476,16.71849 -11.34997,13.15693 -11.37317,13.17004 -17.08525,9.65535 -7.135,-4.3902 -18.01603,-1.67433 -21.68016,5.4113 -3.32724,6.43417 3.67795,6.73577 23.00513,0.99046 36.13567,-10.74188 57.48112,-2.32886 61.58942,24.27465 4.40204,28.50559 -34.41757,63.89113 -65.08905,59.33113 z m 111.4635,-71.63376 c -1.40169,-1.91187 -11.446,-16.58604 -22.32069,-32.60928 -27.13561,-39.98275 -24.7804,-37.00192 -27.55605,-34.87591 -9.27497,7.10417 -23.71337,16.04249 -25.2792,15.6495 -2.37128,-0.59516 -15.69584,-19.97372 -15.69584,-22.82725 0,-2.36675 -0.75472,-1.79783 30.4574,-22.95942 12.92784,-8.76498 29.90892,-20.29264 37.73574,-25.61701 18.53219,-12.60695 16.09593,-12.90903 27.02653,3.35106 7.70512,11.46194 8.32896,9.9563 -9.00153,21.72527 -13.14753,8.92838 -12.75836,6.73875 -3.57861,20.13441 4.25672,6.21167 10.27208,15.03446 13.36748,19.6062 3.09539,4.57174 10.59104,15.60898 16.657,24.52719 13.65482,20.07543 13.94675,17.08542 -2.78703,28.54579 -15.09661,10.33913 -15.32079,10.40216 -19.0252,5.34945 z m 48.34025,-29.13316 c -0.37228,-0.45521 -1.4657,-5.74387 -2.42983,-11.75259 -0.96412,-6.00871 -2.61418,-16.28808 -3.6668,-22.84304 -1.05261,-6.55496 -2.84051,-17.72819 -3.97311,-24.8294 -1.1326,-7.10121 -2.63845,-16.48672 -3.34634,-20.8567 -8.34918,-51.54182 -8.01349,-47.43559 -4.1119,-50.29806 4.11693,-3.02047 4.67853,-2.9635 11.72375,1.18921 3.29334,1.94121 15.20137,8.86861 26.4623,15.39423 82.28778,47.68508 80.41821,46.50697 78.69362,49.58865 -0.85873,1.53447 -24.77853,17.5629 -26.20975,17.5629 -0.70201,0 -2.95411,-1.00541 -5.00466,-2.23425 -2.05054,-1.22883 -4.35574,-2.55713 -5.12267,-2.95179 -1.28059,-0.65898 -22.82112,12.98221 -33.48111,21.20293 l -2.10516,1.62345 0.77871,4.71525 c 1.46123,8.84809 2.36397,7.53172 -11.63599,16.96752 -12.29216,8.28476 -14.95758,9.4946 -16.57106,7.52169 z m 28.32364,-64.92732 c 6.14208,-4.28216 6.20244,-3.9562 -1.60034,-8.64109 -8.21659,-4.93333 -8.2242,-4.91527 -5.05189,11.9915 0.13942,0.74304 2.45003,-0.4207 6.65223,-3.35041 z m 79.3018,-8.23665 c -0.56079,-0.63728 -4.72428,-6.96878 -9.25219,-14.06999 -12.58176,-19.73222 -39.6702,-62.01111 -47.01636,-73.38183 -7.5309,-11.65669 -7.49489,-11.37657 -1.95923,-15.23804 l 4.17957,-2.91551 11.70601,3.13715 c 6.43831,1.72542 13.64271,3.67606 16.00978,4.33476 11.18871,3.11353 44.2694,11.92344 46.17248,12.29646 2.78733,0.54634 2.32291,2.77061 5.82171,-27.88164 1.6627,-14.56658 3.60141,-31.54989 4.30829,-37.74069 0.70687,-6.1908 1.28894,-11.47708 1.29344,-11.74731 0.0132,-0.77443 9.11338,-6.62611 9.89799,-6.36458 0.69543,0.23181 2.79732,3.08525 22.85238,31.02318 5.62032,7.82953 18.26934,25.40875 28.10887,39.06492 10.94056,15.18426 17.89994,25.43131 17.9155,26.3789 0.0331,2.0213 -1.37965,3.19365 -14.87115,12.33955 -12.63029,8.5621 -12.2691,8.42394 -14.32047,5.47788 -9.83933,-14.13075 -23.39525,-32.28687 -23.96461,-32.09708 -0.41435,0.1381 -1.92259,8.70851 -3.52392,20.02418 -3.38004,23.88399 -3.64939,24.33818 -12.99955,21.91789 -2.26649,-0.58668 -10.37789,-2.69061 -18.02534,-4.67539 -16.91076,-4.38894 -16.32077,-5.05292 -7.61453,8.56933 15.61635,24.43422 15.43234,24.11752 14.5994,25.12111 -1.77762,2.14192 -25.24786,17.58546 -26.72538,17.58546 -0.86519,0 -2.0319,-0.52142 -2.59269,-1.15871 z m 128.72604,-87.39948 c -1.19844,-1.0302 -62.61226,-90.94214 -64.40302,-94.28819 -1.05231,-1.96635 -0.2579,-4.1377 2.1977,-6.00696 55.15959,-41.98818 82.99878,-45.47862 104.50355,-13.10256 16.55393,24.92239 9.86065,50.50936 -18.4195,70.41381 -6.55708,4.61509 -6.62561,2.77744 0.49658,13.31845 8.36585,12.3816 9.07942,10.5209 -8.66122,22.5842 -12.63061,8.5886 -13.50322,8.9818 -15.71409,7.08125 z m 8.54614,-70.87845 c 11.72855,-10.75405 1.89452,-32.46444 -13.23546,-29.21964 -4.02031,0.86221 -13.6067,6.83436 -13.09807,8.15989 0.42455,1.10637 13.95048,21.09222 16.51692,24.40535 l 1.92576,2.48605 2.0325,-1.16182 c 1.11786,-0.639 3.75414,-2.74042 5.85835,-4.66983 z m -511.7399,298.48828 c -22.6423,-15.90107 -29.81736,-32.17632 -33.57147,-76.1505 -0.20208,-2.36707 -0.95605,-11.0077 -1.67549,-19.2014 -0.71944,-8.1937 -1.9041,-21.75055 -2.63258,-30.12634 -0.72848,-8.37578 -1.6238,-18.3572 -1.98959,-22.18093 -0.36579,-3.82372 -1.41038,-15.74183 -2.3213,-26.48469 -0.91093,-10.74285 -1.94578,-22.80994 -2.29966,-26.81575 -0.35389,-4.00581 -0.95538,-10.85872 -1.33664,-15.2287 -0.38127,-4.36997 -1.14413,-13.0106 -1.69525,-19.2014 -0.55112,-6.1908 -1.72525,-19.59867 -2.60917,-29.79528 -3.05961,-35.29475 -4.90092,-56.34994 -6.31146,-72.17079 -3.06965,-34.42985 5.1712,-57.22634 26.94082,-74.52587 16.94041,-13.46191 24.03928,-15.41328 69.75257,-19.17393 8.92203,-0.73397 17.41368,-1.48729 18.87034,-1.67402 1.45666,-0.18674 11.2891,-1.06656 21.84987,-1.95516 10.56077,-0.8886 26.20329,-2.22829 34.76115,-2.97709 31.16392,-2.72677 75.42878,-6.60703 86.73736,-7.60341 6.37288,-0.5615 18.43997,-1.61128 26.81575,-2.33285 8.37579,-0.72156 20.2939,-1.75909 26.48469,-2.3056 6.1908,-0.54652 21.68434,-1.88974 34.4301,-2.98493 12.74576,-1.09521 26.15363,-2.29082 29.79528,-2.65692 3.64164,-0.36611 10.49455,-0.98225 15.22869,-1.36921 12.8864,-1.0533 15.20721,-1.24729 23.50516,-1.96481 4.1879,-0.36212 9.40207,-0.799 11.58706,-0.97083 2.18498,-0.17184 12.61333,-1.08458 23.1741,-2.02831 51.91257,-4.63903 77.64437,6.70361 94.39302,41.60874 3.46519,7.22169 3.5714,7.10177 -6.28773,7.10177 -11.1768,0 -11.6471,-0.1378 -13.45263,-3.94171 -4.49227,-9.4643 -17.75812,-20.42018 -29.77746,-24.59223 -10.44868,-3.62686 -16.08495,-3.91037 -38.11524,-1.91729 -8.08796,0.73172 -19.91954,1.78523 -26.29242,2.34115 -17.96921,1.56746 -32.07723,2.80077 -48.66562,4.25433 -16.54057,1.44936 -21.09697,1.84975 -48.99667,4.30556 -10.19661,0.89753 -32.54307,2.83564 -49.6588,4.30689 -17.11573,1.47125 -36.03573,3.11919 -42.04444,3.6621 -13.82047,1.2487 -20.75806,1.85993 -48.99668,4.31674 -12.56367,1.09307 -29.54698,2.57811 -37.74068,3.3001 -25.84287,2.27717 -60.25515,5.26461 -69.19125,6.00672 -32.38686,2.6896 -45.04449,8.47056 -57.2708,26.15654 -11.07711,16.02359 -11.37931,20.0514 -5.98186,79.72622 0.70817,7.82954 2.34559,26.60057 3.63872,41.7134 1.29313,15.11282 2.648,30.45739 3.01082,34.09904 0.36283,3.64164 1.40266,15.41078 2.31077,26.15363 1.61802,19.14151 3.00635,35.06148 5.65857,64.8875 1.48064,16.65084 3.07932,35.09226 5.59635,64.55643 2.54633,29.80721 5.40739,38.703 16.05615,49.92266 l 4.13823,4.36009 -0.0101,10.59931 c -0.0127,13.29977 0.11082,13.10945 -5.81054,8.95103 z"
         id="path438" /><path
         style="fill:#df214b;stroke-width:0.662117"
         d="m 470.32126,602.69058 c -7.97404,-0.91631 -17.45289,-2.62428 -24.34002,-4.38576 -11.856,-3.03233 -12.31301,-3.36669 -8.31903,-6.0863 l 2.26579,-1.54285 4.84744,1.32825 c 91.94104,25.19286 184.19468,-36.50342 196.86827,-131.6592 0.94715,-7.11147 2.44877,-9.93176 5.28793,-9.93176 3.66866,0 -1.61504,29.26523 -8.7136,48.2626 -25.20097,67.44372 -97.32331,112.1248 -167.89678,104.01502 z M 136.27428,556.39671 c -17.25744,-9.51462 -29.83683,-25.20445 -35.8709,-44.74049 -0.745076,-2.41229 -6.424506,-33.19383 -12.620966,-68.40343 -6.19644,-35.20959 -11.70955,-66.40106 -12.25136,-69.31437 -0.5418,-2.91332 -1.89874,-10.51112 -3.01542,-16.884 -1.11667,-6.37288 -2.63401,-15.01351 -3.37186,-19.2014 -0.73785,-4.18789 -2.04301,-11.63671 -2.90037,-16.55293 -2.40245,-13.77605 -7.38048,-41.92549 -10.01124,-56.61103 -9.65313,-53.88588 15.12809,-87.24162 72.263856,-97.26778 9.46827,-1.66149 18.85379,-3.32995 20.85669,-3.70769 2.00291,-0.37774 15.55976,-2.76242 30.12634,-5.29929 14.56658,-2.53687 29.76217,-5.21611 33.76798,-5.95387 4.0058,-0.73775 12.49746,-2.23594 18.87034,-3.3293 6.37288,-1.09336 14.71555,-2.56867 18.53928,-3.27847 3.82373,-0.70979 12.31538,-2.20974 18.87034,-3.3332 6.55496,-1.12346 15.04662,-2.60865 18.87034,-3.30042 3.82373,-0.69177 11.42153,-2.03535 16.88399,-2.98573 5.46247,-0.95038 15.59286,-2.73672 22.51199,-3.96964 6.91913,-1.23291 26.43503,-4.6604 43.36868,-7.61663 16.93365,-2.95623 35.70467,-6.25417 41.71339,-7.32875 6.00871,-1.07458 15.99013,-2.85115 22.18092,-3.94794 6.1908,-1.09678 14.68245,-2.65719 18.87035,-3.46756 34.85643,-6.7449 67.25886,6.26591 83.73145,33.62135 2.96391,4.92207 2.90082,4.97331 -7.02892,5.70795 -4.49537,0.33259 -8.69776,0.76905 -9.33863,0.96991 -0.80759,0.25311 -1.92533,-0.5085 -3.64165,-2.48135 -16.55403,-19.02837 -34.43693,-24.15279 -64.71543,-18.54447 -6.55496,1.21415 -16.68535,3.05131 -22.51199,4.08259 -26.40279,4.67315 -34.97689,6.18162 -52.63832,9.26085 -10.37869,1.8095 -20.50908,3.59866 -22.51198,3.97593 -2.00291,0.37727 -12.1333,2.16881 -22.51199,3.98121 -10.37869,1.8124 -23.93554,4.19458 -30.12634,5.29371 -13.41745,2.38219 -45.1365,7.97647 -56.27996,9.92609 -4.36998,0.76455 -15.5432,2.73749 -24.8294,4.3843 -9.28619,1.64682 -20.90635,3.69498 -25.82257,4.5515 -4.91622,0.85651 -12.43953,2.17721 -16.71846,2.93489 -4.27893,0.75769 -11.28082,1.9778 -15.55976,2.71136 -4.27893,0.73355 -10.1635,1.77609 -13.07681,2.31675 -2.91332,0.54065 -12.04372,2.18027 -20.28979,3.6436 -27.05944,4.80192 -39.031796,11.72453 -49.220786,28.46024 -10.8253,17.78087 -10.66143,23.71387 2.64259,95.67595 1.11286,6.01952 6.62484,37.24718 11.51168,65.21856 1.81325,10.37869 5.559436,31.68231 8.324856,47.34139 2.76542,15.65907 6.08035,34.4301 7.36652,41.71339 9.00428,50.98946 10.06731,54.01381 23.49408,66.84167 l 5.45347,5.21022 0.8679,8.99803 c 1.39066,14.41778 1.59323,13.9045 -4.22213,10.6983 z M 324.72456,429.5774 c -1.89278,-1.89278 6.05771,-40.27837 8.5398,-41.23084 1.24371,-0.47726 4.49724,1.47927 4.35166,2.61688 -0.06,0.46868 -1.1952,4.97154 -2.52272,10.00636 -1.32751,5.03482 -2.96386,12.92154 -3.63632,17.52604 -1.30739,8.95209 -4.16246,13.65153 -6.73242,11.08156 z m 11.50008,-45.71549 c -8.47269,-4.15434 -15.56821,-7.97895 -15.76781,-8.49912 -0.47627,-1.24112 6.40736,-14.93266 8.98176,-17.86474 10.33439,-11.77022 29.48758,0.76396 23.84657,15.60561 -1.84964,4.86646 -1.71839,5.57281 1.3239,7.12487 3.17548,1.62001 3.22744,2.20141 0.65258,7.30217 -2.4881,4.9289 -0.86376,5.24194 -19.037,-3.66879 z m 7.37539,-12.31988 c 1.93636,-5.50602 -4.74667,-9.58564 -8.46457,-5.16716 -2.33033,2.76944 -2.25441,2.95849 2.09302,5.21215 4.44848,2.30605 5.54746,2.29829 6.37155,-0.045 z m 10.8392,-22.81627 c -14.46695,-12.83541 -13.77917,-11.62031 -9.43365,-16.66626 3.04323,-3.53378 2.45889,-3.65788 8.81717,1.87255 6.26673,5.45077 6.17037,5.44768 10.62057,0.34184 4.20394,-4.8233 4.38876,-3.88576 -1.88885,-9.58174 -6.15348,-5.58335 -6.14526,-5.55247 -2.56382,-9.6212 3.51791,-3.99655 2.54767,-4.46292 17.09179,8.21549 14.69401,12.80906 13.90535,11.62304 10.53974,15.85006 -3.26219,4.09715 -3.82746,4.12272 -8.21794,0.37182 -4.43839,-3.79183 -4.71432,-3.76235 -8.80507,0.94089 -4.19494,4.82302 -4.20137,4.58959 0.23176,8.41688 4.35992,3.76408 4.39998,4.11929 0.93152,8.26197 -3.5679,4.26147 -2.42481,4.8159 -17.32322,-8.4023 z m 40.89004,-22.71199 c -13.83194,-3.61713 -19.88606,-22.30031 -10.32454,-31.86183 12.98226,-12.98226 31.55701,-6.80913 34.17843,11.35888 1.65947,11.50111 -12.3221,23.51858 -23.85389,20.50295 z m 9.60765,-11.11322 c 4.28371,-2.53046 4.36929,-7.56497 0.23083,-13.58077 -3.46346,-5.03461 -8.76676,-5.5079 -12.46528,-1.11244 -5.53402,6.5768 4.85425,19.0528 12.23445,14.69321 z m 31.28242,-7.00834 c -0.35992,-0.4552 -2.37028,-6.04182 -4.46748,-12.4147 -4.57263,-13.89516 -3.91036,-13.06033 -8.99779,-11.34227 -4.80531,1.62278 -5.33657,1.39211 -6.81984,-2.96106 -1.47933,-4.34158 -1.58915,-4.26841 14.0114,-9.33629 16.35565,-5.31317 15.4416,-5.28652 16.95224,-0.49424 1.37931,4.37568 1.2948,4.53921 -3.0763,5.95302 -5.58801,1.80742 -5.53934,1.15932 -1.11663,14.87026 4.56524,14.15277 4.60711,13.33347 -0.7743,15.1508 -4.87373,1.64588 -4.86487,1.64499 -5.7113,0.57448 z m 32.15507,-7.33857 c -10.38097,-2.93165 -15.95455,-16.9052 -11.17472,-28.01622 6.27385,-14.58395 31.55544,-13.21337 35.89046,1.94571 4.79439,16.76541 -8.39637,30.67921 -24.71574,26.07051 z m 10.73794,-10.86965 c 3.21836,-2.8832 3.77812,-6.90105 1.84649,-13.25386 -1.87741,-6.17447 -11.3968,-5.25798 -13.15363,1.26638 -2.48615,9.2329 5.23941,17.42331 11.30714,11.98748 z m 41.75002,-1.20496 c -3.42553,-0.85709 -9.23561,-1.91371 -12.91129,-2.34804 -9.0814,-1.07306 -9.7977,-1.37801 -9.53903,-4.06093 0.3307,-3.43 8.45867,-2.97364 27.02326,1.51729 10.42353,2.52154 10.8877,2.79916 8.27646,4.95029 -2.46113,2.02749 -4.55012,2.01796 -12.8494,-0.0586 z"
         id="path436" /><path
         style="fill:#1a1a1a;stroke-width:0.662117;fill-opacity:1"
         d="m 244.0058,685.40277 c -33.1462,-4.3176 -59.96791,-31.6183 -64.51053,-65.66259 -1.45105,-10.87477 -1.49238,-351.26394 -0.0438,-360.12311 5.39386,-32.98601 28.32563,-57.11421 60.61123,-63.77355 7.55287,-1.55787 481.39069,-1.54942 490.3259,0.009 32.47447,5.66308 57.04908,31.68166 61.5769,65.19515 1.48454,10.98842 1.41952,348.25627 -0.0693,359.01034 -4.49134,32.44306 -26.35008,56.01876 -59.88042,64.58397 -4.79089,1.22386 -478.78261,1.96298 -488.01009,0.76104 z m 56.05738,-8.23171 c 7.72514,-1.32728 14.66597,-3.66171 21.1416,-7.11081 l 5.2643,-2.80387 199.9594,-0.33315 199.95941,-0.33315 4.96588,-1.51469 c 18.7466,-5.7181 33.25934,-19.29291 39.07856,-36.55287 3.37627,-10.01425 3.29172,-6.32487 3.29443,-143.75988 V 356.56251 l 3.27351,-6.8718 c 10.28811,-21.59681 10.30307,-42.67282 0.0463,-64.80707 -3.16108,-6.82152 -3.22822,-7.10162 -3.57312,-14.89764 -1.23869,-27.99873 -19.61112,-49.95162 -46.0537,-55.0287 -2.87398,-0.55181 -6.5964,-1.86896 -8.93858,-3.16282 -21.48319,-11.86776 -47.65205,-11.95635 -70.08478,-0.23727 l -4.11108,2.14882 -199.95941,0.34895 c -225.77251,0.39401 -202.03675,-0.25854 -214.52599,5.89777 -14.06366,6.93238 -23.73025,18.05169 -28.90434,33.24818 l -2.10797,6.19119 -0.51123,19.2014 c -0.28119,10.56077 -0.51716,70.25913 -0.52439,132.66302 l -0.0131,113.46161 -2.97116,6.05056 c -10.64752,21.68293 -10.47182,44.61347 0.5092,66.45554 l 3.07246,6.11135 0.005,7.131 c 0.0173,26.55316 19.33108,50.18875 45.01933,55.09313 2.49099,0.47558 6.95319,2.16347 10.59387,4.00731 15.01416,7.60389 30.87128,10.21971 46.09595,7.60402 z m 167.76793,-16.61422 c -27.98422,-2.46912 -54.52766,-9.78705 -79.28854,-21.85958 -11.92053,-5.81202 -11.78522,-5.43208 -3.83942,-10.78054 l 6.25787,-4.21227 8.14319,3.71379 c 138.98984,63.388 294.38778,-38.24496 292.40931,-191.2408 l -0.21407,-16.55293 5.99852,-4.08851 c 7.29938,-4.9751 7.23343,-5.01037 8.26534,4.41957 14.59942,133.41421 -103.051,252.48453 -237.7322,240.60127 z m -3.31059,-17.81804 c -22.57513,-2.50979 -44.24342,-8.49198 -64.3909,-17.77706 -6.48022,-2.98645 -6.43512,-3.35 1.02603,-8.26985 7.29292,-4.80891 5.98337,-4.66794 13.77992,-1.48347 122.1647,49.89767 254.91493,-37.66856 259.36541,-171.08557 l 0.44177,-13.24235 6.18258,-4.21263 c 8.17987,-5.57349 7.72228,-6.44322 7.72009,14.67409 -0.0126,120.25903 -105.04026,214.63607 -224.1249,201.39684 z m 7.97173,-72.45232 c -2.74827,-1.73836 23.16879,-18.78922 30.14297,-19.83109 31.91723,-4.76808 63.59875,-26.22803 78.76932,-53.35559 2.80937,-5.02356 1.64642,-4.02851 16.79904,-14.37345 13.28559,-9.07029 14.01292,-9.27171 12.32108,-3.41195 -13.48567,46.70746 -56.3283,83.14649 -106.46267,90.54987 -7.85388,1.15979 -29.93674,1.45512 -31.56974,0.42221 z M 266.09852,465.14507 c -0.29933,-2.09394 -0.54423,-13.34166 -0.54423,-24.99492 0,-163.3123 168.76602,-268.9171 316.79159,-198.23129 12.63604,6.03401 12.56804,5.78826 3.28628,11.88193 l -5.2194,3.4266 -9.00712,-4.09852 c -140.28305,-63.83294 -300.41693,44.65831 -291.6814,197.61515 0.64928,11.36865 1.05183,10.33791 -5.79225,14.83118 -6.67845,4.38453 -7.14891,4.3587 -7.83347,-0.43013 z m 17.23088,-8.27606 c -2.10483,-3.40568 0.13777,-41.04782 3.38582,-56.8312 26.18981,-127.26501 163.53205,-197.90277 282.08877,-145.08369 9.24587,4.1192 9.24772,4.21202 0.20657,10.14772 l -5.288,3.47168 -3.08728,-1.1877 c -89.91917,-34.59249 -181.22404,-7.26038 -232.19121,69.50642 -20.38015,30.69659 -33.98342,77.55934 -31.25338,107.66671 0.50519,5.57124 -11.45922,16.1967 -13.86129,12.31006 z m 76.5766,-51.747 c 0,-5.014 10.27428,-27.27102 17.35758,-37.60148 24.67458,-35.98599 61.45335,-56.13374 104.58586,-57.29309 21.67935,-0.58272 21.5884,-0.77865 4.92247,10.60427 l -12.40138,8.47021 -7.1205,1.28216 c -33.94844,6.11294 -62.74707,26.34486 -78.8598,55.40141 -2.42321,4.36985 -28.48423,21.87838 -28.48423,19.13652 z"
         id="path434" /></g><path
       style="fill:#df214b;fill-opacity:1;fill-rule:evenodd;stroke:none;stroke-width:0.347473;stroke-opacity:1"
       d="m 406.19549,731.97006 c -7.519,-1.59633 -13.27364,-4.61364 -18.26059,-9.57449 -2.89808,-2.88291 -3.76487,-4.00736 -5.0892,-6.60198 -1.56277,-3.06179 -3.4056,-8.23781 -3.4056,-9.56543 0,-0.36795 0.38015,-0.91808 0.84479,-1.22252 1.4097,-0.92368 12.98041,-3.6769 14.96341,-3.56051 l 1.73916,0.10208 1.56363,3.20719 c 1.97221,4.04523 3.61456,5.99996 6.77415,8.06256 9.5483,6.2332 24.81963,5.2202 29.36552,-1.94792 2.90743,-4.58454 1.83764,-10.33881 -2.53601,-13.64095 -2.2021,-1.6626 -7.68871,-4.30402 -12.92904,-6.22441 -2.10221,-0.77039 -6.01128,-2.20692 -8.68681,-3.1923 -16.8609,-6.20969 -24.27933,-12.26401 -26.80996,-21.88011 -0.42574,-1.61774 -0.58966,-3.58954 -0.57775,-6.94945 0.0197,-5.55958 0.70595,-8.63675 2.94464,-13.20396 1.18752,-2.42269 2.0171,-3.51558 4.61575,-6.08078 3.77827,-3.72963 6.96605,-5.64995 12.49312,-7.52584 4.88651,-1.65849 8.91965,-2.38167 14.63112,-2.6235 7.54086,-0.31929 13.7238,0.90237 19.85799,3.92365 8.94242,4.40442 14.70508,12.87769 14.84602,21.82921 l 0.0433,2.74703 -6.25451,1.50634 c -6.76545,1.62939 -8.96556,1.83981 -9.9473,0.95135 -0.34114,-0.30873 -1.03422,-1.80432 -1.54016,-3.32354 -1.84083,-5.52752 -5.07866,-8.89872 -10.04864,-10.46257 -3.50027,-1.1014 -10.72983,-1.09937 -14.25822,0.004 -5.53626,1.73125 -8.23818,5.01102 -8.23818,10.00003 0,6.42339 3.86163,9.41055 19.23811,14.88165 14.3854,5.11847 21.29939,8.56299 26.60148,13.25277 2.30661,2.04023 5.01503,6.08468 5.97388,8.92075 1.78951,5.29301 1.72562,12.65628 -0.1589,18.31219 -3.6824,11.05175 -14.71801,18.88653 -28.4439,20.19388 -6.10623,0.5816 -15.8371,0.42317 -19.31125,-0.31442 z"
       id="path13094" /><path
       style="fill:#df214b;fill-opacity:1;fill-rule:evenodd;stroke:none;stroke-width:0.347473;stroke-opacity:1"
       d="m 530.30195,732.63719 c -8.59562,-1.25103 -15.6756,-7.05565 -17.59527,-14.42573 -1.12625,-4.32397 -0.50575,-9.61423 1.64223,-14.00142 2.92949,-5.9834 10.61771,-10.24625 20.7498,-11.50505 3.80739,-0.47302 10.68869,-0.42477 15.24691,0.10691 l 3.59747,0.41962 -0.14056,-3.66029 c -0.11957,-3.11368 -0.27804,-3.92595 -1.0612,-5.43926 -2.12277,-4.10182 -6.36524,-5.9645 -12.73581,-5.59172 -4.12584,0.24143 -8.16306,1.38631 -13.80923,3.91603 -2.32136,1.04007 -4.53836,1.89104 -4.92666,1.89104 -1.6249,0 -2.18442,-1.37153 -3.18941,-7.81814 l -0.7042,-4.51714 1.46426,-1.32462 c 4.76148,-4.30736 13.48583,-6.84236 23.53883,-6.83959 10.98273,0.003 19.00282,2.55268 23.64732,7.51766 5.20263,5.56162 5.69184,8.1703 6.12778,32.67584 l 0.24218,13.61325 1.07479,0.80687 c 0.86008,0.64567 1.4564,0.79278 2.98504,0.73639 3.46423,-0.1278 4.28734,1.24201 4.32263,7.19366 l 0.0216,3.64846 -1.9111,0.93176 c -4.93683,2.40694 -13.29106,2.37423 -18.08372,-0.0708 -0.77333,-0.39453 -2.00432,-1.25781 -2.73553,-1.91842 -0.76642,-0.6924 -1.696,-1.20111 -2.19484,-1.20111 -0.47593,0 -2.19723,0.62415 -3.82511,1.387 -6.45338,3.02416 -15.20858,4.42059 -21.74824,3.4688 z m 16.27247,-15.55124 c 1.05111,-0.38352 3.12291,-1.27855 4.60402,-1.98896 l 2.69291,-1.29166 v -3.3968 -3.39681 l -2.34544,-0.47368 c -1.30718,-0.264 -4.42197,-0.47036 -7.03632,-0.46618 -3.86942,0.006 -5.11683,0.14258 -7.12319,0.77887 -3.21089,1.01828 -5.01093,2.08488 -6.01191,3.56232 -1.79224,2.64534 0.24426,6.01168 4.33274,7.16201 2.42084,0.68113 8.41839,0.41169 10.88719,-0.48911 z"
       id="path13098" /><path
       style="fill:#df214b;fill-opacity:1;fill-rule:evenodd;stroke:none;stroke-width:0.347473;stroke-opacity:1"
       d="m 681.03995,732.28578 c -3.86894,-0.91907 -6.56471,-2.92956 -7.58201,-5.65464 -1.16156,-3.1115 -1.47426,-6.58544 -1.97633,-21.95668 -0.62215,-19.04709 -0.76612,-19.92734 -3.70036,-22.62322 -3.71369,-3.41199 -10.34214,-2.75809 -17.23387,1.70015 l -2.51095,1.62433 -0.0189,16.77256 c -0.0284,25.15857 -0.32464,28.36468 -2.68028,29.01056 -0.52208,0.14315 -3.61428,0.26269 -6.87156,0.26564 -6.86503,0.006 -7.43186,-0.17962 -8.12483,-2.66393 -0.28217,-1.01154 -0.51922,-7.55695 -0.72761,-20.09015 -0.31309,-18.83078 -0.57622,-22.81093 -1.65362,-25.01261 -0.81149,-1.65829 -3.71686,-3.364 -6.27423,-3.68352 -4.16184,-0.51999 -9.83642,1.10257 -13.63452,3.89857 l -2.0586,1.51546 v 21.8606 21.86061 l -1.05265,0.88574 c -1.39466,1.17353 -2.79547,1.4245 -7.98164,1.43 -5.56784,0.006 -7.33184,-0.29881 -8.50161,-1.46858 l -0.9186,-0.9186 0.12595,-29.90291 c 0.13216,-31.3758 0.14861,-31.70263 1.67243,-33.22645 0.61865,-0.61866 1.2069,-0.67201 7.36123,-0.66764 3.67887,0.003 7.04066,0.099 7.47066,0.21426 0.63504,0.17018 0.78181,0.45484 0.78181,1.51634 0,2.36223 0.53892,2.38495 5.15386,0.21729 6.89409,-3.23819 13.23061,-4.2937 19.34296,-3.22208 5.36381,0.94039 8.61919,2.54704 12.48165,6.16019 l 2.28074,2.13352 3.37588,-2.18691 c 13.06857,-8.46588 26.69241,-8.70279 34.78794,-0.60495 1.66237,1.66285 2.61234,3.03924 3.91375,5.67056 0.94519,1.9111 1.86535,4.2777 2.04478,5.25911 0.45561,2.49195 0.69419,7.65237 1.05007,22.71244 0.19566,8.27956 0.45591,13.44462 0.71383,14.16684 0.51928,1.4541 1.23096,1.8169 3.56409,1.8169 2.22175,0 3.48382,0.79473 4.00916,2.52461 0.18772,0.61812 0.43114,2.7891 0.54093,4.82441 l 0.19963,3.70055 -2.1782,0.87199 c -1.19801,0.4796 -3.10063,1.04252 -4.22805,1.25093 -2.35837,0.43597 -9.15756,0.44758 -10.96289,0.0187 z"
       id="path13100" /><path
       style="fill:#df214b;fill-opacity:1;fill-rule:evenodd;stroke:none;stroke-width:0.347473;stroke-opacity:1"
       d="m 706.58814,762.75509 c -1.04908,-1.6011 -1.32934,-12.32653 -1.31794,-50.43623 0.0114,-38.00569 0.20889,-45.2556 1.26167,-46.30999 0.50988,-0.51066 1.45304,-0.61263 6.40657,-0.69267 6.93299,-0.11202 7.2137,-0.0186 8.11148,2.6999 0.34712,1.05111 0.63554,1.95019 0.64092,1.99797 0.0497,0.44123 1.55369,-0.14668 2.96441,-1.15878 2.53535,-1.81895 5.29581,-3.14201 8.75639,-4.19684 2.73393,-0.83334 3.60673,-0.93168 8.26866,-0.93168 4.68251,0 5.52809,0.0962 8.3222,0.94719 5.96165,1.81565 11.08588,5.165 14.15046,9.24918 4.98121,6.63846 7.21796,18.43807 5.68224,29.97575 -1.22348,9.19189 -4.19242,15.5348 -9.62735,20.56807 -8.16296,7.55969 -19.87216,10.22683 -32.20823,7.33645 -2.17329,-0.50921 -4.04705,-0.83023 -4.16391,-0.71337 -0.11686,0.11686 -0.29324,6.88654 -0.39197,15.04373 -0.17889,14.78154 -0.18221,14.83563 -0.98964,16.13428 l -0.81016,1.30302 h -7.26057 c -7.23615,0 -7.26238,-0.003 -7.79523,-0.81598 z m 35.26589,-46.4144 c 8.95389,-2.81222 13.26781,-15.46043 9.19356,-26.95502 -2.05589,-5.80022 -6.94678,-9.5555 -12.44512,-9.5555 -4.48771,0 -10.70609,2.23342 -13.57102,4.87421 l -1.60101,1.47576 0.0906,14.44434 0.0906,14.44433 2.60605,0.81817 c 1.43332,0.44999 3.46604,0.95652 4.51714,1.12563 2.96543,0.47707 8.5318,0.1407 11.11912,-0.67192 z"
       id="path13102" /><path
       style="fill:#df214b;fill-opacity:1;fill-rule:evenodd;stroke:none;stroke-width:0.347473;stroke-opacity:1"
       d="m 485.41152,732.65466 c -7.08222,-0.91424 -12.67005,-4.8605 -15.75672,-11.12777 -2.11575,-4.29591 -2.22783,-5.33273 -2.61042,-24.14935 -0.34735,-17.08336 -0.38803,-17.34914 -2.70129,-17.64748 -0.73471,-0.0947 -2.27401,-0.19588 -3.42067,-0.22472 -2.71356,-0.0683 -3.1163,-0.20959 -3.59573,-1.26182 -0.52303,-1.14794 -0.53455,-10.24733 -0.0144,-11.3889 0.5045,-1.10727 1.68923,-1.6183 3.75173,-1.6183 3.12581,0 4.89587,-0.39149 5.31555,-1.17566 0.22046,-0.41194 0.52298,-3.90291 0.69448,-8.01424 0.16712,-4.0064 0.37822,-7.35872 0.4691,-7.44961 0.24131,-0.24131 11.8864,-1.75333 13.60019,-1.76587 1.04963,-0.008 1.73015,0.22376 2.43231,0.82722 l 0.97492,0.83789 0.17374,7.49236 c 0.16733,7.2161 0.20289,7.52153 0.9644,8.28327 0.7737,0.77394 0.99019,0.79463 10.0928,0.96464 10.34007,0.19312 10.87816,0.30983 11.30664,2.45221 0.40091,2.00456 0.23986,9.13226 -0.22724,10.05681 -0.71901,1.42317 -2.27255,1.66605 -12.38302,1.93593 l -9.46798,0.25273 0.14663,14.97628 c 0.16727,17.08509 0.21251,17.41026 2.77057,19.91472 2.14419,2.09926 3.66091,2.63841 7.40637,2.63271 2.74904,-0.004 3.65093,-0.17934 7.2678,-1.41151 l 4.12929,-1.40674 0.94075,0.94076 c 1.17485,1.17484 2.05871,4.79956 2.14359,8.79083 0.0598,2.81188 0.0543,2.83068 -1.10933,3.80214 -2.3142,1.93197 -8.93684,3.80238 -15.81567,4.46676 -3.85772,0.37259 -4.6933,0.37424 -7.47838,0.0147 z"
       id="path13096" /><path
       style="fill:#1a1a1a;fill-opacity:1;fill-rule:evenodd;stroke:none;stroke-width:0.347473;stroke-opacity:1"
       d="m 30.944678,730.92812 c -0.77001,-0.48718 -0.979647,-6.07582 -1.245488,-33.20311 -0.221234,-22.5755 0.239911,-62.47827 0.749558,-64.859 0.114192,-0.53343 0.513723,-1.02286 0.94514,-1.1578 1.445036,-0.45201 26.989399,-0.62073 32.517765,-0.21478 24.41066,1.79245 36.371777,11.77908 38.277227,31.95859 1.36138,14.41764 -2.9628,26.94821 -11.556441,33.48817 -8.019508,6.10303 -17.328845,8.53007 -35.070638,9.14328 l -6.809533,0.23536 -0.242915,10.47068 c -0.133603,5.75887 -0.384303,11.09612 -0.557111,11.86056 -0.571778,2.52934 -0.844451,2.60675 -9.160672,2.60073 -4.039914,-0.003 -7.571016,-0.14813 -7.846892,-0.32268 z M 65.00771,689.41014 c 6.067946,-0.93208 11.345881,-3.3991 14.069093,-6.57621 1.467728,-1.71236 3.009825,-4.87449 3.667761,-7.5209 0.707145,-2.84435 0.595787,-11.36726 -0.186141,-14.24638 C 79.829328,651.01792 71.722434,647.1737 53.250178,647.16893 l -4.604012,-0.001 v 21.20702 21.20703 l 0.781814,0.34141 c 1.069811,0.46718 11.416375,0.12645 15.57973,-0.51307 z"
       id="path13909" /><path
       style="fill:#1a1a1a;fill-opacity:1;fill-rule:evenodd;stroke:none;stroke-width:0.347473;stroke-opacity:1"
       d="m 167.13433,732.68268 c -2.0027,-0.30356 -5.44943,-1.89172 -6.72067,-3.0967 -3.04396,-2.88529 -3.83477,-7.86712 -4.23022,-26.64888 -0.34648,-16.45583 -0.71561,-18.51411 -3.70926,-20.6827 -1.96721,-1.42504 -4.40196,-2.07771 -7.72803,-2.07162 -4.69991,0.009 -8.61367,1.22293 -12.61969,3.9155 l -2.1717,1.45967 v 20.19561 c 0,12.29072 -0.1389,20.92801 -0.35486,22.06676 -0.21742,1.14648 -0.67216,2.18845 -1.17417,2.69046 -0.9161,0.9161 -1.84126,0.99311 -9.99778,0.83221 -4.16953,-0.0822 -4.4605,-0.13474 -5.47383,-0.98741 l -1.07023,-0.90053 0.088,-51.26973 0.088,-51.26974 0.98066,-0.73244 c 0.92099,-0.68787 1.40379,-0.73243 7.93539,-0.73243 6.80349,0 6.96859,0.0171 7.59136,0.78581 1.23585,1.52548 1.38736,3.81846 1.3899,21.0352 0.003,17.47337 0.16037,21.43933 0.85302,21.43933 0.22415,0 2.11698,-0.76348 4.2063,-1.69661 5.79465,-2.58803 9.05331,-3.31151 14.91788,-3.31208 4.01159,-3.5e-4 5.35207,0.1379 7.6444,0.78869 4.53389,1.28714 6.99111,2.67179 9.9307,5.59597 2.97342,2.95783 4.12916,5.01874 5.1716,9.22194 1.1959,4.82203 1.42911,7.98467 1.6142,21.89078 0.0992,7.45329 0.33963,14.38111 0.5343,15.39517 0.41129,2.14249 0.97154,2.49967 3.92079,2.49967 3.36194,0 3.87935,0.88976 4.32553,7.4385 l 0.23455,3.44257 -1.80639,0.827 c -3.24569,1.48592 -10.61182,2.44965 -14.36978,1.88003 z"
       id="path13911" /><path
       style="fill:#1a1a1a;fill-opacity:1;fill-rule:evenodd;stroke:none;stroke-width:0.347473;stroke-opacity:1"
       d="m 211.41212,732.48782 c -11.38053,-2.17525 -20.35809,-10.24736 -24.36354,-21.90632 -4.4173,-12.85774 -1.76758,-27.62321 6.62038,-36.89192 3.60876,-3.98768 9.92186,-7.61175 16.03076,-9.20253 2.70873,-0.70537 3.94106,-0.8137 9.20803,-0.80944 5.25178,0.004 6.48237,0.11395 9.02662,0.80473 10.80534,2.93372 18.5382,9.55878 21.89591,18.75912 2.57071,7.04392 3.27833,15.83377 1.82667,22.69038 -2.68075,12.66193 -11.3803,22.2136 -23.5686,25.87714 -2.69528,0.81014 -3.82539,0.94588 -8.65939,1.04013 -3.66307,0.0714 -6.3978,-0.0518 -8.01684,-0.36129 z m 11.38978,-14.77696 c 7.46051,-2.30432 11.84144,-10.47426 11.2759,-21.02827 -0.33611,-6.27241 -1.9448,-10.73521 -5.12332,-14.21302 -2.86162,-3.13107 -7.30885,-4.70047 -12.062,-4.25662 -8.10052,0.75644 -13.27353,8.47854 -13.27353,19.81432 0,9.9246 3.56014,16.89022 9.98241,19.5312 2.58098,1.06136 6.07051,1.11915 9.20054,0.15239 z"
       id="path13913" /><path
       style="fill:#1a1a1a;fill-opacity:1;fill-rule:evenodd;stroke:none;stroke-width:0.347473;stroke-opacity:1"
       d="m 282.66897,732.64898 c -6.07767,-0.85779 -11.43017,-4.13987 -14.329,-8.78636 -2.0118,-3.22468 -2.86157,-5.51086 -3.22879,-8.68664 -0.18171,-1.57142 -0.46747,-9.58071 -0.63502,-17.79844 -0.25179,-12.34954 -0.39998,-15.16735 -0.85428,-16.24435 -0.32813,-0.77788 -0.80186,-1.31968 -1.17546,-1.34437 -0.34419,-0.0227 -1.79003,-0.0916 -3.21297,-0.15313 -3.43365,-0.14835 -3.9953,-0.32114 -4.47645,-1.37716 -0.54238,-1.19039 -0.54577,-10.25273 -0.004,-11.44116 0.48234,-1.05863 2.07059,-1.57635 4.84434,-1.57911 2.93429,-0.003 4.04986,-0.50957 4.4725,-2.03122 0.19427,-0.69944 0.3541,-3.63669 0.35516,-6.52723 0.002,-6.12965 0.17778,-7.29875 1.19589,-7.96584 1.08852,-0.71323 12.7868,-2.08273 14.3878,-1.68436 1.95037,0.48529 2.12575,1.17559 2.15384,8.47748 0.0305,7.9279 0.23163,8.69875 2.41782,9.26693 0.93063,0.24186 4.65827,0.42563 9.20803,0.45395 8.27018,0.0515 9.76772,0.30052 10.49686,1.74572 0.59925,1.18772 0.59878,9.58527 -6.9e-4,10.77165 -0.72265,1.43036 -2.28808,1.67616 -12.36783,1.9419 l -9.4212,0.24838 0.003,12.71689 c 0.004,17.81551 0.34351,20.03523 3.47443,22.71518 2.75449,2.35774 7.23011,2.75969 12.50646,1.12317 6.20368,-1.92414 5.53247,-1.84113 6.43191,-0.79548 1.31983,1.53439 2.31584,4.68058 2.50615,7.91634 0.15604,2.65323 0.0973,3.04974 -0.57801,3.89992 -2.56742,3.23239 -16.57382,6.20945 -24.17006,5.13734 z"
       id="path13915" /><path
       style="fill:#1a1a1a;fill-opacity:1;fill-rule:evenodd;stroke:none;stroke-width:0.347473;stroke-opacity:1"
       d="m 335.31107,732.47517 c -8.58968,-1.72288 -15.66589,-6.48565 -20.31607,-13.67408 -9.24991,-14.2989 -7.72927,-34.44862 3.45553,-45.78861 5.40595,-5.48096 12.85337,-8.74068 21.69037,-9.49384 10.52713,-0.89719 19.85427,2.40182 26.6685,9.43265 6.3843,6.58724 9.48871,14.52693 9.49888,24.29387 0.0113,10.83446 -3.15745,19.41407 -9.55093,25.85997 -4.80623,4.84563 -10.03315,7.71219 -16.78497,9.20527 -3.58659,0.79312 -11.10716,0.87764 -14.66131,0.16477 z m 13.16035,-15.4695 c 4.28884,-1.97685 7.2281,-5.90792 8.79307,-11.76012 1.00927,-3.77418 1.01015,-10.63517 0.002,-14.36814 -1.85999,-6.88647 -5.35335,-10.80768 -10.95771,-12.2999 -10.86378,-2.89259 -19.62511,6.80394 -18.87058,20.88486 0.5027,9.38124 4.42807,16.04258 10.79996,18.32748 2.80165,1.00464 7.06067,0.67828 10.23352,-0.78418 z"
       id="path13917" /></g></svg>
