<?xml version="1.0" encoding="UTF-8" standalone="no"?>
<!-- Created with Inkscape (http://www.inkscape.org/) -->

<svg
   width="2539.3608"
   height="570.25568"
   viewBox="0 0 2539.3609 570.25568"
   version="1.1"
   id="SVGRoot"
   sodipodi:docname="Imagotipo horizontal original.svg"
   xml:space="preserve"
   inkscape:version="1.2.2 (732a01da63, 2022-12-09)"
   xmlns:inkscape="http://www.inkscape.org/namespaces/inkscape"
   xmlns:sodipodi="http://sodipodi.sourceforge.net/DTD/sodipodi-0.dtd"
   xmlns="http://www.w3.org/2000/svg"
   xmlns:svg="http://www.w3.org/2000/svg"><sodipodi:namedview
     id="namedview42"
     pagecolor="#505050"
     bordercolor="#eeeeee"
     borderopacity="1"
     inkscape:showpageshadow="0"
     inkscape:pageopacity="0"
     inkscape:pagecheckerboard="0"
     inkscape:deskcolor="#505050"
     inkscape:document-units="px"
     showgrid="false"
     inkscape:zoom="1.4389623"
     inkscape:cx="146.63345"
     inkscape:cy="181.38071"
     inkscape:window-width="1920"
     inkscape:window-height="1017"
     inkscape:window-x="-8"
     inkscape:window-y="-8"
     inkscape:window-maximized="1"
     inkscape:current-layer="layer1" /><defs
     id="defs37" /><g
     inkscape:label="Capa 1"
     inkscape:groupmode="layer"
     id="layer1"
     transform="translate(-455.4807,-114.87215)"><g
       id="g449"
       transform="matrix(0.98682922,0,0,0.98682922,401.99769,8.1487712)"><path
         style="fill:#16578d;stroke-width:0.662117;fill-opacity:1"
         d="m 277.84447,674.48108 c -24.1463,-3.51426 -36.98441,-13.28817 -57.75767,-43.97221 -4.56101,-6.73704 -11.22032,-16.56948 -14.79844,-21.84987 -17.04089,-25.1479 -20.26966,-49.31106 -9.84397,-73.66916 7.1632,-16.73575 13.12251,-22.54275 45.94262,-44.76853 9.28619,-6.2886 25.22667,-17.10821 35.42327,-24.04357 10.19661,-6.93536 26.73299,-18.18282 36.74751,-24.99437 10.01452,-6.81154 33.25484,-22.61149 51.64514,-35.111 18.39031,-12.49949 37.45929,-25.46575 42.37551,-28.81389 22.24885,-15.15236 38.94058,-26.51251 49.32773,-33.57173 6.1908,-4.20734 23.62104,-16.06026 38.73386,-26.33983 15.11283,-10.27957 31.20228,-21.21263 35.75433,-24.29568 4.55206,-3.08305 12.74576,-8.64995 18.20823,-12.3709 5.46247,-3.72094 23.93404,-16.29001 41.04796,-27.93125 17.11387,-11.64124 35.14002,-23.91023 40.05809,-27.2644 24.1504,-16.47093 31.1109,-19.27529 49.33105,-19.87529 20.29727,-0.66842 36.57357,5.18999 51.06354,18.37951 10.80641,9.83656 43.31194,58.69203 47.12374,70.82649 10.40028,33.10821 -1.48704,63.61273 -33.15684,85.08502 -5.36878,3.64002 -17.87657,12.13904 -27.79522,18.88671 -9.91858,6.74766 -30.69682,20.87837 -46.17381,31.40158 -15.47699,10.5232 -30.82155,20.96792 -34.09903,23.21047 -3.27748,2.24255 -18.47308,12.5794 -33.76798,22.97077 -15.29491,10.39137 -32.87413,22.33969 -39.06492,26.55181 -6.1908,4.21212 -14.68245,9.98388 -18.87034,12.82614 -18.39628,12.48526 -109.21489,74.26454 -138.05145,93.90937 -3.27748,2.23277 -10.13039,6.89383 -15.2287,10.3579 -20.55528,13.96643 -26.62647,18.09352 -45.43168,30.8837 -33.9923,23.11952 -45.29047,26.99542 -68.74253,23.58221 z m 18.45499,-18.18878 c 9.89634,-1.60568 15.65759,-4.34509 30.68205,-14.58895 6.27312,-4.27709 19.59938,-13.33221 29.6139,-20.12249 10.01452,-6.79027 24.31626,-16.50385 31.78163,-21.58571 7.46537,-5.08187 22.00342,-14.9694 32.30677,-21.9723 10.30336,-7.00289 26.61284,-18.09568 36.24329,-24.65064 9.63046,-6.55497 21.24053,-14.45071 25.80016,-17.54611 13.97818,-9.48936 58.20731,-39.58993 71.51015,-48.66694 6.91912,-4.72117 17.863,-12.16439 24.3197,-16.54049 22.47755,-15.2343 47.27736,-32.0918 60.76237,-41.30281 7.46537,-5.09925 17.85624,-12.16521 23.09087,-15.70214 5.23463,-3.53693 20.87715,-14.17513 34.76116,-23.64044 13.884,-9.46532 29.71297,-20.20645 35.17544,-23.8692 34.45446,-23.10272 40.32016,-50.99297 17.77268,-84.5058 -30.03907,-44.64775 -30.99986,-45.79464 -43.59525,-52.03953 -22.08843,-10.9516 -37.09486,-8.04228 -68.19808,13.22169 -8.73995,5.97512 -26.55918,18.11618 -39.59839,26.98012 -13.03914,8.86394 -27.85388,18.9468 -32.92167,22.40637 -5.06779,3.45956 -12.9565,8.82271 -17.53047,11.91811 -4.57398,3.0954 -11.57315,7.86264 -15.55371,10.59388 -3.98057,2.73123 -11.42851,7.79643 -16.55098,11.25599 -5.12247,3.45956 -13.02054,8.82271 -17.55126,11.91811 -4.53073,3.0954 -20.08211,13.67272 -34.55862,23.50517 -14.47652,9.83244 -30.05333,20.42036 -34.61515,23.52872 -4.56181,3.10835 -21.85106,14.87025 -38.42054,26.13756 -16.56949,11.2673 -34.59563,23.52762 -40.0581,27.24516 -5.46246,3.71753 -17.8275,12.11944 -27.47786,18.6709 -30.65767,20.81298 -42.96445,29.18739 -59.01249,40.15632 -8.60409,5.88095 -20.07527,13.64879 -25.49151,17.26187 -35.30375,23.55054 -40.46265,51.53947 -16.06353,87.15052 3.41871,4.98967 10.08921,14.79864 14.82334,21.79772 18.55499,27.43219 35.15272,36.78221 58.5541,32.98534 z m -16.59574,-14.56787 c -7.80073,-1.15975 -14.29589,-4.40283 -20.27402,-10.12296 -3.7132,-3.55294 -3.74933,-3.42526 3.27599,-11.57447 16.635,-19.2962 16.96113,-19.557 20.95461,-16.75685 7.07118,4.95818 27.24902,-1.22855 27.24902,-8.35482 0,-3.58357 -3.64072,-3.35001 -19.01487,1.21986 -34.86101,10.3622 -53.15492,6.13761 -63.32251,-14.623 -20.31754,-41.48519 45.26114,-88.78445 77.87645,-56.16914 4.00815,4.00816 4.57803,2.73526 -7.48476,16.71849 -11.34997,13.15693 -11.37317,13.17004 -17.08525,9.65535 -7.135,-4.3902 -18.01603,-1.67433 -21.68016,5.4113 -3.32724,6.43417 3.67795,6.73577 23.00513,0.99046 36.13567,-10.74188 57.48112,-2.32886 61.58942,24.27465 4.40204,28.50559 -34.41757,63.89113 -65.08905,59.33113 z m 111.4635,-71.63376 c -1.40169,-1.91187 -11.446,-16.58604 -22.32069,-32.60928 -27.13561,-39.98275 -24.7804,-37.00192 -27.55605,-34.87591 -9.27497,7.10417 -23.71337,16.04249 -25.2792,15.6495 -2.37128,-0.59516 -15.69584,-19.97372 -15.69584,-22.82725 0,-2.36675 -0.75472,-1.79783 30.4574,-22.95942 12.92784,-8.76498 29.90892,-20.29264 37.73574,-25.61701 18.53219,-12.60695 16.09593,-12.90903 27.02653,3.35106 7.70512,11.46194 8.32896,9.9563 -9.00153,21.72527 -13.14753,8.92838 -12.75836,6.73875 -3.57861,20.13441 4.25672,6.21167 10.27208,15.03446 13.36748,19.6062 3.09539,4.57174 10.59104,15.60898 16.657,24.52719 13.65482,20.07543 13.94675,17.08542 -2.78703,28.54579 -15.09661,10.33913 -15.32079,10.40216 -19.0252,5.34945 z m 48.34025,-29.13316 c -0.37228,-0.45521 -1.4657,-5.74387 -2.42983,-11.75259 -0.96412,-6.00871 -2.61418,-16.28808 -3.6668,-22.84304 -1.05261,-6.55496 -2.84051,-17.72819 -3.97311,-24.8294 -1.1326,-7.10121 -2.63845,-16.48672 -3.34634,-20.8567 -8.34918,-51.54182 -8.01349,-47.43559 -4.1119,-50.29806 4.11693,-3.02047 4.67853,-2.9635 11.72375,1.18921 3.29334,1.94121 15.20137,8.86861 26.4623,15.39423 82.28778,47.68508 80.41821,46.50697 78.69362,49.58865 -0.85873,1.53447 -24.77853,17.5629 -26.20975,17.5629 -0.70201,0 -2.95411,-1.00541 -5.00466,-2.23425 -2.05054,-1.22883 -4.35574,-2.55713 -5.12267,-2.95179 -1.28059,-0.65898 -22.82112,12.98221 -33.48111,21.20293 l -2.10516,1.62345 0.77871,4.71525 c 1.46123,8.84809 2.36397,7.53172 -11.63599,16.96752 -12.29216,8.28476 -14.95758,9.4946 -16.57106,7.52169 z m 28.32364,-64.92732 c 6.14208,-4.28216 6.20244,-3.9562 -1.60034,-8.64109 -8.21659,-4.93333 -8.2242,-4.91527 -5.05189,11.9915 0.13942,0.74304 2.45003,-0.4207 6.65223,-3.35041 z m 79.3018,-8.23665 c -0.56079,-0.63728 -4.72428,-6.96878 -9.25219,-14.06999 -12.58176,-19.73222 -39.6702,-62.01111 -47.01636,-73.38183 -7.5309,-11.65669 -7.49489,-11.37657 -1.95923,-15.23804 l 4.17957,-2.91551 11.70601,3.13715 c 6.43831,1.72542 13.64271,3.67606 16.00978,4.33476 11.18871,3.11353 44.2694,11.92344 46.17248,12.29646 2.78733,0.54634 2.32291,2.77061 5.82171,-27.88164 1.6627,-14.56658 3.60141,-31.54989 4.30829,-37.74069 0.70687,-6.1908 1.28894,-11.47708 1.29344,-11.74731 0.0132,-0.77443 9.11338,-6.62611 9.89799,-6.36458 0.69543,0.23181 2.79732,3.08525 22.85238,31.02318 5.62032,7.82953 18.26934,25.40875 28.10887,39.06492 10.94056,15.18426 17.89994,25.43131 17.9155,26.3789 0.0331,2.0213 -1.37965,3.19365 -14.87115,12.33955 -12.63029,8.5621 -12.2691,8.42394 -14.32047,5.47788 -9.83933,-14.13075 -23.39525,-32.28687 -23.96461,-32.09708 -0.41435,0.1381 -1.92259,8.70851 -3.52392,20.02418 -3.38004,23.88399 -3.64939,24.33818 -12.99955,21.91789 -2.26649,-0.58668 -10.37789,-2.69061 -18.02534,-4.67539 -16.91076,-4.38894 -16.32077,-5.05292 -7.61453,8.56933 15.61635,24.43422 15.43234,24.11752 14.5994,25.12111 -1.77762,2.14192 -25.24786,17.58546 -26.72538,17.58546 -0.86519,0 -2.0319,-0.52142 -2.59269,-1.15871 z m 128.72604,-87.39948 c -1.19844,-1.0302 -62.61226,-90.94214 -64.40302,-94.28819 -1.05231,-1.96635 -0.2579,-4.1377 2.1977,-6.00696 55.15959,-41.98818 82.99878,-45.47862 104.50355,-13.10256 16.55393,24.92239 9.86065,50.50936 -18.4195,70.41381 -6.55708,4.61509 -6.62561,2.77744 0.49658,13.31845 8.36585,12.3816 9.07942,10.5209 -8.66122,22.5842 -12.63061,8.5886 -13.50322,8.9818 -15.71409,7.08125 z m 8.54614,-70.87845 c 11.72855,-10.75405 1.89452,-32.46444 -13.23546,-29.21964 -4.02031,0.86221 -13.6067,6.83436 -13.09807,8.15989 0.42455,1.10637 13.95048,21.09222 16.51692,24.40535 l 1.92576,2.48605 2.0325,-1.16182 c 1.11786,-0.639 3.75414,-2.74042 5.85835,-4.66983 z m -511.7399,298.48828 c -22.6423,-15.90107 -29.81736,-32.17632 -33.57147,-76.1505 -0.20208,-2.36707 -0.95605,-11.0077 -1.67549,-19.2014 -0.71944,-8.1937 -1.9041,-21.75055 -2.63258,-30.12634 -0.72848,-8.37578 -1.6238,-18.3572 -1.98959,-22.18093 -0.36579,-3.82372 -1.41038,-15.74183 -2.3213,-26.48469 -0.91093,-10.74285 -1.94578,-22.80994 -2.29966,-26.81575 -0.35389,-4.00581 -0.95538,-10.85872 -1.33664,-15.2287 -0.38127,-4.36997 -1.14413,-13.0106 -1.69525,-19.2014 -0.55112,-6.1908 -1.72525,-19.59867 -2.60917,-29.79528 -3.05961,-35.29475 -4.90092,-56.34994 -6.31146,-72.17079 -3.06965,-34.42985 5.1712,-57.22634 26.94082,-74.52587 16.94041,-13.46191 24.03928,-15.41328 69.75257,-19.17393 8.92203,-0.73397 17.41368,-1.48729 18.87034,-1.67402 1.45666,-0.18674 11.2891,-1.06656 21.84987,-1.95516 10.56077,-0.8886 26.20329,-2.22829 34.76115,-2.97709 31.16392,-2.72677 75.42878,-6.60703 86.73736,-7.60341 6.37288,-0.5615 18.43997,-1.61128 26.81575,-2.33285 8.37579,-0.72156 20.2939,-1.75909 26.48469,-2.3056 6.1908,-0.54652 21.68434,-1.88974 34.4301,-2.98493 12.74576,-1.09521 26.15363,-2.29082 29.79528,-2.65692 3.64164,-0.36611 10.49455,-0.98225 15.22869,-1.36921 12.8864,-1.0533 15.20721,-1.24729 23.50516,-1.96481 4.1879,-0.36212 9.40207,-0.799 11.58706,-0.97083 2.18498,-0.17184 12.61333,-1.08458 23.1741,-2.02831 51.91257,-4.63903 77.64437,6.70361 94.39302,41.60874 3.46519,7.22169 3.5714,7.10177 -6.28773,7.10177 -11.1768,0 -11.6471,-0.1378 -13.45263,-3.94171 -4.49227,-9.4643 -17.75812,-20.42018 -29.77746,-24.59223 -10.44868,-3.62686 -16.08495,-3.91037 -38.11524,-1.91729 -8.08796,0.73172 -19.91954,1.78523 -26.29242,2.34115 -17.96921,1.56746 -32.07723,2.80077 -48.66562,4.25433 -16.54057,1.44936 -21.09697,1.84975 -48.99667,4.30556 -10.19661,0.89753 -32.54307,2.83564 -49.6588,4.30689 -17.11573,1.47125 -36.03573,3.11919 -42.04444,3.6621 -13.82047,1.2487 -20.75806,1.85993 -48.99668,4.31674 -12.56367,1.09307 -29.54698,2.57811 -37.74068,3.3001 -25.84287,2.27717 -60.25515,5.26461 -69.19125,6.00672 -32.38686,2.6896 -45.04449,8.47056 -57.2708,26.15654 -11.07711,16.02359 -11.37931,20.0514 -5.98186,79.72622 0.70817,7.82954 2.34559,26.60057 3.63872,41.7134 1.29313,15.11282 2.648,30.45739 3.01082,34.09904 0.36283,3.64164 1.40266,15.41078 2.31077,26.15363 1.61802,19.14151 3.00635,35.06148 5.65857,64.8875 1.48064,16.65084 3.07932,35.09226 5.59635,64.55643 2.54633,29.80721 5.40739,38.703 16.05615,49.92266 l 4.13823,4.36009 -0.0101,10.59931 c -0.0127,13.29977 0.11082,13.10945 -5.81054,8.95103 z"
         id="path438" /><path
         style="fill:#c52c2e;stroke-width:0.662117;fill-opacity:1"
         d="m 470.32126,602.69058 c -7.97404,-0.91631 -17.45289,-2.62428 -24.34002,-4.38576 -11.856,-3.03233 -12.31301,-3.36669 -8.31903,-6.0863 l 2.26579,-1.54285 4.84744,1.32825 c 91.94104,25.19286 184.19468,-36.50342 196.86827,-131.6592 0.94715,-7.11147 2.44877,-9.93176 5.28793,-9.93176 3.66866,0 -1.61504,29.26523 -8.7136,48.2626 -25.20097,67.44372 -97.32331,112.1248 -167.89678,104.01502 z M 136.27428,556.39671 c -17.25744,-9.51462 -29.83683,-25.20445 -35.8709,-44.74049 -0.745076,-2.41229 -6.424506,-33.19383 -12.620966,-68.40343 -6.19644,-35.20959 -11.70955,-66.40106 -12.25136,-69.31437 -0.5418,-2.91332 -1.89874,-10.51112 -3.01542,-16.884 -1.11667,-6.37288 -2.63401,-15.01351 -3.37186,-19.2014 -0.73785,-4.18789 -2.04301,-11.63671 -2.90037,-16.55293 -2.40245,-13.77605 -7.38048,-41.92549 -10.01124,-56.61103 -9.65313,-53.88588 15.12809,-87.24162 72.263856,-97.26778 9.46827,-1.66149 18.85379,-3.32995 20.85669,-3.70769 2.00291,-0.37774 15.55976,-2.76242 30.12634,-5.29929 14.56658,-2.53687 29.76217,-5.21611 33.76798,-5.95387 4.0058,-0.73775 12.49746,-2.23594 18.87034,-3.3293 6.37288,-1.09336 14.71555,-2.56867 18.53928,-3.27847 3.82373,-0.70979 12.31538,-2.20974 18.87034,-3.3332 6.55496,-1.12346 15.04662,-2.60865 18.87034,-3.30042 3.82373,-0.69177 11.42153,-2.03535 16.88399,-2.98573 5.46247,-0.95038 15.59286,-2.73672 22.51199,-3.96964 6.91913,-1.23291 26.43503,-4.6604 43.36868,-7.61663 16.93365,-2.95623 35.70467,-6.25417 41.71339,-7.32875 6.00871,-1.07458 15.99013,-2.85115 22.18092,-3.94794 6.1908,-1.09678 14.68245,-2.65719 18.87035,-3.46756 34.85643,-6.7449 67.25886,6.26591 83.73145,33.62135 2.96391,4.92207 2.90082,4.97331 -7.02892,5.70795 -4.49537,0.33259 -8.69776,0.76905 -9.33863,0.96991 -0.80759,0.25311 -1.92533,-0.5085 -3.64165,-2.48135 -16.55403,-19.02837 -34.43693,-24.15279 -64.71543,-18.54447 -6.55496,1.21415 -16.68535,3.05131 -22.51199,4.08259 -26.40279,4.67315 -34.97689,6.18162 -52.63832,9.26085 -10.37869,1.8095 -20.50908,3.59866 -22.51198,3.97593 -2.00291,0.37727 -12.1333,2.16881 -22.51199,3.98121 -10.37869,1.8124 -23.93554,4.19458 -30.12634,5.29371 -13.41745,2.38219 -45.1365,7.97647 -56.27996,9.92609 -4.36998,0.76455 -15.5432,2.73749 -24.8294,4.3843 -9.28619,1.64682 -20.90635,3.69498 -25.82257,4.5515 -4.91622,0.85651 -12.43953,2.17721 -16.71846,2.93489 -4.27893,0.75769 -11.28082,1.9778 -15.55976,2.71136 -4.27893,0.73355 -10.1635,1.77609 -13.07681,2.31675 -2.91332,0.54065 -12.04372,2.18027 -20.28979,3.6436 -27.05944,4.80192 -39.031796,11.72453 -49.220786,28.46024 -10.8253,17.78087 -10.66143,23.71387 2.64259,95.67595 1.11286,6.01952 6.62484,37.24718 11.51168,65.21856 1.81325,10.37869 5.559436,31.68231 8.324856,47.34139 2.76542,15.65907 6.08035,34.4301 7.36652,41.71339 9.00428,50.98946 10.06731,54.01381 23.49408,66.84167 l 5.45347,5.21022 0.8679,8.99803 c 1.39066,14.41778 1.59323,13.9045 -4.22213,10.6983 z M 324.72456,429.5774 c -1.89278,-1.89278 6.05771,-40.27837 8.5398,-41.23084 1.24371,-0.47726 4.49724,1.47927 4.35166,2.61688 -0.06,0.46868 -1.1952,4.97154 -2.52272,10.00636 -1.32751,5.03482 -2.96386,12.92154 -3.63632,17.52604 -1.30739,8.95209 -4.16246,13.65153 -6.73242,11.08156 z m 11.50008,-45.71549 c -8.47269,-4.15434 -15.56821,-7.97895 -15.76781,-8.49912 -0.47627,-1.24112 6.40736,-14.93266 8.98176,-17.86474 10.33439,-11.77022 29.48758,0.76396 23.84657,15.60561 -1.84964,4.86646 -1.71839,5.57281 1.3239,7.12487 3.17548,1.62001 3.22744,2.20141 0.65258,7.30217 -2.4881,4.9289 -0.86376,5.24194 -19.037,-3.66879 z m 7.37539,-12.31988 c 1.93636,-5.50602 -4.74667,-9.58564 -8.46457,-5.16716 -2.33033,2.76944 -2.25441,2.95849 2.09302,5.21215 4.44848,2.30605 5.54746,2.29829 6.37155,-0.045 z m 10.8392,-22.81627 c -14.46695,-12.83541 -13.77917,-11.62031 -9.43365,-16.66626 3.04323,-3.53378 2.45889,-3.65788 8.81717,1.87255 6.26673,5.45077 6.17037,5.44768 10.62057,0.34184 4.20394,-4.8233 4.38876,-3.88576 -1.88885,-9.58174 -6.15348,-5.58335 -6.14526,-5.55247 -2.56382,-9.6212 3.51791,-3.99655 2.54767,-4.46292 17.09179,8.21549 14.69401,12.80906 13.90535,11.62304 10.53974,15.85006 -3.26219,4.09715 -3.82746,4.12272 -8.21794,0.37182 -4.43839,-3.79183 -4.71432,-3.76235 -8.80507,0.94089 -4.19494,4.82302 -4.20137,4.58959 0.23176,8.41688 4.35992,3.76408 4.39998,4.11929 0.93152,8.26197 -3.5679,4.26147 -2.42481,4.8159 -17.32322,-8.4023 z m 40.89004,-22.71199 c -13.83194,-3.61713 -19.88606,-22.30031 -10.32454,-31.86183 12.98226,-12.98226 31.55701,-6.80913 34.17843,11.35888 1.65947,11.50111 -12.3221,23.51858 -23.85389,20.50295 z m 9.60765,-11.11322 c 4.28371,-2.53046 4.36929,-7.56497 0.23083,-13.58077 -3.46346,-5.03461 -8.76676,-5.5079 -12.46528,-1.11244 -5.53402,6.5768 4.85425,19.0528 12.23445,14.69321 z m 31.28242,-7.00834 c -0.35992,-0.4552 -2.37028,-6.04182 -4.46748,-12.4147 -4.57263,-13.89516 -3.91036,-13.06033 -8.99779,-11.34227 -4.80531,1.62278 -5.33657,1.39211 -6.81984,-2.96106 -1.47933,-4.34158 -1.58915,-4.26841 14.0114,-9.33629 16.35565,-5.31317 15.4416,-5.28652 16.95224,-0.49424 1.37931,4.37568 1.2948,4.53921 -3.0763,5.95302 -5.58801,1.80742 -5.53934,1.15932 -1.11663,14.87026 4.56524,14.15277 4.60711,13.33347 -0.7743,15.1508 -4.87373,1.64588 -4.86487,1.64499 -5.7113,0.57448 z m 32.15507,-7.33857 c -10.38097,-2.93165 -15.95455,-16.9052 -11.17472,-28.01622 6.27385,-14.58395 31.55544,-13.21337 35.89046,1.94571 4.79439,16.76541 -8.39637,30.67921 -24.71574,26.07051 z m 10.73794,-10.86965 c 3.21836,-2.8832 3.77812,-6.90105 1.84649,-13.25386 -1.87741,-6.17447 -11.3968,-5.25798 -13.15363,1.26638 -2.48615,9.2329 5.23941,17.42331 11.30714,11.98748 z m 41.75002,-1.20496 c -3.42553,-0.85709 -9.23561,-1.91371 -12.91129,-2.34804 -9.0814,-1.07306 -9.7977,-1.37801 -9.53903,-4.06093 0.3307,-3.43 8.45867,-2.97364 27.02326,1.51729 10.42353,2.52154 10.8877,2.79916 8.27646,4.95029 -2.46113,2.02749 -4.55012,2.01796 -12.8494,-0.0586 z"
         id="path436" /><path
         style="fill:#2e3f46;stroke-width:0.662117;fill-opacity:1"
         d="m 244.0058,685.40277 c -33.1462,-4.3176 -59.96791,-31.6183 -64.51053,-65.66259 -1.45105,-10.87477 -1.49238,-351.26394 -0.0438,-360.12311 5.39386,-32.98601 28.32563,-57.11421 60.61123,-63.77355 7.55287,-1.55787 481.39069,-1.54942 490.3259,0.009 32.47447,5.66308 57.04908,31.68166 61.5769,65.19515 1.48454,10.98842 1.41952,348.25627 -0.0693,359.01034 -4.49134,32.44306 -26.35008,56.01876 -59.88042,64.58397 -4.79089,1.22386 -478.78261,1.96298 -488.01009,0.76104 z m 56.05738,-8.23171 c 7.72514,-1.32728 14.66597,-3.66171 21.1416,-7.11081 l 5.2643,-2.80387 199.9594,-0.33315 199.95941,-0.33315 4.96588,-1.51469 c 18.7466,-5.7181 33.25934,-19.29291 39.07856,-36.55287 3.37627,-10.01425 3.29172,-6.32487 3.29443,-143.75988 V 356.56251 l 3.27351,-6.8718 c 10.28811,-21.59681 10.30307,-42.67282 0.0463,-64.80707 -3.16108,-6.82152 -3.22822,-7.10162 -3.57312,-14.89764 -1.23869,-27.99873 -19.61112,-49.95162 -46.0537,-55.0287 -2.87398,-0.55181 -6.5964,-1.86896 -8.93858,-3.16282 -21.48319,-11.86776 -47.65205,-11.95635 -70.08478,-0.23727 l -4.11108,2.14882 -199.95941,0.34895 c -225.77251,0.39401 -202.03675,-0.25854 -214.52599,5.89777 -14.06366,6.93238 -23.73025,18.05169 -28.90434,33.24818 l -2.10797,6.19119 -0.51123,19.2014 c -0.28119,10.56077 -0.51716,70.25913 -0.52439,132.66302 l -0.0131,113.46161 -2.97116,6.05056 c -10.64752,21.68293 -10.47182,44.61347 0.5092,66.45554 l 3.07246,6.11135 0.005,7.131 c 0.0173,26.55316 19.33108,50.18875 45.01933,55.09313 2.49099,0.47558 6.95319,2.16347 10.59387,4.00731 15.01416,7.60389 30.87128,10.21971 46.09595,7.60402 z m 167.76793,-16.61422 c -27.98422,-2.46912 -54.52766,-9.78705 -79.28854,-21.85958 -11.92053,-5.81202 -11.78522,-5.43208 -3.83942,-10.78054 l 6.25787,-4.21227 8.14319,3.71379 c 138.98984,63.388 294.38778,-38.24496 292.40931,-191.2408 l -0.21407,-16.55293 5.99852,-4.08851 c 7.29938,-4.9751 7.23343,-5.01037 8.26534,4.41957 14.59942,133.41421 -103.051,252.48453 -237.7322,240.60127 z m -3.31059,-17.81804 c -22.57513,-2.50979 -44.24342,-8.49198 -64.3909,-17.77706 -6.48022,-2.98645 -6.43512,-3.35 1.02603,-8.26985 7.29292,-4.80891 5.98337,-4.66794 13.77992,-1.48347 122.1647,49.89767 254.91493,-37.66856 259.36541,-171.08557 l 0.44177,-13.24235 6.18258,-4.21263 c 8.17987,-5.57349 7.72228,-6.44322 7.72009,14.67409 -0.0126,120.25903 -105.04026,214.63607 -224.1249,201.39684 z m 7.97173,-72.45232 c -2.74827,-1.73836 23.16879,-18.78922 30.14297,-19.83109 31.91723,-4.76808 63.59875,-26.22803 78.76932,-53.35559 2.80937,-5.02356 1.64642,-4.02851 16.79904,-14.37345 13.28559,-9.07029 14.01292,-9.27171 12.32108,-3.41195 -13.48567,46.70746 -56.3283,83.14649 -106.46267,90.54987 -7.85388,1.15979 -29.93674,1.45512 -31.56974,0.42221 z M 266.09852,465.14507 c -0.29933,-2.09394 -0.54423,-13.34166 -0.54423,-24.99492 0,-163.3123 168.76602,-268.9171 316.79159,-198.23129 12.63604,6.03401 12.56804,5.78826 3.28628,11.88193 l -5.2194,3.4266 -9.00712,-4.09852 c -140.28305,-63.83294 -300.41693,44.65831 -291.6814,197.61515 0.64928,11.36865 1.05183,10.33791 -5.79225,14.83118 -6.67845,4.38453 -7.14891,4.3587 -7.83347,-0.43013 z m 17.23088,-8.27606 c -2.10483,-3.40568 0.13777,-41.04782 3.38582,-56.8312 26.18981,-127.26501 163.53205,-197.90277 282.08877,-145.08369 9.24587,4.1192 9.24772,4.21202 0.20657,10.14772 l -5.288,3.47168 -3.08728,-1.1877 c -89.91917,-34.59249 -181.22404,-7.26038 -232.19121,69.50642 -20.38015,30.69659 -33.98342,77.55934 -31.25338,107.66671 0.50519,5.57124 -11.45922,16.1967 -13.86129,12.31006 z m 76.5766,-51.747 c 0,-5.014 10.27428,-27.27102 17.35758,-37.60148 24.67458,-35.98599 61.45335,-56.13374 104.58586,-57.29309 21.67935,-0.58272 21.5884,-0.77865 4.92247,10.60427 l -12.40138,8.47021 -7.1205,1.28216 c -33.94844,6.11294 -62.74707,26.34486 -78.8598,55.40141 -2.42321,4.36985 -28.48423,21.87838 -28.48423,19.13652 z"
         id="path434" /></g><path
       style="fill:#000000;stroke-width:1.16924"
       d="m 2840.4877,604.47597 c -3.5454,-4.50731 -3.8601,-226.39552 -0.3273,-230.75843 1.97,-2.43301 3.0169,-2.58878 17.4443,-2.59537 17.7836,-0.007 17.1861,-0.21849 18.9178,6.65865 1.525,6.0563 2.3788,6.33956 7.5126,2.49192 32.4189,-24.29697 83.976,-14.09728 101.1986,20.02035 13.0941,25.93917 12.7599,69.52633 -0.7321,95.54837 -15.5619,30.01332 -54.0549,45.13751 -90.8982,35.71457 -5.0289,-1.28617 -9.5853,-2.33848 -10.1256,-2.33848 -0.5402,0 -0.9822,16.23996 -0.9822,36.08883 0,34.73963 -0.091,36.204 -2.4232,39.16959 l -2.4235,3.08081 h -17.369 -17.3688 z m 84.1188,-110.38521 c 35.7851,-9.24688 35.9483,-79.03268 0.2013,-86.5721 -11.8436,-2.49799 -30.0563,2.72212 -39.0977,11.20604 l -3.2155,3.01723 v 34.35133 34.35138 l 6.1127,2.03025 c 11.562,3.84029 25.0471,4.44561 35.9983,1.61587 z m -1378.562,38.78148 c -19.9504,-6.54645 -22.3197,-13.40207 -23.2849,-67.37838 -0.8119,-45.4041 -0.9214,-46.07199 -8.6626,-52.8688 -9.9431,-8.73019 -34.8162,-6.20224 -49.5503,5.03593 l -3.8493,2.93606 v 51.81408 c 0,64.24676 2.3902,57.97567 -22.0967,57.97567 -16.5194,0 -17.3577,-0.11452 -19.7922,-2.70615 l -2.5423,-2.70617 V 402.77556 280.57663 l 2.7062,-2.54233 c 2.5237,-2.37077 3.8587,-2.54228 19.7922,-2.54228 24.229,0 21.9328,-5.74946 21.9328,54.91719 0,26.81557 0.2836,49.03932 0.6305,49.38607 0.3467,0.34675 4.6874,-1.41089 9.6463,-3.90588 26.9651,-13.56767 60.2738,-11.38115 78.1889,5.13262 14.7259,13.5737 17.9354,28.41173 17.9354,82.91875 0,36.58993 -0.1318,36.04572 8.6808,36.04572 9.7056,0 11.0034,1.68289 11.9377,15.4786 l 0.7709,11.38622 -6.8945,3.1613 c -7.3186,3.35557 -28.777,5.08173 -35.5489,2.85963 z m 105.2694,-0.73401 c -49.2254,-11.12965 -74.6485,-72.44401 -50.8746,-122.69768 28.6014,-60.45875 127.4877,-55.70899 148.1895,7.11792 23.0056,69.8182 -28.6044,131.11484 -97.3149,115.57976 z m 37.3523,-37.73524 c 29.6498,-14.95738 27.2515,-79.6393 -3.3163,-89.45029 -28.3743,-9.10694 -48.6593,10.08753 -48.5347,45.92563 0.1294,36.98292 24.412,57.36683 51.851,43.52466 z m 130.9885,37.77413 c -17.3619,-4.97705 -27.8819,-14.72539 -34.1085,-31.606 -2.4384,-6.61052 -2.6252,-9.44503 -3.2397,-49.10818 -0.753,-48.60438 0.1749,-45.0158 -11.6476,-45.0158 -12.6172,0 -12.9741,-0.48824 -12.9741,-17.7418 0,-16.56383 0.3232,-17.00751 12.7494,-17.51147 11.7228,-0.47544 11.4858,-0.0488 11.7081,-21.09125 0.2253,-21.21923 -1.6206,-18.93599 17.182,-21.26494 27.541,-3.41136 26.1767,-4.51728 26.1767,21.21658 0,22.82651 -2.6681,20.68834 26.088,20.90771 29.2207,0.2228 27.697,-0.72987 27.697,17.31965 0,18.73034 1.9811,17.45678 -28.2575,18.16552 l -24.943,0.58462 v 35.07725 c 0,38.29102 0.3529,40.8378 6.6506,48.01082 6.1975,7.05823 19.138,8.37257 33.1037,3.36216 4.5015,-1.61501 9.0281,-3.22107 10.0593,-3.56905 6.3605,-2.14656 13.8027,25.26154 8.4876,31.25858 -8.3207,9.38819 -47.2724,16.01067 -64.732,11.0056 z m 129.2012,0.062 c -75.4434,-17.31931 -82.0061,-135.58529 -8.8962,-160.32007 71.3539,-24.14077 129.2313,35.41871 105.9709,109.05091 -12.3199,38.99924 -54.1919,61.11363 -97.0747,51.26916 z m 36.7977,-37.83625 c 27.4343,-13.83974 28.0138,-73.73373 0.8474,-87.56595 -28.8606,-14.69494 -55.5584,9.41529 -52.9742,47.84011 2.331,34.66409 26.161,52.82484 52.1268,39.72584 z m 137.9159,37.80848 c -34.201,-7.12561 -56.3518,-26.07275 -64.2844,-54.98726 -3.1388,-11.44168 -4.2993,-10.44345 19.0443,-16.38425 21.0763,-5.36376 22.2164,-5.14685 25.7215,4.8931 13.2676,38.00097 89.7611,39.64604 89.7611,1.93044 0,-16.1759 -10.6591,-23.85559 -53.8816,-38.82039 -55.7881,-19.31547 -73.7299,-36.82278 -73.877,-72.08871 -0.1677,-40.02996 27.6165,-65.87286 76.1886,-70.86651 50.3236,-5.1737 89.6172,21.46527 91.5957,62.09719 l 0.3132,6.43084 -18.0535,4.44682 c -21.3862,5.26774 -22.2257,5.05375 -25.8261,-6.5831 -5.6012,-18.10306 -18.4464,-26.83698 -39.721,-27.00805 -23.5434,-0.18926 -37.7499,9.48446 -37.7499,25.70525 0,15.55199 10.187,23.0389 50.0268,36.76685 60.7074,20.91855 79.5847,40.01748 77.4267,78.33485 -1.7776,31.55796 -22.7559,55.01485 -57.5497,64.34898 -12.0824,3.24137 -47.0731,4.29698 -59.1347,1.78398 z m 181.3205,-0.0342 c -17.3617,-4.97704 -27.8819,-14.72538 -34.1083,-31.606 -2.4384,-6.61051 -2.6252,-9.44502 -3.2397,-49.10816 -0.7532,-48.60441 0.1749,-45.01582 -11.6478,-45.01582 -12.6169,0 -12.9739,-0.48824 -12.9739,-17.74179 0,-16.81883 0.4643,-17.43764 13.4324,-17.89869 11.2796,-0.40101 10.4402,1.17425 11.1217,-20.86883 l 0.5846,-18.90682 14.6156,-1.95737 c 29.259,-3.91846 28.0617,-4.8104 28.0617,20.90647 0,23.23667 -2.4629,21.23724 26.1597,21.23724 29.1885,0 27.6253,-0.96552 27.6253,17.06427 0,18.73036 1.9813,17.45676 -28.2576,18.16552 l -24.9427,0.58462 v 35.07725 c 0,39.40528 0.5726,42.85243 8.2354,49.58065 6.9784,6.12712 20.653,6.40995 34.8633,0.72113 l 8.0214,-3.21125 3.0864,2.29679 c 4.0406,3.00702 7.3002,26.17226 4.1692,29.63174 -8.5629,9.462 -47.3026,16.06682 -64.8067,11.04905 z m 107.5705,-0.1435 c -31.303,-8.30875 -45.5322,-37.64696 -32.2891,-66.57415 10.3242,-22.55058 44.3765,-33.53113 87.5356,-28.22674 l 7.8925,0.97 v -8.61464 c 0,-26.78285 -29.3857,-34.21441 -65.5979,-16.58953 -16.3235,7.94484 -17.2505,7.29865 -20.2946,-14.15157 l -1.6595,-11.69242 3.6714,-3.20382 c 26.1451,-22.81514 92.5423,-21.83152 113.6847,1.68414 12.3107,13.69254 13.5756,19.78784 14.4709,69.73322 l 0.7407,41.321 2.7532,2.22753 c 2.0617,1.66799 3.8314,2.05512 7.0457,1.54117 7.2417,-1.15803 9.3061,1.6054 10.5662,14.14414 1.2577,12.51397 0.8379,13.28308 -9.0158,16.51764 -16.7336,5.49293 -37.7773,2.55469 -46.3529,-6.472 -4.2432,-4.4663 -3.8281,-4.48055 -13.9415,0.47842 -17.0266,8.34883 -42.5581,11.32744 -59.2096,6.90761 z m 53.2065,-39.67709 9.3478,-4.64713 0.3433,-7.78457 0.3433,-7.78458 -5.9547,-1.27705 c -23.3103,-4.99917 -49.1016,2.11605 -49.1016,13.54599 0,13.5498 24.9082,17.94665 45.0219,7.94734 z m 311.8105,39.37712 c -17.4809,-6.21414 -19.2501,-11.70429 -20.2177,-62.73213 -0.8567,-45.19776 -1.5507,-50.02136 -8.1455,-56.61621 -8.5302,-8.53013 -25.012,-7.0553 -41.4203,3.70635 l -5.8462,3.83437 -0.3045,52.53716 c -0.3735,64.41683 2.1509,57.92354 -22.5183,57.92354 -24.0054,0 -21.4792,6.3691 -22.1931,-55.95225 -0.6569,-57.33855 -0.8944,-58.89017 -9.8697,-64.43717 -10.1019,-6.24343 -30.5365,-2.53674 -42.7717,7.75851 l -3.4822,2.93002 v 52.30814 52.30814 l -2.7061,2.5423 c -4.2758,4.01683 -35.3774,3.88677 -39.1827,-0.16386 l -2.5423,-2.70617 v -74.33429 c 0,-88.75988 -2.2589,-79.18021 18.7079,-79.33904 24.8409,-0.1883 23.3822,-0.39286 23.4025,3.28413 0.034,6.16849 1.5194,6.8303 7.4837,3.33506 27.1982,-15.93922 62.5334,-14.15633 80.267,4.04999 l 5.8623,6.0187 7.8468,-5.23726 c 36.3369,-24.25317 76.7147,-20.14878 92.3502,9.38734 7.3809,13.9424 7.6094,15.63265 8.3542,61.77778 0.7714,47.77311 0.4191,46.06961 9.5289,46.06961 9.4119,0 11.4113,2.75829 11.8452,16.34189 l 0.3539,11.08027 -7.0156,2.87837 c -9.6927,3.9768 -28.6299,4.70183 -37.7867,1.44669 z m -1555.709,-3.48508 c -3.1515,-3.48249 -2.9539,-233.93344 0.2036,-236.79053 2.5881,-2.3421 68.074,-2.85159 87.5392,-0.68109 58.1218,6.48095 85.0945,34.25078 85.0945,87.6084 0,60.07388 -33.0942,88.87815 -104.6172,91.05573 l -23.9696,0.72977 -0.5845,27.64966 c -0.7482,35.38031 1.2725,32.56631 -23.3848,32.56631 -16.2878,0 -18.5625,-0.23983 -20.2808,-2.13825 z m 91.3411,-100.74098 c 25.5711,-6.93619 36.1732,-22.43811 35.1234,-51.35579 -1.2232,-33.69941 -19.4628,-47.0547 -64.6613,-47.34609 l -17.5532,-0.11308 -0.3052,49.69279 c -0.1677,27.33102 -0.024,50.42473 0.3189,51.31935 1.0421,2.7156 34.7691,1.14159 47.0774,-2.19709 z"
       id="path519" /></g></svg>
