<?xml version="1.0" encoding="UTF-8" standalone="no"?>
<!-- Created with Inkscape (http://www.inkscape.org/) -->

<svg
   width="800px"
   height="800px"
   viewBox="0 0 800 800"
   version="1.1"
   id="SVGRoot"
   sodipodi:docname="Imagotipo vertical original.svg"
   xml:space="preserve"
   inkscape:version="1.2.2 (732a01da63, 2022-12-09)"
   xmlns:inkscape="http://www.inkscape.org/namespaces/inkscape"
   xmlns:sodipodi="http://sodipodi.sourceforge.net/DTD/sodipodi-0.dtd"
   xmlns="http://www.w3.org/2000/svg"
   xmlns:svg="http://www.w3.org/2000/svg"><sodipodi:namedview
     id="namedview42"
     pagecolor="#505050"
     bordercolor="#eeeeee"
     borderopacity="1"
     inkscape:showpageshadow="0"
     inkscape:pageopacity="0"
     inkscape:pagecheckerboard="0"
     inkscape:deskcolor="#505050"
     inkscape:document-units="px"
     showgrid="false"
     inkscape:zoom="0.35974058"
     inkscape:cx="-397.50867"
     inkscape:cy="325.23437"
     inkscape:window-width="1920"
     inkscape:window-height="1017"
     inkscape:window-x="-8"
     inkscape:window-y="-8"
     inkscape:window-maximized="1"
     inkscape:current-layer="g449" /><defs
     id="defs37" /><g
     inkscape:label="Capa 1"
     inkscape:groupmode="layer"
     id="layer1"><g
       id="g449"
       transform="translate(-23.621625,-108.14777)"><path
         style="fill:#16578d;stroke-width:0.662117;fill-opacity:1"
         d="m 277.84447,674.48108 c -24.1463,-3.51426 -36.98441,-13.28817 -57.75767,-43.97221 -4.56101,-6.73704 -11.22032,-16.56948 -14.79844,-21.84987 -17.04089,-25.1479 -20.26966,-49.31106 -9.84397,-73.66916 7.1632,-16.73575 13.12251,-22.54275 45.94262,-44.76853 9.28619,-6.2886 25.22667,-17.10821 35.42327,-24.04357 10.19661,-6.93536 26.73299,-18.18282 36.74751,-24.99437 10.01452,-6.81154 33.25484,-22.61149 51.64514,-35.111 18.39031,-12.49949 37.45929,-25.46575 42.37551,-28.81389 22.24885,-15.15236 38.94058,-26.51251 49.32773,-33.57173 6.1908,-4.20734 23.62104,-16.06026 38.73386,-26.33983 15.11283,-10.27957 31.20228,-21.21263 35.75433,-24.29568 4.55206,-3.08305 12.74576,-8.64995 18.20823,-12.3709 5.46247,-3.72094 23.93404,-16.29001 41.04796,-27.93125 17.11387,-11.64124 35.14002,-23.91023 40.05809,-27.2644 24.1504,-16.47093 31.1109,-19.27529 49.33105,-19.87529 20.29727,-0.66842 36.57357,5.18999 51.06354,18.37951 10.80641,9.83656 43.31194,58.69203 47.12374,70.82649 10.40028,33.10821 -1.48704,63.61273 -33.15684,85.08502 -5.36878,3.64002 -17.87657,12.13904 -27.79522,18.88671 -9.91858,6.74766 -30.69682,20.87837 -46.17381,31.40158 -15.47699,10.5232 -30.82155,20.96792 -34.09903,23.21047 -3.27748,2.24255 -18.47308,12.5794 -33.76798,22.97077 -15.29491,10.39137 -32.87413,22.33969 -39.06492,26.55181 -6.1908,4.21212 -14.68245,9.98388 -18.87034,12.82614 -18.39628,12.48526 -109.21489,74.26454 -138.05145,93.90937 -3.27748,2.23277 -10.13039,6.89383 -15.2287,10.3579 -20.55528,13.96643 -26.62647,18.09352 -45.43168,30.8837 -33.9923,23.11952 -45.29047,26.99542 -68.74253,23.58221 z m 18.45499,-18.18878 c 9.89634,-1.60568 15.65759,-4.34509 30.68205,-14.58895 6.27312,-4.27709 19.59938,-13.33221 29.6139,-20.12249 10.01452,-6.79027 24.31626,-16.50385 31.78163,-21.58571 7.46537,-5.08187 22.00342,-14.9694 32.30677,-21.9723 10.30336,-7.00289 26.61284,-18.09568 36.24329,-24.65064 9.63046,-6.55497 21.24053,-14.45071 25.80016,-17.54611 13.97818,-9.48936 58.20731,-39.58993 71.51015,-48.66694 6.91912,-4.72117 17.863,-12.16439 24.3197,-16.54049 22.47755,-15.2343 47.27736,-32.0918 60.76237,-41.30281 7.46537,-5.09925 17.85624,-12.16521 23.09087,-15.70214 5.23463,-3.53693 20.87715,-14.17513 34.76116,-23.64044 13.884,-9.46532 29.71297,-20.20645 35.17544,-23.8692 34.45446,-23.10272 40.32016,-50.99297 17.77268,-84.5058 -30.03907,-44.64775 -30.99986,-45.79464 -43.59525,-52.03953 -22.08843,-10.9516 -37.09486,-8.04228 -68.19808,13.22169 -8.73995,5.97512 -26.55918,18.11618 -39.59839,26.98012 -13.03914,8.86394 -27.85388,18.9468 -32.92167,22.40637 -5.06779,3.45956 -12.9565,8.82271 -17.53047,11.91811 -4.57398,3.0954 -11.57315,7.86264 -15.55371,10.59388 -3.98057,2.73123 -11.42851,7.79643 -16.55098,11.25599 -5.12247,3.45956 -13.02054,8.82271 -17.55126,11.91811 -4.53073,3.0954 -20.08211,13.67272 -34.55862,23.50517 -14.47652,9.83244 -30.05333,20.42036 -34.61515,23.52872 -4.56181,3.10835 -21.85106,14.87025 -38.42054,26.13756 -16.56949,11.2673 -34.59563,23.52762 -40.0581,27.24516 -5.46246,3.71753 -17.8275,12.11944 -27.47786,18.6709 -30.65767,20.81298 -42.96445,29.18739 -59.01249,40.15632 -8.60409,5.88095 -20.07527,13.64879 -25.49151,17.26187 -35.30375,23.55054 -40.46265,51.53947 -16.06353,87.15052 3.41871,4.98967 10.08921,14.79864 14.82334,21.79772 18.55499,27.43219 35.15272,36.78221 58.5541,32.98534 z m -16.59574,-14.56787 c -7.80073,-1.15975 -14.29589,-4.40283 -20.27402,-10.12296 -3.7132,-3.55294 -3.74933,-3.42526 3.27599,-11.57447 16.635,-19.2962 16.96113,-19.557 20.95461,-16.75685 7.07118,4.95818 27.24902,-1.22855 27.24902,-8.35482 0,-3.58357 -3.64072,-3.35001 -19.01487,1.21986 -34.86101,10.3622 -53.15492,6.13761 -63.32251,-14.623 -20.31754,-41.48519 45.26114,-88.78445 77.87645,-56.16914 4.00815,4.00816 4.57803,2.73526 -7.48476,16.71849 -11.34997,13.15693 -11.37317,13.17004 -17.08525,9.65535 -7.135,-4.3902 -18.01603,-1.67433 -21.68016,5.4113 -3.32724,6.43417 3.67795,6.73577 23.00513,0.99046 36.13567,-10.74188 57.48112,-2.32886 61.58942,24.27465 4.40204,28.50559 -34.41757,63.89113 -65.08905,59.33113 z m 111.4635,-71.63376 c -1.40169,-1.91187 -11.446,-16.58604 -22.32069,-32.60928 -27.13561,-39.98275 -24.7804,-37.00192 -27.55605,-34.87591 -9.27497,7.10417 -23.71337,16.04249 -25.2792,15.6495 -2.37128,-0.59516 -15.69584,-19.97372 -15.69584,-22.82725 0,-2.36675 -0.75472,-1.79783 30.4574,-22.95942 12.92784,-8.76498 29.90892,-20.29264 37.73574,-25.61701 18.53219,-12.60695 16.09593,-12.90903 27.02653,3.35106 7.70512,11.46194 8.32896,9.9563 -9.00153,21.72527 -13.14753,8.92838 -12.75836,6.73875 -3.57861,20.13441 4.25672,6.21167 10.27208,15.03446 13.36748,19.6062 3.09539,4.57174 10.59104,15.60898 16.657,24.52719 13.65482,20.07543 13.94675,17.08542 -2.78703,28.54579 -15.09661,10.33913 -15.32079,10.40216 -19.0252,5.34945 z m 48.34025,-29.13316 c -0.37228,-0.45521 -1.4657,-5.74387 -2.42983,-11.75259 -0.96412,-6.00871 -2.61418,-16.28808 -3.6668,-22.84304 -1.05261,-6.55496 -2.84051,-17.72819 -3.97311,-24.8294 -1.1326,-7.10121 -2.63845,-16.48672 -3.34634,-20.8567 -8.34918,-51.54182 -8.01349,-47.43559 -4.1119,-50.29806 4.11693,-3.02047 4.67853,-2.9635 11.72375,1.18921 3.29334,1.94121 15.20137,8.86861 26.4623,15.39423 82.28778,47.68508 80.41821,46.50697 78.69362,49.58865 -0.85873,1.53447 -24.77853,17.5629 -26.20975,17.5629 -0.70201,0 -2.95411,-1.00541 -5.00466,-2.23425 -2.05054,-1.22883 -4.35574,-2.55713 -5.12267,-2.95179 -1.28059,-0.65898 -22.82112,12.98221 -33.48111,21.20293 l -2.10516,1.62345 0.77871,4.71525 c 1.46123,8.84809 2.36397,7.53172 -11.63599,16.96752 -12.29216,8.28476 -14.95758,9.4946 -16.57106,7.52169 z m 28.32364,-64.92732 c 6.14208,-4.28216 6.20244,-3.9562 -1.60034,-8.64109 -8.21659,-4.93333 -8.2242,-4.91527 -5.05189,11.9915 0.13942,0.74304 2.45003,-0.4207 6.65223,-3.35041 z m 79.3018,-8.23665 c -0.56079,-0.63728 -4.72428,-6.96878 -9.25219,-14.06999 -12.58176,-19.73222 -39.6702,-62.01111 -47.01636,-73.38183 -7.5309,-11.65669 -7.49489,-11.37657 -1.95923,-15.23804 l 4.17957,-2.91551 11.70601,3.13715 c 6.43831,1.72542 13.64271,3.67606 16.00978,4.33476 11.18871,3.11353 44.2694,11.92344 46.17248,12.29646 2.78733,0.54634 2.32291,2.77061 5.82171,-27.88164 1.6627,-14.56658 3.60141,-31.54989 4.30829,-37.74069 0.70687,-6.1908 1.28894,-11.47708 1.29344,-11.74731 0.0132,-0.77443 9.11338,-6.62611 9.89799,-6.36458 0.69543,0.23181 2.79732,3.08525 22.85238,31.02318 5.62032,7.82953 18.26934,25.40875 28.10887,39.06492 10.94056,15.18426 17.89994,25.43131 17.9155,26.3789 0.0331,2.0213 -1.37965,3.19365 -14.87115,12.33955 -12.63029,8.5621 -12.2691,8.42394 -14.32047,5.47788 -9.83933,-14.13075 -23.39525,-32.28687 -23.96461,-32.09708 -0.41435,0.1381 -1.92259,8.70851 -3.52392,20.02418 -3.38004,23.88399 -3.64939,24.33818 -12.99955,21.91789 -2.26649,-0.58668 -10.37789,-2.69061 -18.02534,-4.67539 -16.91076,-4.38894 -16.32077,-5.05292 -7.61453,8.56933 15.61635,24.43422 15.43234,24.11752 14.5994,25.12111 -1.77762,2.14192 -25.24786,17.58546 -26.72538,17.58546 -0.86519,0 -2.0319,-0.52142 -2.59269,-1.15871 z m 128.72604,-87.39948 c -1.19844,-1.0302 -62.61226,-90.94214 -64.40302,-94.28819 -1.05231,-1.96635 -0.2579,-4.1377 2.1977,-6.00696 55.15959,-41.98818 82.99878,-45.47862 104.50355,-13.10256 16.55393,24.92239 9.86065,50.50936 -18.4195,70.41381 -6.55708,4.61509 -6.62561,2.77744 0.49658,13.31845 8.36585,12.3816 9.07942,10.5209 -8.66122,22.5842 -12.63061,8.5886 -13.50322,8.9818 -15.71409,7.08125 z m 8.54614,-70.87845 c 11.72855,-10.75405 1.89452,-32.46444 -13.23546,-29.21964 -4.02031,0.86221 -13.6067,6.83436 -13.09807,8.15989 0.42455,1.10637 13.95048,21.09222 16.51692,24.40535 l 1.92576,2.48605 2.0325,-1.16182 c 1.11786,-0.639 3.75414,-2.74042 5.85835,-4.66983 z m -511.7399,298.48828 c -22.6423,-15.90107 -29.81736,-32.17632 -33.57147,-76.1505 -0.20208,-2.36707 -0.95605,-11.0077 -1.67549,-19.2014 -0.71944,-8.1937 -1.9041,-21.75055 -2.63258,-30.12634 -0.72848,-8.37578 -1.6238,-18.3572 -1.98959,-22.18093 -0.36579,-3.82372 -1.41038,-15.74183 -2.3213,-26.48469 -0.91093,-10.74285 -1.94578,-22.80994 -2.29966,-26.81575 -0.35389,-4.00581 -0.95538,-10.85872 -1.33664,-15.2287 -0.38127,-4.36997 -1.14413,-13.0106 -1.69525,-19.2014 -0.55112,-6.1908 -1.72525,-19.59867 -2.60917,-29.79528 -3.05961,-35.29475 -4.90092,-56.34994 -6.31146,-72.17079 -3.06965,-34.42985 5.1712,-57.22634 26.94082,-74.52587 16.94041,-13.46191 24.03928,-15.41328 69.75257,-19.17393 8.92203,-0.73397 17.41368,-1.48729 18.87034,-1.67402 1.45666,-0.18674 11.2891,-1.06656 21.84987,-1.95516 10.56077,-0.8886 26.20329,-2.22829 34.76115,-2.97709 31.16392,-2.72677 75.42878,-6.60703 86.73736,-7.60341 6.37288,-0.5615 18.43997,-1.61128 26.81575,-2.33285 8.37579,-0.72156 20.2939,-1.75909 26.48469,-2.3056 6.1908,-0.54652 21.68434,-1.88974 34.4301,-2.98493 12.74576,-1.09521 26.15363,-2.29082 29.79528,-2.65692 3.64164,-0.36611 10.49455,-0.98225 15.22869,-1.36921 12.8864,-1.0533 15.20721,-1.24729 23.50516,-1.96481 4.1879,-0.36212 9.40207,-0.799 11.58706,-0.97083 2.18498,-0.17184 12.61333,-1.08458 23.1741,-2.02831 51.91257,-4.63903 77.64437,6.70361 94.39302,41.60874 3.46519,7.22169 3.5714,7.10177 -6.28773,7.10177 -11.1768,0 -11.6471,-0.1378 -13.45263,-3.94171 -4.49227,-9.4643 -17.75812,-20.42018 -29.77746,-24.59223 -10.44868,-3.62686 -16.08495,-3.91037 -38.11524,-1.91729 -8.08796,0.73172 -19.91954,1.78523 -26.29242,2.34115 -17.96921,1.56746 -32.07723,2.80077 -48.66562,4.25433 -16.54057,1.44936 -21.09697,1.84975 -48.99667,4.30556 -10.19661,0.89753 -32.54307,2.83564 -49.6588,4.30689 -17.11573,1.47125 -36.03573,3.11919 -42.04444,3.6621 -13.82047,1.2487 -20.75806,1.85993 -48.99668,4.31674 -12.56367,1.09307 -29.54698,2.57811 -37.74068,3.3001 -25.84287,2.27717 -60.25515,5.26461 -69.19125,6.00672 -32.38686,2.6896 -45.04449,8.47056 -57.2708,26.15654 -11.07711,16.02359 -11.37931,20.0514 -5.98186,79.72622 0.70817,7.82954 2.34559,26.60057 3.63872,41.7134 1.29313,15.11282 2.648,30.45739 3.01082,34.09904 0.36283,3.64164 1.40266,15.41078 2.31077,26.15363 1.61802,19.14151 3.00635,35.06148 5.65857,64.8875 1.48064,16.65084 3.07932,35.09226 5.59635,64.55643 2.54633,29.80721 5.40739,38.703 16.05615,49.92266 l 4.13823,4.36009 -0.0101,10.59931 c -0.0127,13.29977 0.11082,13.10945 -5.81054,8.95103 z"
         id="path438" /><path
         style="fill:#c52c2e;stroke-width:0.662117;fill-opacity:1"
         d="m 470.32126,602.69058 c -7.97404,-0.91631 -17.45289,-2.62428 -24.34002,-4.38576 -11.856,-3.03233 -12.31301,-3.36669 -8.31903,-6.0863 l 2.26579,-1.54285 4.84744,1.32825 c 91.94104,25.19286 184.19468,-36.50342 196.86827,-131.6592 0.94715,-7.11147 2.44877,-9.93176 5.28793,-9.93176 3.66866,0 -1.61504,29.26523 -8.7136,48.2626 -25.20097,67.44372 -97.32331,112.1248 -167.89678,104.01502 z M 136.27428,556.39671 c -17.25744,-9.51462 -29.83683,-25.20445 -35.8709,-44.74049 -0.745076,-2.41229 -6.424506,-33.19383 -12.620966,-68.40343 -6.19644,-35.20959 -11.70955,-66.40106 -12.25136,-69.31437 -0.5418,-2.91332 -1.89874,-10.51112 -3.01542,-16.884 -1.11667,-6.37288 -2.63401,-15.01351 -3.37186,-19.2014 -0.73785,-4.18789 -2.04301,-11.63671 -2.90037,-16.55293 -2.40245,-13.77605 -7.38048,-41.92549 -10.01124,-56.61103 -9.65313,-53.88588 15.12809,-87.24162 72.263856,-97.26778 9.46827,-1.66149 18.85379,-3.32995 20.85669,-3.70769 2.00291,-0.37774 15.55976,-2.76242 30.12634,-5.29929 14.56658,-2.53687 29.76217,-5.21611 33.76798,-5.95387 4.0058,-0.73775 12.49746,-2.23594 18.87034,-3.3293 6.37288,-1.09336 14.71555,-2.56867 18.53928,-3.27847 3.82373,-0.70979 12.31538,-2.20974 18.87034,-3.3332 6.55496,-1.12346 15.04662,-2.60865 18.87034,-3.30042 3.82373,-0.69177 11.42153,-2.03535 16.88399,-2.98573 5.46247,-0.95038 15.59286,-2.73672 22.51199,-3.96964 6.91913,-1.23291 26.43503,-4.6604 43.36868,-7.61663 16.93365,-2.95623 35.70467,-6.25417 41.71339,-7.32875 6.00871,-1.07458 15.99013,-2.85115 22.18092,-3.94794 6.1908,-1.09678 14.68245,-2.65719 18.87035,-3.46756 34.85643,-6.7449 67.25886,6.26591 83.73145,33.62135 2.96391,4.92207 2.90082,4.97331 -7.02892,5.70795 -4.49537,0.33259 -8.69776,0.76905 -9.33863,0.96991 -0.80759,0.25311 -1.92533,-0.5085 -3.64165,-2.48135 -16.55403,-19.02837 -34.43693,-24.15279 -64.71543,-18.54447 -6.55496,1.21415 -16.68535,3.05131 -22.51199,4.08259 -26.40279,4.67315 -34.97689,6.18162 -52.63832,9.26085 -10.37869,1.8095 -20.50908,3.59866 -22.51198,3.97593 -2.00291,0.37727 -12.1333,2.16881 -22.51199,3.98121 -10.37869,1.8124 -23.93554,4.19458 -30.12634,5.29371 -13.41745,2.38219 -45.1365,7.97647 -56.27996,9.92609 -4.36998,0.76455 -15.5432,2.73749 -24.8294,4.3843 -9.28619,1.64682 -20.90635,3.69498 -25.82257,4.5515 -4.91622,0.85651 -12.43953,2.17721 -16.71846,2.93489 -4.27893,0.75769 -11.28082,1.9778 -15.55976,2.71136 -4.27893,0.73355 -10.1635,1.77609 -13.07681,2.31675 -2.91332,0.54065 -12.04372,2.18027 -20.28979,3.6436 -27.05944,4.80192 -39.031796,11.72453 -49.220786,28.46024 -10.8253,17.78087 -10.66143,23.71387 2.64259,95.67595 1.11286,6.01952 6.62484,37.24718 11.51168,65.21856 1.81325,10.37869 5.559436,31.68231 8.324856,47.34139 2.76542,15.65907 6.08035,34.4301 7.36652,41.71339 9.00428,50.98946 10.06731,54.01381 23.49408,66.84167 l 5.45347,5.21022 0.8679,8.99803 c 1.39066,14.41778 1.59323,13.9045 -4.22213,10.6983 z M 324.72456,429.5774 c -1.89278,-1.89278 6.05771,-40.27837 8.5398,-41.23084 1.24371,-0.47726 4.49724,1.47927 4.35166,2.61688 -0.06,0.46868 -1.1952,4.97154 -2.52272,10.00636 -1.32751,5.03482 -2.96386,12.92154 -3.63632,17.52604 -1.30739,8.95209 -4.16246,13.65153 -6.73242,11.08156 z m 11.50008,-45.71549 c -8.47269,-4.15434 -15.56821,-7.97895 -15.76781,-8.49912 -0.47627,-1.24112 6.40736,-14.93266 8.98176,-17.86474 10.33439,-11.77022 29.48758,0.76396 23.84657,15.60561 -1.84964,4.86646 -1.71839,5.57281 1.3239,7.12487 3.17548,1.62001 3.22744,2.20141 0.65258,7.30217 -2.4881,4.9289 -0.86376,5.24194 -19.037,-3.66879 z m 7.37539,-12.31988 c 1.93636,-5.50602 -4.74667,-9.58564 -8.46457,-5.16716 -2.33033,2.76944 -2.25441,2.95849 2.09302,5.21215 4.44848,2.30605 5.54746,2.29829 6.37155,-0.045 z m 10.8392,-22.81627 c -14.46695,-12.83541 -13.77917,-11.62031 -9.43365,-16.66626 3.04323,-3.53378 2.45889,-3.65788 8.81717,1.87255 6.26673,5.45077 6.17037,5.44768 10.62057,0.34184 4.20394,-4.8233 4.38876,-3.88576 -1.88885,-9.58174 -6.15348,-5.58335 -6.14526,-5.55247 -2.56382,-9.6212 3.51791,-3.99655 2.54767,-4.46292 17.09179,8.21549 14.69401,12.80906 13.90535,11.62304 10.53974,15.85006 -3.26219,4.09715 -3.82746,4.12272 -8.21794,0.37182 -4.43839,-3.79183 -4.71432,-3.76235 -8.80507,0.94089 -4.19494,4.82302 -4.20137,4.58959 0.23176,8.41688 4.35992,3.76408 4.39998,4.11929 0.93152,8.26197 -3.5679,4.26147 -2.42481,4.8159 -17.32322,-8.4023 z m 40.89004,-22.71199 c -13.83194,-3.61713 -19.88606,-22.30031 -10.32454,-31.86183 12.98226,-12.98226 31.55701,-6.80913 34.17843,11.35888 1.65947,11.50111 -12.3221,23.51858 -23.85389,20.50295 z m 9.60765,-11.11322 c 4.28371,-2.53046 4.36929,-7.56497 0.23083,-13.58077 -3.46346,-5.03461 -8.76676,-5.5079 -12.46528,-1.11244 -5.53402,6.5768 4.85425,19.0528 12.23445,14.69321 z m 31.28242,-7.00834 c -0.35992,-0.4552 -2.37028,-6.04182 -4.46748,-12.4147 -4.57263,-13.89516 -3.91036,-13.06033 -8.99779,-11.34227 -4.80531,1.62278 -5.33657,1.39211 -6.81984,-2.96106 -1.47933,-4.34158 -1.58915,-4.26841 14.0114,-9.33629 16.35565,-5.31317 15.4416,-5.28652 16.95224,-0.49424 1.37931,4.37568 1.2948,4.53921 -3.0763,5.95302 -5.58801,1.80742 -5.53934,1.15932 -1.11663,14.87026 4.56524,14.15277 4.60711,13.33347 -0.7743,15.1508 -4.87373,1.64588 -4.86487,1.64499 -5.7113,0.57448 z m 32.15507,-7.33857 c -10.38097,-2.93165 -15.95455,-16.9052 -11.17472,-28.01622 6.27385,-14.58395 31.55544,-13.21337 35.89046,1.94571 4.79439,16.76541 -8.39637,30.67921 -24.71574,26.07051 z m 10.73794,-10.86965 c 3.21836,-2.8832 3.77812,-6.90105 1.84649,-13.25386 -1.87741,-6.17447 -11.3968,-5.25798 -13.15363,1.26638 -2.48615,9.2329 5.23941,17.42331 11.30714,11.98748 z m 41.75002,-1.20496 c -3.42553,-0.85709 -9.23561,-1.91371 -12.91129,-2.34804 -9.0814,-1.07306 -9.7977,-1.37801 -9.53903,-4.06093 0.3307,-3.43 8.45867,-2.97364 27.02326,1.51729 10.42353,2.52154 10.8877,2.79916 8.27646,4.95029 -2.46113,2.02749 -4.55012,2.01796 -12.8494,-0.0586 z"
         id="path436" /><path
         style="fill:#2e3f46;stroke-width:0.662117;fill-opacity:1"
         d="m 244.0058,685.40277 c -33.1462,-4.3176 -59.96791,-31.6183 -64.51053,-65.66259 -1.45105,-10.87477 -1.49238,-351.26394 -0.0438,-360.12311 5.39386,-32.98601 28.32563,-57.11421 60.61123,-63.77355 7.55287,-1.55787 481.39069,-1.54942 490.3259,0.009 32.47447,5.66308 57.04908,31.68166 61.5769,65.19515 1.48454,10.98842 1.41952,348.25627 -0.0693,359.01034 -4.49134,32.44306 -26.35008,56.01876 -59.88042,64.58397 -4.79089,1.22386 -478.78261,1.96298 -488.01009,0.76104 z m 56.05738,-8.23171 c 7.72514,-1.32728 14.66597,-3.66171 21.1416,-7.11081 l 5.2643,-2.80387 199.9594,-0.33315 199.95941,-0.33315 4.96588,-1.51469 c 18.7466,-5.7181 33.25934,-19.29291 39.07856,-36.55287 3.37627,-10.01425 3.29172,-6.32487 3.29443,-143.75988 V 356.56251 l 3.27351,-6.8718 c 10.28811,-21.59681 10.30307,-42.67282 0.0463,-64.80707 -3.16108,-6.82152 -3.22822,-7.10162 -3.57312,-14.89764 -1.23869,-27.99873 -19.61112,-49.95162 -46.0537,-55.0287 -2.87398,-0.55181 -6.5964,-1.86896 -8.93858,-3.16282 -21.48319,-11.86776 -47.65205,-11.95635 -70.08478,-0.23727 l -4.11108,2.14882 -199.95941,0.34895 c -225.77251,0.39401 -202.03675,-0.25854 -214.52599,5.89777 -14.06366,6.93238 -23.73025,18.05169 -28.90434,33.24818 l -2.10797,6.19119 -0.51123,19.2014 c -0.28119,10.56077 -0.51716,70.25913 -0.52439,132.66302 l -0.0131,113.46161 -2.97116,6.05056 c -10.64752,21.68293 -10.47182,44.61347 0.5092,66.45554 l 3.07246,6.11135 0.005,7.131 c 0.0173,26.55316 19.33108,50.18875 45.01933,55.09313 2.49099,0.47558 6.95319,2.16347 10.59387,4.00731 15.01416,7.60389 30.87128,10.21971 46.09595,7.60402 z m 167.76793,-16.61422 c -27.98422,-2.46912 -54.52766,-9.78705 -79.28854,-21.85958 -11.92053,-5.81202 -11.78522,-5.43208 -3.83942,-10.78054 l 6.25787,-4.21227 8.14319,3.71379 c 138.98984,63.388 294.38778,-38.24496 292.40931,-191.2408 l -0.21407,-16.55293 5.99852,-4.08851 c 7.29938,-4.9751 7.23343,-5.01037 8.26534,4.41957 14.59942,133.41421 -103.051,252.48453 -237.7322,240.60127 z m -3.31059,-17.81804 c -22.57513,-2.50979 -44.24342,-8.49198 -64.3909,-17.77706 -6.48022,-2.98645 -6.43512,-3.35 1.02603,-8.26985 7.29292,-4.80891 5.98337,-4.66794 13.77992,-1.48347 122.1647,49.89767 254.91493,-37.66856 259.36541,-171.08557 l 0.44177,-13.24235 6.18258,-4.21263 c 8.17987,-5.57349 7.72228,-6.44322 7.72009,14.67409 -0.0126,120.25903 -105.04026,214.63607 -224.1249,201.39684 z m 7.97173,-72.45232 c -2.74827,-1.73836 23.16879,-18.78922 30.14297,-19.83109 31.91723,-4.76808 63.59875,-26.22803 78.76932,-53.35559 2.80937,-5.02356 1.64642,-4.02851 16.79904,-14.37345 13.28559,-9.07029 14.01292,-9.27171 12.32108,-3.41195 -13.48567,46.70746 -56.3283,83.14649 -106.46267,90.54987 -7.85388,1.15979 -29.93674,1.45512 -31.56974,0.42221 z M 266.09852,465.14507 c -0.29933,-2.09394 -0.54423,-13.34166 -0.54423,-24.99492 0,-163.3123 168.76602,-268.9171 316.79159,-198.23129 12.63604,6.03401 12.56804,5.78826 3.28628,11.88193 l -5.2194,3.4266 -9.00712,-4.09852 c -140.28305,-63.83294 -300.41693,44.65831 -291.6814,197.61515 0.64928,11.36865 1.05183,10.33791 -5.79225,14.83118 -6.67845,4.38453 -7.14891,4.3587 -7.83347,-0.43013 z m 17.23088,-8.27606 c -2.10483,-3.40568 0.13777,-41.04782 3.38582,-56.8312 26.18981,-127.26501 163.53205,-197.90277 282.08877,-145.08369 9.24587,4.1192 9.24772,4.21202 0.20657,10.14772 l -5.288,3.47168 -3.08728,-1.1877 c -89.91917,-34.59249 -181.22404,-7.26038 -232.19121,69.50642 -20.38015,30.69659 -33.98342,77.55934 -31.25338,107.66671 0.50519,5.57124 -11.45922,16.1967 -13.86129,12.31006 z m 76.5766,-51.747 c 0,-5.014 10.27428,-27.27102 17.35758,-37.60148 24.67458,-35.98599 61.45335,-56.13374 104.58586,-57.29309 21.67935,-0.58272 21.5884,-0.77865 4.92247,10.60427 l -12.40138,8.47021 -7.1205,1.28216 c -33.94844,6.11294 -62.74707,26.34486 -78.8598,55.40141 -2.42321,4.36985 -28.48423,21.87838 -28.48423,19.13652 z"
         id="path434" /></g><path
       style="fill:#000000;stroke-width:0.488061"
       d="m 706.09837,762.48651 c -1.47995,-1.88143 -1.61138,-94.50127 -0.13666,-96.32242 0.82234,-1.01558 1.25935,-1.0806 7.28148,-1.08335 7.42327,-0.003 7.17382,-0.0912 7.89664,2.77943 0.63658,2.528 0.99301,2.64624 3.13594,1.04017 13.53213,-10.14196 35.05294,-5.88444 42.24193,8.35683 5.4657,10.82744 5.32626,29.02145 -0.30562,39.88348 -6.49575,12.52806 -22.56331,18.84115 -37.94236,14.90786 -2.09915,-0.53687 -4.00108,-0.97612 -4.22661,-0.97612 -0.22549,0 -0.40997,6.77883 -0.40997,15.06408 0,14.5009 -0.0381,15.11215 -1.01156,16.35004 l -1.01155,1.28598 h -7.25006 -7.25005 z m 35.11253,-46.07663 c 14.93736,-3.8598 15.00539,-32.98956 0.0844,-36.13664 -4.94372,-1.0427 -12.546,1.13626 -16.31999,4.67759 l -1.34216,1.25944 v 14.33882 14.33884 l 2.55148,0.84746 c 4.8262,1.603 10.45505,1.85567 15.02628,0.67449 z m -575.43479,16.18804 c -8.32759,-2.7326 -9.31655,-5.59425 -9.71949,-28.12486 -0.33891,-18.95243 -0.3846,-19.23122 -3.6159,-22.06832 -4.15043,-3.64413 -14.5329,-2.58892 -20.68311,2.10208 l -1.60679,1.22556 v 21.62806 c 0,26.81767 0.99769,24.20001 -9.22353,24.20001 -6.89542,0 -7.24536,-0.0478 -8.2616,-1.12959 l -1.0612,-1.1296 v -51.00787 -51.00787 l 1.12962,-1.06121 c 1.05338,-0.9896 1.6107,-1.06119 8.26161,-1.06119 10.1136,0 9.1551,-2.39992 9.1551,22.92335 0,11.19327 0.1184,20.46983 0.26316,20.61457 0.14476,0.14474 1.95669,-0.58893 4.02651,-1.63038 11.25571,-5.66337 25.1593,-4.75068 32.63747,2.14244 6.14674,5.66589 7.48642,11.85953 7.48642,34.61167 0,15.27325 -0.0547,15.04609 3.62356,15.04609 4.05125,0 4.593,0.70246 4.98296,6.46102 l 0.32183,4.7528 -2.87795,1.31958 c -3.05487,1.40067 -12.01197,2.1212 -14.83867,1.19366 z m 43.94122,-0.30639 c -20.54752,-4.6457 -31.15953,-30.23934 -21.23593,-51.21606 11.93875,-25.23649 53.21555,-23.25386 61.85682,2.97114 9.6029,29.14328 -11.94003,54.72952 -40.62089,48.24492 z m 15.5915,-15.75132 c 12.37626,-6.24346 11.37524,-33.24277 -1.38428,-37.33804 -11.84393,-3.80139 -20.31121,4.2107 -20.25918,19.17012 0.0536,15.43729 10.18994,23.94587 21.64346,18.16792 z m 54.67676,15.76755 c -7.24712,-2.0775 -11.6384,-6.14662 -14.23742,-13.19287 -1.01781,-2.75934 -1.09585,-3.94251 -1.35237,-20.49857 -0.31431,-20.28828 0.0733,-18.79035 -4.86192,-18.79035 -5.26652,0 -5.41553,-0.2038 -5.41553,-7.40572 0,-6.91402 0.13485,-7.09922 5.32182,-7.30958 4.8933,-0.19846 4.79437,-0.0204 4.8872,-8.80384 0.0936,-8.85726 -0.6765,-7.9042 7.17196,-8.87634 11.49614,-1.42396 10.92657,-1.88559 10.92657,8.85615 0,9.52817 -1.11366,8.63566 10.88962,8.72723 12.19716,0.093 11.56117,-0.30466 11.56117,7.22951 0,7.81836 0.82697,7.28675 -11.7952,7.58259 L 282.66993,680.07 v 14.64183 c 0,15.98331 0.14725,17.04638 2.77614,20.04052 2.58682,2.94622 7.98849,3.49485 13.81794,1.40342 1.87901,-0.67413 3.76854,-1.34453 4.19891,-1.48978 2.65501,-0.89601 5.76151,10.54459 3.54289,13.04785 -3.47319,3.91879 -19.73229,6.68312 -27.02022,4.59392 z m 53.93074,0.0259 c -31.49132,-7.22937 -34.23066,-56.59556 -3.71341,-66.92027 29.78434,-10.07676 53.94326,14.78436 44.23398,45.51967 -5.14251,16.27893 -22.62062,25.50985 -40.52057,21.4006 z m 15.36,-15.79348 c 11.45148,-5.77694 11.69343,-30.77769 0.35374,-36.55149 -12.04695,-6.13391 -23.19104,3.9301 -22.11239,19.96926 0.97309,14.46937 10.92008,22.04997 21.75865,16.58223 z m 57.56837,15.78189 c -14.2761,-2.97435 -23.52216,-10.8832 -26.83335,-22.9526 -1.31026,-4.77595 -1.79459,-4.35927 7.94941,-6.83906 8.79752,-2.23892 9.27343,-2.14838 10.73661,2.04246 5.53806,15.86224 37.46777,16.54892 37.46777,0.8058 0,-6.75209 -4.44932,-9.95772 -22.49107,-16.20428 -23.28695,-8.0626 -30.7761,-15.37044 -30.83756,-30.09103 -0.0698,-16.70917 11.52761,-27.49643 31.80237,-29.58086 21.00595,-2.15959 37.40775,8.95996 38.23365,25.9204 l 0.13072,2.68434 -7.53582,1.85618 c -8.92699,2.19884 -9.27739,2.10952 -10.7803,-2.7479 -2.33803,-7.55652 -7.69979,-11.2022 -16.58025,-11.27361 -9.82736,-0.079 -15.7574,3.95897 -15.7574,10.7298 0,6.49166 4.25224,9.61682 20.88204,15.3471 25.34027,8.73175 33.22005,16.70396 32.31917,32.69827 -0.74195,13.17282 -9.49866,22.96412 -24.02213,26.86034 -5.04345,1.353 -19.64909,1.79363 -24.68386,0.74466 z m 75.68625,-0.0143 c -7.24711,-2.0775 -11.63841,-6.14662 -14.23742,-13.19287 -1.01779,-2.75934 -1.09585,-3.94251 -1.35235,-20.49857 -0.31433,-20.28829 0.0733,-18.79035 -4.86196,-18.79035 -5.26649,0 -5.41551,-0.2038 -5.41551,-7.40572 0,-7.02046 0.19385,-7.27876 5.60694,-7.47121 4.70826,-0.16739 4.35783,0.49015 4.64234,-8.711 l 0.24403,-7.89202 6.10077,-0.81704 c 12.2132,-1.63563 11.71347,-2.00794 11.71347,8.72671 0,9.69937 -1.02803,8.86478 10.91943,8.86478 12.18387,0 11.53138,-0.40303 11.53138,7.12291 0,7.81836 0.82697,7.28674 -11.7952,7.58259 l -10.41158,0.24403 v 14.64183 c 0,16.44842 0.239,17.88732 3.43767,20.69579 2.9129,2.55756 8.62082,2.67562 14.55247,0.30101 l 3.34831,-1.34043 1.28826,0.95872 c 1.68664,1.25518 3.04721,10.92474 1.74037,12.36878 -3.57433,3.9496 -19.74495,6.70656 -27.05142,4.61206 z m 44.90163,-0.0599 c -13.06638,-3.46821 -19.00589,-15.71447 -13.47791,-27.78916 4.30943,-9.41299 18.52343,-13.99645 36.5388,-11.78231 l 3.29441,0.40489 v -3.59589 c 0,-11.17961 -12.26605,-14.28167 -27.38165,-6.92475 -6.81372,3.31631 -7.20056,3.04658 -8.47132,-5.9071 l -0.69271,-4.88061 1.53251,-1.33733 c 10.91339,-9.52342 38.62868,-9.11284 47.45394,0.70299 5.1387,5.71549 5.66669,8.25977 6.0404,29.10781 l 0.30918,17.24807 1.14924,0.92981 c 0.86055,0.69625 1.59928,0.85784 2.94091,0.64331 3.02286,-0.48338 3.88458,0.67012 4.41056,5.904 0.52501,5.22354 0.34979,5.54458 -3.76334,6.89474 -6.98484,2.29284 -15.76892,1.06637 -19.3485,-2.70152 -1.77113,-1.86431 -1.59787,-1.87026 -5.81935,0.1997 -7.10725,3.48494 -17.76455,4.72826 -24.71517,2.88335 z m 22.20937,-16.56188 3.9019,-1.93979 0.14329,-3.24941 0.1433,-3.24941 -2.4856,-0.53306 c -9.73013,-2.08674 -20.49584,0.88327 -20.49584,5.65432 0,5.65591 10.39717,7.49123 18.79295,3.31735 z m 130.15483,16.43667 c -7.29676,-2.59389 -8.0353,-4.88557 -8.43912,-26.18544 -0.35765,-18.8663 -0.64736,-20.87975 -3.40012,-23.63255 -3.56065,-3.56062 -10.44046,-2.945 -17.28952,1.54709 l -2.44031,1.60053 -0.12709,21.92989 c -0.15589,26.88866 0.89784,24.17825 -9.39952,24.17825 -10.02024,0 -8.96573,2.65857 -9.26374,-23.3554 -0.27419,-23.93407 -0.37337,-24.58174 -4.11982,-26.89715 -4.21675,-2.60611 -12.74645,-1.05888 -17.85362,3.23853 l -1.4535,1.22304 v 21.83429 21.83429 l -1.12962,1.0612 c -1.78474,1.67669 -14.76707,1.6224 -16.35551,-0.0684 l -1.06119,-1.1296 v -31.02837 c 0,-37.04986 -0.94289,-33.05114 7.80898,-33.11744 10.36905,-0.0786 9.76015,-0.16399 9.76869,1.37085 0.0141,2.57483 0.63418,2.85108 3.12374,1.39211 11.35298,-6.6533 26.10253,-5.90909 33.50481,1.69053 l 2.44704,2.51231 3.27533,-2.18612 c 15.16762,-10.12368 32.02203,-8.41044 38.54858,3.91843 3.08084,5.81979 3.17625,6.52533 3.4872,25.78708 0.32192,19.94129 0.17487,19.23022 3.97743,19.23022 3.92874,0 4.76328,1.15136 4.9444,6.82138 l 0.14769,4.62509 -2.92837,1.20148 c -4.04588,1.65998 -11.95059,1.96262 -15.77284,0.60387 z M 30.417957,730.66793 c -1.315569,-1.45365 -1.232989,-97.64772 0.08478,-98.84032 1.080275,-0.97763 28.415165,-1.1903 36.540261,-0.2843 24.260983,2.70526 35.519972,14.29685 35.519972,36.56921 0,25.07584 -13.814136,37.09922 -43.669081,38.00818 l -10.005253,0.30462 -0.244031,11.54143 c -0.312261,14.76833 0.531206,13.59372 -9.761223,13.59372 -6.79879,0 -7.748264,-0.10011 -8.465421,-0.89254 z m 38.12724,-42.05096 c 10.6738,-2.89528 15.099343,-9.36604 14.661162,-21.43676 -0.510658,-14.0667 -8.12412,-19.64142 -26.990709,-19.76305 l -7.327018,-0.0472 -0.127433,20.7426 c -0.07004,11.40842 -0.01025,21.04812 0.133143,21.42155 0.435009,1.13354 14.513133,0.47652 19.650855,-0.9171 z"
       id="path519" /></g></svg>
