<?xml version="1.0" encoding="UTF-8" standalone="no"?>
<!-- Created with Inkscape (http://www.inkscape.org/) -->

<svg
   width="346.66599"
   height="107.51068"
   viewBox="0 0 346.66599 107.51068"
   version="1.1"
   id="SVGRoot"
   sodipodi:docname="photo 2.svg"
   xml:space="preserve"
   inkscape:version="1.2.2 (732a01da63, 2022-12-09)"
   xmlns:inkscape="http://www.inkscape.org/namespaces/inkscape"
   xmlns:sodipodi="http://sodipodi.sourceforge.net/DTD/sodipodi-0.dtd"
   xmlns="http://www.w3.org/2000/svg"
   xmlns:svg="http://www.w3.org/2000/svg"><sodipodi:namedview
     id="namedview42"
     pagecolor="#505050"
     bordercolor="#eeeeee"
     borderopacity="1"
     inkscape:showpageshadow="0"
     inkscape:pageopacity="0"
     inkscape:pagecheckerboard="0"
     inkscape:deskcolor="#505050"
     inkscape:document-units="px"
     showgrid="false"
     inkscape:zoom="1.0175"
     inkscape:cx="512.03931"
     inkscape:cy="43.734644"
     inkscape:window-width="1350"
     inkscape:window-height="1040"
     inkscape:window-x="63"
     inkscape:window-y="0"
     inkscape:window-maximized="0"
     inkscape:current-layer="layer1" /><defs
     id="defs37" /><g
     inkscape:label="Capa 1"
     inkscape:groupmode="layer"
     id="layer1"
     transform="translate(-29.642334,-625.45071)"><path
       id="path13917"
       style="fill:#1a1a1a;fill-opacity:1;fill-rule:evenodd;stroke:none;stroke-width:0.347473;stroke-opacity:1"
       d="m 335.31107,732.47517 c -8.58968,-1.72288 -15.66589,-6.48565 -20.31607,-13.67408 -9.24991,-14.2989 -7.72927,-34.44862 3.45553,-45.78861 5.40595,-5.48096 12.85337,-8.74068 21.69037,-9.49384 10.52713,-0.89719 19.85427,2.40182 26.6685,9.43265 6.3843,6.58724 9.48871,14.52693 9.49888,24.29387 0.0113,10.83446 -3.15745,19.41407 -9.55093,25.85997 -4.80623,4.84563 -10.03315,7.71219 -16.78497,9.20527 -3.58659,0.79312 -11.10716,0.87764 -14.66131,0.16477 z m 13.16035,-15.4695 c 4.28884,-1.97685 7.2281,-5.90792 8.79307,-11.76012 1.00927,-3.77418 1.01015,-10.63517 0.002,-14.36814 -1.85999,-6.88647 -5.35335,-10.80768 -10.95771,-12.2999 -10.86378,-2.89259 -19.62511,6.80394 -18.87058,20.88486 0.5027,9.38124 4.42807,16.04258 10.79996,18.32748 2.80165,1.00464 7.06067,0.67828 10.23352,-0.78418 z m -65.80245,15.64331 c -6.07767,-0.85779 -11.43017,-4.13987 -14.329,-8.78636 -2.0118,-3.22468 -2.86157,-5.51086 -3.22879,-8.68664 -0.18171,-1.57142 -0.46747,-9.58071 -0.63502,-17.79844 -0.25179,-12.34954 -0.39998,-15.16735 -0.85428,-16.24435 -0.32813,-0.77788 -0.80186,-1.31968 -1.17546,-1.34437 -0.34419,-0.0227 -1.79003,-0.0916 -3.21297,-0.15313 -3.43365,-0.14835 -3.9953,-0.32114 -4.47645,-1.37716 -0.54238,-1.19039 -0.54577,-10.25273 -0.004,-11.44116 0.48234,-1.05863 2.07059,-1.57635 4.84434,-1.57911 2.93429,-0.003 4.04986,-0.50957 4.4725,-2.03122 0.19427,-0.69944 0.3541,-3.63669 0.35516,-6.52723 0.002,-6.12965 0.17778,-7.29875 1.19589,-7.96584 1.08852,-0.71323 12.7868,-2.08273 14.3878,-1.68436 1.95037,0.48529 2.12575,1.17559 2.15384,8.47748 0.0305,7.9279 0.23163,8.69875 2.41782,9.26693 0.93063,0.24186 4.65827,0.42563 9.20803,0.45395 8.27018,0.0515 9.76772,0.30052 10.49686,1.74572 0.59925,1.18772 0.59878,9.58527 -6.9e-4,10.77165 -0.72265,1.43036 -2.28808,1.67616 -12.36783,1.9419 l -9.4212,0.24838 0.003,12.71689 c 0.004,17.81551 0.34351,20.03523 3.47443,22.71518 2.75449,2.35774 7.23011,2.75969 12.50646,1.12317 6.20368,-1.92414 5.53247,-1.84113 6.43191,-0.79548 1.31983,1.53439 2.31584,4.68058 2.50615,7.91634 0.15604,2.65323 0.0973,3.04974 -0.57801,3.89992 -2.56742,3.23239 -16.57382,6.20945 -24.17006,5.13734 z m -71.25685,-0.16116 c -11.38053,-2.17525 -20.35809,-10.24736 -24.36354,-21.90632 -4.4173,-12.85774 -1.76758,-27.62321 6.62038,-36.89192 3.60876,-3.98768 9.92186,-7.61175 16.03076,-9.20253 2.70873,-0.70537 3.94106,-0.8137 9.20803,-0.80944 5.25178,0.004 6.48237,0.11395 9.02662,0.80473 10.80534,2.93372 18.5382,9.55878 21.89591,18.75912 2.57071,7.04392 3.27833,15.83377 1.82667,22.69038 -2.68075,12.66193 -11.3803,22.2136 -23.5686,25.87714 -2.69528,0.81014 -3.82539,0.94588 -8.65939,1.04013 -3.66307,0.0714 -6.3978,-0.0518 -8.01684,-0.36129 z m 11.38978,-14.77696 c 7.46051,-2.30432 11.84144,-10.47426 11.2759,-21.02827 -0.33611,-6.27241 -1.9448,-10.73521 -5.12332,-14.21302 -2.86162,-3.13107 -7.30885,-4.70047 -12.062,-4.25662 -8.10052,0.75644 -13.27353,8.47854 -13.27353,19.81432 0,9.9246 3.56014,16.89022 9.98241,19.5312 2.58098,1.06136 6.07051,1.11915 9.20054,0.15239 z m -55.66757,14.97182 c -2.0027,-0.30356 -5.44943,-1.89172 -6.72067,-3.0967 -3.04396,-2.88529 -3.83477,-7.86712 -4.23022,-26.64888 -0.34648,-16.45583 -0.71561,-18.51411 -3.70926,-20.6827 -1.96721,-1.42504 -4.40196,-2.07771 -7.72803,-2.07162 -4.69991,0.009 -8.61367,1.22293 -12.61969,3.9155 l -2.1717,1.45967 v 20.19561 c 0,12.29072 -0.1389,20.92801 -0.35486,22.06676 -0.21742,1.14648 -0.67216,2.18845 -1.17417,2.69046 -0.9161,0.9161 -1.84126,0.99311 -9.99778,0.83221 -4.16953,-0.0822 -4.4605,-0.13474 -5.47383,-0.98741 l -1.07023,-0.90053 0.088,-51.26973 0.088,-51.26974 0.98066,-0.73244 c 0.92099,-0.68787 1.40379,-0.73243 7.93539,-0.73243 6.80349,0 6.96859,0.0171 7.59136,0.78581 1.23585,1.52548 1.38736,3.81846 1.3899,21.0352 0.003,17.47337 0.16037,21.43933 0.85302,21.43933 0.22415,0 2.11698,-0.76348 4.2063,-1.69661 5.79465,-2.58803 9.05331,-3.31151 14.91788,-3.31208 4.01159,-3.5e-4 5.35207,0.1379 7.6444,0.78869 4.53389,1.28714 6.99111,2.67179 9.9307,5.59597 2.97342,2.95783 4.12916,5.01874 5.1716,9.22194 1.1959,4.82203 1.42911,7.98467 1.6142,21.89078 0.0992,7.45329 0.33963,14.38111 0.5343,15.39517 0.41129,2.14249 0.97154,2.49967 3.92079,2.49967 3.36194,0 3.87935,0.88976 4.32553,7.4385 l 0.23455,3.44257 -1.80639,0.827 c -3.24569,1.48592 -10.61182,2.44965 -14.36978,1.88003 z M 30.944678,730.92812 c -0.77001,-0.48718 -0.979647,-6.07582 -1.245488,-33.20311 -0.221234,-22.5755 0.239911,-62.47827 0.749558,-64.859 0.114192,-0.53343 0.513723,-1.02286 0.94514,-1.1578 1.445036,-0.45201 26.989399,-0.62073 32.517765,-0.21478 24.41066,1.79245 36.371777,11.77908 38.277227,31.95859 1.36138,14.41764 -2.9628,26.94821 -11.556441,33.48817 -8.019508,6.10303 -17.328845,8.53007 -35.070638,9.14328 l -6.809533,0.23536 -0.242915,10.47068 c -0.133603,5.75887 -0.384303,11.09612 -0.557111,11.86056 -0.571778,2.52934 -0.844451,2.60675 -9.160672,2.60073 -4.039914,-0.003 -7.571016,-0.14813 -7.846892,-0.32268 z M 65.00771,689.41014 c 6.067946,-0.93208 11.345881,-3.3991 14.069093,-6.57621 1.467728,-1.71236 3.009825,-4.87449 3.667761,-7.5209 0.707145,-2.84435 0.595787,-11.36726 -0.186141,-14.24638 C 79.829328,651.01792 71.722434,647.1737 53.250178,647.16893 l -4.604012,-0.001 v 21.20702 21.20703 l 0.781814,0.34141 c 1.069811,0.46718 11.416375,0.12645 15.57973,-0.51307 z" /></g></svg>
