<?xml version="1.0" encoding="UTF-8" standalone="no"?>
<!-- Created with Inkscape (http://www.inkscape.org/) -->

<svg
   width="390.87302"
   height="134.07266"
   viewBox="0 0 390.87302 134.07266"
   version="1.1"
   id="SVGRoot"
   sodipodi:docname="stamp 2.svg"
   xml:space="preserve"
   inkscape:version="1.2.2 (732a01da63, 2022-12-09)"
   xmlns:inkscape="http://www.inkscape.org/namespaces/inkscape"
   xmlns:sodipodi="http://sodipodi.sourceforge.net/DTD/sodipodi-0.dtd"
   xmlns="http://www.w3.org/2000/svg"
   xmlns:svg="http://www.w3.org/2000/svg"><sodipodi:namedview
     id="namedview42"
     pagecolor="#505050"
     bordercolor="#eeeeee"
     borderopacity="1"
     inkscape:showpageshadow="0"
     inkscape:pageopacity="0"
     inkscape:pagecheckerboard="0"
     inkscape:deskcolor="#505050"
     inkscape:document-units="px"
     showgrid="false"
     inkscape:zoom="1.0175"
     inkscape:cx="123.83292"
     inkscape:cy="43.734644"
     inkscape:window-width="1350"
     inkscape:window-height="1040"
     inkscape:window-x="63"
     inkscape:window-y="0"
     inkscape:window-maximized="0"
     inkscape:current-layer="layer1" /><defs
     id="defs37" /><g
     inkscape:label="Capa 1"
     inkscape:groupmode="layer"
     id="layer1"
     transform="translate(-379.4401,-629.49841)"><path
       id="path13096"
       style="fill:#df214b;fill-opacity:1;fill-rule:evenodd;stroke:none;stroke-width:0.347473;stroke-opacity:1"
       d="m 485.41152,732.65466 c -7.08222,-0.91424 -12.67005,-4.8605 -15.75672,-11.12777 -2.11575,-4.29591 -2.22783,-5.33273 -2.61042,-24.14935 -0.34735,-17.08336 -0.38803,-17.34914 -2.70129,-17.64748 -0.73471,-0.0947 -2.27401,-0.19588 -3.42067,-0.22472 -2.71356,-0.0683 -3.1163,-0.20959 -3.59573,-1.26182 -0.52303,-1.14794 -0.53455,-10.24733 -0.0144,-11.3889 0.5045,-1.10727 1.68923,-1.6183 3.75173,-1.6183 3.12581,0 4.89587,-0.39149 5.31555,-1.17566 0.22046,-0.41194 0.52298,-3.90291 0.69448,-8.01424 0.16712,-4.0064 0.37822,-7.35872 0.4691,-7.44961 0.24131,-0.24131 11.8864,-1.75333 13.60019,-1.76587 1.04963,-0.008 1.73015,0.22376 2.43231,0.82722 l 0.97492,0.83789 0.17374,7.49236 c 0.16733,7.2161 0.20289,7.52153 0.9644,8.28327 0.7737,0.77394 0.99019,0.79463 10.0928,0.96464 10.34007,0.19312 10.87816,0.30983 11.30664,2.45221 0.40091,2.00456 0.23986,9.13226 -0.22724,10.05681 -0.71901,1.42317 -2.27255,1.66605 -12.38302,1.93593 l -9.46798,0.25273 0.14663,14.97628 c 0.16727,17.08509 0.21251,17.41026 2.77057,19.91472 2.14419,2.09926 3.66091,2.63841 7.40637,2.63271 2.74904,-0.004 3.65093,-0.17934 7.2678,-1.41151 l 4.12929,-1.40674 0.94075,0.94076 c 1.17485,1.17484 2.05871,4.79956 2.14359,8.79083 0.0598,2.81188 0.0543,2.83068 -1.10933,3.80214 -2.3142,1.93197 -8.93684,3.80238 -15.81567,4.46676 -3.85772,0.37259 -4.6933,0.37424 -7.47838,0.0147 z m 221.17662,30.10043 c -1.04908,-1.6011 -1.32934,-12.32653 -1.31794,-50.43623 0.0114,-38.00569 0.20889,-45.2556 1.26167,-46.30999 0.50988,-0.51066 1.45304,-0.61263 6.40657,-0.69267 6.93299,-0.11202 7.2137,-0.0186 8.11148,2.6999 0.34712,1.05111 0.63554,1.95019 0.64092,1.99797 0.0497,0.44123 1.55369,-0.14668 2.96441,-1.15878 2.53535,-1.81895 5.29581,-3.14201 8.75639,-4.19684 2.73393,-0.83334 3.60673,-0.93168 8.26866,-0.93168 4.68251,0 5.52809,0.0962 8.3222,0.94719 5.96165,1.81565 11.08588,5.165 14.15046,9.24918 4.98121,6.63846 7.21796,18.43807 5.68224,29.97575 -1.22348,9.19189 -4.19242,15.5348 -9.62735,20.56807 -8.16296,7.55969 -19.87216,10.22683 -32.20823,7.33645 -2.17329,-0.50921 -4.04705,-0.83023 -4.16391,-0.71337 -0.11686,0.11686 -0.29324,6.88654 -0.39197,15.04373 -0.17889,14.78154 -0.18221,14.83563 -0.98964,16.13428 l -0.81016,1.30302 h -7.26057 c -7.23615,0 -7.26238,-0.003 -7.79523,-0.81598 z m 35.26589,-46.4144 c 8.95389,-2.81222 13.26781,-15.46043 9.19356,-26.95502 -2.05589,-5.80022 -6.94678,-9.5555 -12.44512,-9.5555 -4.48771,0 -10.70609,2.23342 -13.57102,4.87421 l -1.60101,1.47576 0.0906,14.44434 0.0906,14.44433 2.60605,0.81817 c 1.43332,0.44999 3.46604,0.95652 4.51714,1.12563 2.96543,0.47707 8.5318,0.1407 11.11912,-0.67192 z m -60.81408,15.94509 c -3.86894,-0.91907 -6.56471,-2.92956 -7.58201,-5.65464 -1.16156,-3.1115 -1.47426,-6.58544 -1.97633,-21.95668 -0.62215,-19.04709 -0.76612,-19.92734 -3.70036,-22.62322 -3.71369,-3.41199 -10.34214,-2.75809 -17.23387,1.70015 l -2.51095,1.62433 -0.0189,16.77256 c -0.0284,25.15857 -0.32464,28.36468 -2.68028,29.01056 -0.52208,0.14315 -3.61428,0.26269 -6.87156,0.26564 -6.86503,0.006 -7.43186,-0.17962 -8.12483,-2.66393 -0.28217,-1.01154 -0.51922,-7.55695 -0.72761,-20.09015 -0.31309,-18.83078 -0.57622,-22.81093 -1.65362,-25.01261 -0.81149,-1.65829 -3.71686,-3.364 -6.27423,-3.68352 -4.16184,-0.51999 -9.83642,1.10257 -13.63452,3.89857 l -2.0586,1.51546 v 21.8606 21.86061 l -1.05265,0.88574 c -1.39466,1.17353 -2.79547,1.4245 -7.98164,1.43 -5.56784,0.006 -7.33184,-0.29881 -8.50161,-1.46858 l -0.9186,-0.9186 0.12595,-29.90291 c 0.13216,-31.3758 0.14861,-31.70263 1.67243,-33.22645 0.61865,-0.61866 1.2069,-0.67201 7.36123,-0.66764 3.67887,0.003 7.04066,0.099 7.47066,0.21426 0.63504,0.17018 0.78181,0.45484 0.78181,1.51634 0,2.36223 0.53892,2.38495 5.15386,0.21729 6.89409,-3.23819 13.23061,-4.2937 19.34296,-3.22208 5.36381,0.94039 8.61919,2.54704 12.48165,6.16019 l 2.28074,2.13352 3.37588,-2.18691 c 13.06857,-8.46588 26.69241,-8.70279 34.78794,-0.60495 1.66237,1.66285 2.61234,3.03924 3.91375,5.67056 0.94519,1.9111 1.86535,4.2777 2.04478,5.25911 0.45561,2.49195 0.69419,7.65237 1.05007,22.71244 0.19566,8.27956 0.45591,13.44462 0.71383,14.16684 0.51928,1.4541 1.23096,1.8169 3.56409,1.8169 2.22175,0 3.48382,0.79473 4.00916,2.52461 0.18772,0.61812 0.43114,2.7891 0.54093,4.82441 l 0.19963,3.70055 -2.1782,0.87199 c -1.19801,0.4796 -3.10063,1.04252 -4.22805,1.25093 -2.35837,0.43597 -9.15756,0.44758 -10.96289,0.0187 z m -150.738,0.35141 c -8.59562,-1.25103 -15.6756,-7.05565 -17.59527,-14.42573 -1.12625,-4.32397 -0.50575,-9.61423 1.64223,-14.00142 2.92949,-5.9834 10.61771,-10.24625 20.7498,-11.50505 3.80739,-0.47302 10.68869,-0.42477 15.24691,0.10691 l 3.59747,0.41962 -0.14056,-3.66029 c -0.11957,-3.11368 -0.27804,-3.92595 -1.0612,-5.43926 -2.12277,-4.10182 -6.36524,-5.9645 -12.73581,-5.59172 -4.12584,0.24143 -8.16306,1.38631 -13.80923,3.91603 -2.32136,1.04007 -4.53836,1.89104 -4.92666,1.89104 -1.6249,0 -2.18442,-1.37153 -3.18941,-7.81814 l -0.7042,-4.51714 1.46426,-1.32462 c 4.76148,-4.30736 13.48583,-6.84236 23.53883,-6.83959 10.98273,0.003 19.00282,2.55268 23.64732,7.51766 5.20263,5.56162 5.69184,8.1703 6.12778,32.67584 l 0.24218,13.61325 1.07479,0.80687 c 0.86008,0.64567 1.4564,0.79278 2.98504,0.73639 3.46423,-0.1278 4.28734,1.24201 4.32263,7.19366 l 0.0216,3.64846 -1.9111,0.93176 c -4.93683,2.40694 -13.29106,2.37423 -18.08372,-0.0708 -0.77333,-0.39453 -2.00432,-1.25781 -2.73553,-1.91842 -0.76642,-0.6924 -1.696,-1.20111 -2.19484,-1.20111 -0.47593,0 -2.19723,0.62415 -3.82511,1.387 -6.45338,3.02416 -15.20858,4.42059 -21.74824,3.4688 z m 16.27247,-15.55124 c 1.05111,-0.38352 3.12291,-1.27855 4.60402,-1.98896 l 2.69291,-1.29166 v -3.3968 -3.39681 l -2.34544,-0.47368 c -1.30718,-0.264 -4.42197,-0.47036 -7.03632,-0.46618 -3.86942,0.006 -5.11683,0.14258 -7.12319,0.77887 -3.21089,1.01828 -5.01093,2.08488 -6.01191,3.56232 -1.79224,2.64534 0.24426,6.01168 4.33274,7.16201 2.42084,0.68113 8.41839,0.41169 10.88719,-0.48911 z m -140.37893,14.88411 c -7.519,-1.59633 -13.27364,-4.61364 -18.26059,-9.57449 -2.89808,-2.88291 -3.76487,-4.00736 -5.0892,-6.60198 -1.56277,-3.06179 -3.4056,-8.23781 -3.4056,-9.56543 0,-0.36795 0.38015,-0.91808 0.84479,-1.22252 1.4097,-0.92368 12.98041,-3.6769 14.96341,-3.56051 l 1.73916,0.10208 1.56363,3.20719 c 1.97221,4.04523 3.61456,5.99996 6.77415,8.06256 9.5483,6.2332 24.81963,5.2202 29.36552,-1.94792 2.90743,-4.58454 1.83764,-10.33881 -2.53601,-13.64095 -2.2021,-1.6626 -7.68871,-4.30402 -12.92904,-6.22441 -2.10221,-0.77039 -6.01128,-2.20692 -8.68681,-3.1923 -16.8609,-6.20969 -24.27933,-12.26401 -26.80996,-21.88011 -0.42574,-1.61774 -0.58966,-3.58954 -0.57775,-6.94945 0.0197,-5.55958 0.70595,-8.63675 2.94464,-13.20396 1.18752,-2.42269 2.0171,-3.51558 4.61575,-6.08078 3.77827,-3.72963 6.96605,-5.64995 12.49312,-7.52584 4.88651,-1.65849 8.91965,-2.38167 14.63112,-2.6235 7.54086,-0.31929 13.7238,0.90237 19.85799,3.92365 8.94242,4.40442 14.70508,12.87769 14.84602,21.82921 l 0.0433,2.74703 -6.25451,1.50634 c -6.76545,1.62939 -8.96556,1.83981 -9.9473,0.95135 -0.34114,-0.30873 -1.03422,-1.80432 -1.54016,-3.32354 -1.84083,-5.52752 -5.07866,-8.89872 -10.04864,-10.46257 -3.50027,-1.1014 -10.72983,-1.09937 -14.25822,0.004 -5.53626,1.73125 -8.23818,5.01102 -8.23818,10.00003 0,6.42339 3.86163,9.41055 19.23811,14.88165 14.3854,5.11847 21.29939,8.56299 26.60148,13.25277 2.30661,2.04023 5.01503,6.08468 5.97388,8.92075 1.78951,5.29301 1.72562,12.65628 -0.1589,18.31219 -3.6824,11.05175 -14.71801,18.88653 -28.4439,20.19388 -6.10623,0.5816 -15.8371,0.42317 -19.31125,-0.31442 z" /></g></svg>
