<svg width="615" height="459" viewBox="0 0 615 459" fill="none" xmlns="http://www.w3.org/2000/svg">
<path d="M530 153C530 236.95 462.168 305 378.5 305C294.832 305 227 236.95 227 153C227 69.0496 294.832 1 378.5 1C462.168 1 530 69.0496 530 153Z" stroke="#4F47E3" stroke-width="2"/>
<path d="M366 153C366 236.95 298.168 305 214.5 305C130.832 305 63 236.95 63 153C63 69.0496 130.832 1 214.5 1C298.168 1 366 69.0496 366 153Z" stroke="#4F47E3" stroke-width="2"/>
<rect width="149" height="52" transform="translate(466 119)" fill="white"/>
<path d="M475.864 153V136.2H486.544V138.264H478.408V143.496H485.824V145.512H478.408V150.936H486.544V153H475.864ZM488.327 153L492.551 147.048L488.327 141.096H491.039L494.231 145.656L497.399 141.096H500.135L495.911 147.048L500.135 153H497.399L494.231 148.44L491.039 153H488.327ZM502.206 158.28V141.096H504.486L504.75 142.944C505.134 142.384 505.662 141.888 506.334 141.456C507.006 141.024 507.87 140.808 508.926 140.808C510.078 140.808 511.094 141.08 511.974 141.624C512.854 142.168 513.542 142.912 514.038 143.856C514.55 144.8 514.806 145.872 514.806 147.072C514.806 148.272 514.55 149.344 514.038 150.288C513.542 151.216 512.854 151.952 511.974 152.496C511.094 153.024 510.07 153.288 508.902 153.288C507.974 153.288 507.15 153.104 506.43 152.736C505.726 152.368 505.166 151.848 504.75 151.176V158.28H502.206ZM508.47 151.08C509.558 151.08 510.454 150.712 511.158 149.976C511.862 149.224 512.214 148.248 512.214 147.048C512.214 146.264 512.054 145.568 511.734 144.96C511.414 144.352 510.974 143.88 510.414 143.544C509.854 143.192 509.206 143.016 508.47 143.016C507.382 143.016 506.486 143.392 505.782 144.144C505.094 144.896 504.75 145.864 504.75 147.048C504.75 148.248 505.094 149.224 505.782 149.976C506.486 150.712 507.382 151.08 508.47 151.08ZM523.125 153.288C521.957 153.288 520.917 153.032 520.005 152.52C519.109 151.992 518.405 151.264 517.893 150.336C517.381 149.408 517.125 148.328 517.125 147.096C517.125 145.848 517.373 144.752 517.869 143.808C518.381 142.864 519.085 142.128 519.981 141.6C520.893 141.072 521.949 140.808 523.149 140.808C524.317 140.808 525.333 141.072 526.197 141.6C527.061 142.112 527.733 142.8 528.213 143.664C528.693 144.528 528.933 145.48 528.933 146.52C528.933 146.68 528.925 146.856 528.909 147.048C528.909 147.224 528.901 147.424 528.885 147.648H519.621C519.701 148.8 520.077 149.68 520.749 150.288C521.437 150.88 522.229 151.176 523.125 151.176C523.845 151.176 524.445 151.016 524.925 150.696C525.421 150.36 525.789 149.912 526.029 149.352H528.573C528.253 150.472 527.613 151.408 526.653 152.16C525.709 152.912 524.533 153.288 523.125 153.288ZM523.125 142.896C522.277 142.896 521.525 143.152 520.869 143.664C520.213 144.16 519.813 144.912 519.669 145.92H526.389C526.341 144.992 526.013 144.256 525.405 143.712C524.797 143.168 524.037 142.896 523.125 142.896ZM531.573 153V141.096H533.853L534.069 143.352C534.485 142.568 535.061 141.952 535.797 141.504C536.549 141.04 537.453 140.808 538.509 140.808V143.472H537.813C537.109 143.472 536.477 143.592 535.917 143.832C535.373 144.056 534.933 144.448 534.597 145.008C534.277 145.552 534.117 146.312 534.117 147.288V153H531.573ZM542.13 138.84C541.65 138.84 541.25 138.696 540.93 138.408C540.626 138.104 540.474 137.728 540.474 137.28C540.474 136.832 540.626 136.464 540.93 136.176C541.25 135.872 541.65 135.72 542.13 135.72C542.61 135.72 543.002 135.872 543.306 136.176C543.626 136.464 543.786 136.832 543.786 137.28C543.786 137.728 543.626 138.104 543.306 138.408C543.002 138.696 542.61 138.84 542.13 138.84ZM540.858 153V141.096H543.402V153H540.858ZM552.328 153.288C551.16 153.288 550.12 153.032 549.208 152.52C548.312 151.992 547.608 151.264 547.096 150.336C546.584 149.408 546.328 148.328 546.328 147.096C546.328 145.848 546.576 144.752 547.072 143.808C547.584 142.864 548.288 142.128 549.184 141.6C550.096 141.072 551.152 140.808 552.352 140.808C553.52 140.808 554.536 141.072 555.4 141.6C556.264 142.112 556.936 142.8 557.416 143.664C557.896 144.528 558.136 145.48 558.136 146.52C558.136 146.68 558.128 146.856 558.112 147.048C558.112 147.224 558.104 147.424 558.088 147.648H548.824C548.904 148.8 549.28 149.68 549.952 150.288C550.64 150.88 551.432 151.176 552.328 151.176C553.048 151.176 553.648 151.016 554.128 150.696C554.624 150.36 554.992 149.912 555.232 149.352H557.776C557.456 150.472 556.816 151.408 555.856 152.16C554.912 152.912 553.736 153.288 552.328 153.288ZM552.328 142.896C551.48 142.896 550.728 143.152 550.072 143.664C549.416 144.16 549.016 144.912 548.872 145.92H555.592C555.544 144.992 555.216 144.256 554.608 143.712C554 143.168 553.24 142.896 552.328 142.896ZM560.776 153V141.096H563.032L563.224 143.184C563.592 142.448 564.128 141.872 564.832 141.456C565.552 141.024 566.376 140.808 567.304 140.808C568.744 140.808 569.872 141.256 570.688 142.152C571.52 143.048 571.936 144.384 571.936 146.16V153H569.416V146.424C569.416 144.12 568.472 142.968 566.584 142.968C565.64 142.968 564.856 143.304 564.232 143.976C563.624 144.648 563.32 145.608 563.32 146.856V153H560.776ZM580.572 153.288C579.404 153.288 578.356 153.024 577.428 152.496C576.516 151.968 575.796 151.24 575.268 150.312C574.756 149.368 574.5 148.28 574.5 147.048C574.5 145.816 574.756 144.736 575.268 143.808C575.796 142.864 576.516 142.128 577.428 141.6C578.356 141.072 579.404 140.808 580.572 140.808C582.044 140.808 583.276 141.192 584.268 141.96C585.276 142.728 585.924 143.768 586.212 145.08H583.548C583.388 144.424 583.036 143.912 582.492 143.544C581.948 143.176 581.308 142.992 580.572 142.992C579.948 142.992 579.372 143.152 578.844 143.472C578.316 143.776 577.892 144.232 577.572 144.84C577.252 145.432 577.092 146.168 577.092 147.048C577.092 147.928 577.252 148.672 577.572 149.28C577.892 149.872 578.316 150.328 578.844 150.648C579.372 150.968 579.948 151.128 580.572 151.128C581.308 151.128 581.948 150.944 582.492 150.576C583.036 150.208 583.388 149.688 583.548 149.016H586.212C585.94 150.296 585.3 151.328 584.292 152.112C583.284 152.896 582.044 153.288 580.572 153.288ZM590.411 138.84C589.931 138.84 589.531 138.696 589.211 138.408C588.907 138.104 588.755 137.728 588.755 137.28C588.755 136.832 588.907 136.464 589.211 136.176C589.531 135.872 589.931 135.72 590.411 135.72C590.891 135.72 591.283 135.872 591.587 136.176C591.907 136.464 592.067 136.832 592.067 137.28C592.067 137.728 591.907 138.104 591.587 138.408C591.283 138.696 590.891 138.84 590.411 138.84ZM589.139 153V141.096H591.683V153H589.139ZM599.074 153.288C598.066 153.288 597.234 153.12 596.578 152.784C595.922 152.448 595.434 152.008 595.114 151.464C594.794 150.904 594.634 150.296 594.634 149.64C594.634 148.488 595.082 147.576 595.978 146.904C596.874 146.232 598.154 145.896 599.818 145.896H602.938V145.68C602.938 144.752 602.682 144.056 602.17 143.592C601.674 143.128 601.026 142.896 600.226 142.896C599.522 142.896 598.906 143.072 598.378 143.424C597.866 143.76 597.554 144.264 597.442 144.936H594.898C594.978 144.072 595.266 143.336 595.762 142.728C596.274 142.104 596.914 141.632 597.682 141.312C598.466 140.976 599.322 140.808 600.25 140.808C601.914 140.808 603.202 141.248 604.114 142.128C605.026 142.992 605.482 144.176 605.482 145.68V153H603.274L603.058 150.96C602.722 151.616 602.234 152.168 601.594 152.616C600.954 153.064 600.114 153.288 599.074 153.288ZM599.578 151.224C600.266 151.224 600.842 151.064 601.306 150.744C601.786 150.408 602.154 149.968 602.41 149.424C602.682 148.88 602.85 148.28 602.914 147.624H600.082C599.074 147.624 598.354 147.8 597.922 148.152C597.506 148.504 597.298 148.944 597.298 149.472C597.298 150.016 597.498 150.448 597.898 150.768C598.314 151.072 598.874 151.224 599.578 151.224Z" fill="#1D1A1B"/>
<path d="M239.067 361V344.2H241.611V361H239.067ZM244.924 361V349.096H247.18L247.372 351.184C247.74 350.448 248.276 349.872 248.98 349.456C249.7 349.024 250.524 348.808 251.452 348.808C252.892 348.808 254.02 349.256 254.836 350.152C255.668 351.048 256.084 352.384 256.084 354.16V361H253.564V354.424C253.564 352.12 252.62 350.968 250.732 350.968C249.788 350.968 249.004 351.304 248.38 351.976C247.772 352.648 247.468 353.608 247.468 354.856V361H244.924ZM259.081 361V349.096H261.337L261.529 351.184C261.897 350.448 262.433 349.872 263.137 349.456C263.857 349.024 264.681 348.808 265.609 348.808C267.049 348.808 268.177 349.256 268.993 350.152C269.825 351.048 270.241 352.384 270.241 354.16V361H267.721V354.424C267.721 352.12 266.777 350.968 264.889 350.968C263.945 350.968 263.161 351.304 262.537 351.976C261.929 352.648 261.625 353.608 261.625 354.856V361H259.081ZM278.805 361.288C277.669 361.288 276.645 361.032 275.733 360.52C274.837 359.992 274.125 359.264 273.597 358.336C273.069 357.392 272.805 356.296 272.805 355.048C272.805 353.8 273.069 352.712 273.597 351.784C274.141 350.84 274.869 350.112 275.781 349.6C276.693 349.072 277.709 348.808 278.829 348.808C279.965 348.808 280.981 349.072 281.877 349.6C282.789 350.112 283.509 350.84 284.037 351.784C284.581 352.712 284.853 353.8 284.853 355.048C284.853 356.296 284.581 357.392 284.037 358.336C283.509 359.264 282.789 359.992 281.877 360.52C280.965 361.032 279.941 361.288 278.805 361.288ZM278.805 359.104C279.413 359.104 279.973 358.952 280.485 358.648C281.013 358.344 281.437 357.896 281.757 357.304C282.077 356.696 282.237 355.944 282.237 355.048C282.237 354.152 282.077 353.408 281.757 352.816C281.453 352.208 281.037 351.752 280.509 351.448C279.997 351.144 279.437 350.992 278.829 350.992C278.221 350.992 277.653 351.144 277.125 351.448C276.613 351.752 276.197 352.208 275.877 352.816C275.557 353.408 275.397 354.152 275.397 355.048C275.397 355.944 275.557 356.696 275.877 357.304C276.197 357.896 276.613 358.344 277.125 358.648C277.637 358.952 278.197 359.104 278.805 359.104ZM290.331 361L285.867 349.096H288.531L291.843 358.576L295.155 349.096H297.795L293.355 361H290.331ZM303.238 361.288C302.23 361.288 301.398 361.12 300.742 360.784C300.086 360.448 299.598 360.008 299.278 359.464C298.958 358.904 298.798 358.296 298.798 357.64C298.798 356.488 299.246 355.576 300.142 354.904C301.038 354.232 302.318 353.896 303.982 353.896H307.102V353.68C307.102 352.752 306.846 352.056 306.334 351.592C305.838 351.128 305.19 350.896 304.39 350.896C303.686 350.896 303.07 351.072 302.542 351.424C302.03 351.76 301.718 352.264 301.606 352.936H299.062C299.142 352.072 299.43 351.336 299.926 350.728C300.438 350.104 301.078 349.632 301.846 349.312C302.63 348.976 303.486 348.808 304.414 348.808C306.078 348.808 307.366 349.248 308.278 350.128C309.19 350.992 309.646 352.176 309.646 353.68V361H307.438L307.222 358.96C306.886 359.616 306.398 360.168 305.758 360.616C305.118 361.064 304.278 361.288 303.238 361.288ZM303.742 359.224C304.43 359.224 305.006 359.064 305.47 358.744C305.95 358.408 306.318 357.968 306.574 357.424C306.846 356.88 307.014 356.28 307.078 355.624H304.246C303.238 355.624 302.518 355.8 302.086 356.152C301.67 356.504 301.462 356.944 301.462 357.472C301.462 358.016 301.662 358.448 302.062 358.768C302.478 359.072 303.038 359.224 303.742 359.224ZM318.252 361.288C317.084 361.288 316.036 361.024 315.108 360.496C314.196 359.968 313.476 359.24 312.948 358.312C312.436 357.368 312.18 356.28 312.18 355.048C312.18 353.816 312.436 352.736 312.948 351.808C313.476 350.864 314.196 350.128 315.108 349.6C316.036 349.072 317.084 348.808 318.252 348.808C319.724 348.808 320.956 349.192 321.948 349.96C322.956 350.728 323.604 351.768 323.892 353.08H321.228C321.068 352.424 320.716 351.912 320.172 351.544C319.628 351.176 318.988 350.992 318.252 350.992C317.628 350.992 317.052 351.152 316.524 351.472C315.996 351.776 315.572 352.232 315.252 352.84C314.932 353.432 314.772 354.168 314.772 355.048C314.772 355.928 314.932 356.672 315.252 357.28C315.572 357.872 315.996 358.328 316.524 358.648C317.052 358.968 317.628 359.128 318.252 359.128C318.988 359.128 319.628 358.944 320.172 358.576C320.716 358.208 321.068 357.688 321.228 357.016H323.892C323.62 358.296 322.98 359.328 321.972 360.112C320.964 360.896 319.724 361.288 318.252 361.288ZM328.091 346.84C327.611 346.84 327.211 346.696 326.891 346.408C326.587 346.104 326.435 345.728 326.435 345.28C326.435 344.832 326.587 344.464 326.891 344.176C327.211 343.872 327.611 343.72 328.091 343.72C328.571 343.72 328.963 343.872 329.267 344.176C329.587 344.464 329.747 344.832 329.747 345.28C329.747 345.728 329.587 346.104 329.267 346.408C328.963 346.696 328.571 346.84 328.091 346.84ZM326.819 361V349.096H329.363V361H326.819ZM338.289 361.288C337.153 361.288 336.129 361.032 335.217 360.52C334.321 359.992 333.609 359.264 333.081 358.336C332.553 357.392 332.289 356.296 332.289 355.048C332.289 353.8 332.553 352.712 333.081 351.784C333.625 350.84 334.353 350.112 335.265 349.6C336.177 349.072 337.193 348.808 338.313 348.808C339.449 348.808 340.465 349.072 341.361 349.6C342.273 350.112 342.993 350.84 343.521 351.784C344.065 352.712 344.337 353.8 344.337 355.048C344.337 356.296 344.065 357.392 343.521 358.336C342.993 359.264 342.273 359.992 341.361 360.52C340.449 361.032 339.425 361.288 338.289 361.288ZM338.289 359.104C338.897 359.104 339.457 358.952 339.969 358.648C340.497 358.344 340.921 357.896 341.241 357.304C341.561 356.696 341.721 355.944 341.721 355.048C341.721 354.152 341.561 353.408 341.241 352.816C340.937 352.208 340.521 351.752 339.993 351.448C339.481 351.144 338.921 350.992 338.313 350.992C337.705 350.992 337.137 351.144 336.609 351.448C336.097 351.752 335.681 352.208 335.361 352.816C335.041 353.408 334.881 354.152 334.881 355.048C334.881 355.944 335.041 356.696 335.361 357.304C335.681 357.896 336.097 358.344 336.609 358.648C337.121 358.952 337.681 359.104 338.289 359.104ZM337.641 348.112V346.288L342.873 343.312V345.424L337.641 348.112ZM347.088 361V349.096H349.344L349.536 351.184C349.904 350.448 350.44 349.872 351.144 349.456C351.864 349.024 352.688 348.808 353.616 348.808C355.056 348.808 356.184 349.256 357 350.152C357.832 351.048 358.248 352.384 358.248 354.16V361H355.728V354.424C355.728 352.12 354.784 350.968 352.896 350.968C351.952 350.968 351.168 351.304 350.544 351.976C349.936 352.648 349.632 353.608 349.632 354.856V361H347.088Z" fill="#1D1A1B"/>
<path d="M449 306C449 389.95 381.168 458 297.5 458C213.832 458 146 389.95 146 306C146 222.05 213.832 154 297.5 154C381.168 154 449 222.05 449 306Z" stroke="#4F47E3" stroke-width="2"/>
<rect width="103" height="52" transform="translate(0 119)" fill="white"/>
<path d="M17.274 153.288C15.61 153.288 14.17 152.928 12.954 152.208C11.754 151.472 10.826 150.456 10.17 149.16C9.51403 147.848 9.18603 146.336 9.18603 144.624C9.18603 142.896 9.51403 141.384 10.17 140.088C10.826 138.776 11.754 137.752 12.954 137.016C14.17 136.28 15.61 135.912 17.274 135.912C19.242 135.912 20.85 136.392 22.098 137.352C23.346 138.312 24.138 139.656 24.474 141.384H21.642C21.418 140.408 20.938 139.632 20.202 139.056C19.466 138.48 18.482 138.192 17.25 138.192C15.57 138.192 14.242 138.768 13.266 139.92C12.29 141.056 11.802 142.624 11.802 144.624C11.802 146.608 12.29 148.168 13.266 149.304C14.242 150.44 15.57 151.008 17.25 151.008C18.482 151.008 19.466 150.736 20.202 150.192C20.938 149.648 21.418 148.904 21.642 147.96H24.474C24.138 149.624 23.346 150.928 22.098 151.872C20.85 152.816 19.242 153.288 17.274 153.288ZM31.2064 153.288C30.1984 153.288 29.3664 153.12 28.7104 152.784C28.0544 152.448 27.5664 152.008 27.2464 151.464C26.9264 150.904 26.7664 150.296 26.7664 149.64C26.7664 148.488 27.2144 147.576 28.1104 146.904C29.0064 146.232 30.2864 145.896 31.9504 145.896H35.0704V145.68C35.0704 144.752 34.8144 144.056 34.3024 143.592C33.8064 143.128 33.1584 142.896 32.3584 142.896C31.6544 142.896 31.0384 143.072 30.5104 143.424C29.9984 143.76 29.6864 144.264 29.5744 144.936H27.0304C27.1104 144.072 27.3984 143.336 27.8944 142.728C28.4064 142.104 29.0464 141.632 29.8144 141.312C30.5984 140.976 31.4544 140.808 32.3824 140.808C34.0464 140.808 35.3344 141.248 36.2464 142.128C37.1584 142.992 37.6144 144.176 37.6144 145.68V153H35.4064L35.1904 150.96C34.8544 151.616 34.3664 152.168 33.7264 152.616C33.0864 153.064 32.2464 153.288 31.2064 153.288ZM31.7104 151.224C32.3984 151.224 32.9744 151.064 33.4384 150.744C33.9184 150.408 34.2864 149.968 34.5424 149.424C34.8144 148.88 34.9824 148.28 35.0464 147.624H32.2144C31.2064 147.624 30.4864 147.8 30.0544 148.152C29.6384 148.504 29.4304 148.944 29.4304 149.472C29.4304 150.016 29.6304 150.448 30.0304 150.768C30.4464 151.072 31.0064 151.224 31.7104 151.224ZM40.5807 153V135.72H43.1247V153H40.5807ZM47.7863 138.84C47.3063 138.84 46.9063 138.696 46.5863 138.408C46.2823 138.104 46.1303 137.728 46.1303 137.28C46.1303 136.832 46.2823 136.464 46.5863 136.176C46.9063 135.872 47.3063 135.72 47.7863 135.72C48.2663 135.72 48.6583 135.872 48.9623 136.176C49.2823 136.464 49.4423 136.832 49.4423 137.28C49.4423 137.728 49.2823 138.104 48.9623 138.408C48.6583 138.696 48.2663 138.84 47.7863 138.84ZM46.5143 153V141.096H49.0583V153H46.5143ZM57.8406 153.288C56.6886 153.288 55.6726 153.016 54.7926 152.472C53.9126 151.928 53.2246 151.184 52.7286 150.24C52.2326 149.296 51.9846 148.224 51.9846 147.024C51.9846 145.824 52.2326 144.76 52.7286 143.832C53.2246 142.888 53.9126 142.152 54.7926 141.624C55.6886 141.08 56.7126 140.808 57.8646 140.808C58.8086 140.808 59.6326 140.992 60.3366 141.36C61.0566 141.728 61.6166 142.248 62.0166 142.92V135.72H64.5606V153H62.2806L62.0166 151.152C61.6326 151.712 61.1046 152.208 60.4326 152.64C59.7606 153.072 58.8966 153.288 57.8406 153.288ZM58.2966 151.08C59.3846 151.08 60.2726 150.704 60.9606 149.952C61.6646 149.2 62.0166 148.232 62.0166 147.048C62.0166 145.848 61.6646 144.88 60.9606 144.144C60.2726 143.392 59.3846 143.016 58.2966 143.016C57.2086 143.016 56.3126 143.392 55.6086 144.144C54.9046 144.88 54.5526 145.848 54.5526 147.048C54.5526 147.832 54.7126 148.528 55.0326 149.136C55.3526 149.744 55.7926 150.224 56.3526 150.576C56.9286 150.912 57.5766 151.08 58.2966 151.08ZM71.8002 153.288C70.7922 153.288 69.9602 153.12 69.3042 152.784C68.6482 152.448 68.1602 152.008 67.8402 151.464C67.5202 150.904 67.3602 150.296 67.3602 149.64C67.3602 148.488 67.8082 147.576 68.7042 146.904C69.6002 146.232 70.8802 145.896 72.5442 145.896H75.6642V145.68C75.6642 144.752 75.4082 144.056 74.8962 143.592C74.4002 143.128 73.7522 142.896 72.9522 142.896C72.2482 142.896 71.6322 143.072 71.1042 143.424C70.5922 143.76 70.2802 144.264 70.1682 144.936H67.6242C67.7042 144.072 67.9922 143.336 68.4882 142.728C69.0002 142.104 69.6402 141.632 70.4082 141.312C71.1922 140.976 72.0482 140.808 72.9762 140.808C74.6402 140.808 75.9282 141.248 76.8402 142.128C77.7522 142.992 78.2082 144.176 78.2082 145.68V153H76.0002L75.7842 150.96C75.4482 151.616 74.9602 152.168 74.3202 152.616C73.6802 153.064 72.8402 153.288 71.8002 153.288ZM72.3042 151.224C72.9922 151.224 73.5682 151.064 74.0322 150.744C74.5122 150.408 74.8802 149.968 75.1362 149.424C75.4082 148.88 75.5762 148.28 75.6402 147.624H72.8082C71.8002 147.624 71.0802 147.8 70.6482 148.152C70.2322 148.504 70.0242 148.944 70.0242 149.472C70.0242 150.016 70.2242 150.448 70.6242 150.768C71.0402 151.072 71.6002 151.224 72.3042 151.224ZM86.5984 153.288C85.4464 153.288 84.4304 153.016 83.5504 152.472C82.6704 151.928 81.9824 151.184 81.4864 150.24C80.9904 149.296 80.7424 148.224 80.7424 147.024C80.7424 145.824 80.9904 144.76 81.4864 143.832C81.9824 142.888 82.6704 142.152 83.5504 141.624C84.4464 141.08 85.4704 140.808 86.6224 140.808C87.5664 140.808 88.3904 140.992 89.0944 141.36C89.8144 141.728 90.3744 142.248 90.7744 142.92V135.72H93.3184V153H91.0384L90.7744 151.152C90.3904 151.712 89.8624 152.208 89.1904 152.64C88.5184 153.072 87.6544 153.288 86.5984 153.288ZM87.0544 151.08C88.1424 151.08 89.0304 150.704 89.7184 149.952C90.4224 149.2 90.7744 148.232 90.7744 147.048C90.7744 145.848 90.4224 144.88 89.7184 144.144C89.0304 143.392 88.1424 143.016 87.0544 143.016C85.9664 143.016 85.0704 143.392 84.3664 144.144C83.6624 144.88 83.3104 145.848 83.3104 147.048C83.3104 147.832 83.4704 148.528 83.7904 149.136C84.1104 149.744 84.5504 150.224 85.1104 150.576C85.6864 150.912 86.3344 151.08 87.0544 151.08Z" fill="#1D1A1B"/>
</svg>
